<?xml version="1.0" encoding="UTF-8" standalone="no"?>
<svg
   xmlns:dc="http://purl.org/dc/elements/1.1/"
   xmlns:cc="http://creativecommons.org/ns#"
   xmlns:rdf="http://www.w3.org/1999/02/22-rdf-syntax-ns#"
   xmlns:svg="http://www.w3.org/2000/svg"
   xmlns="http://www.w3.org/2000/svg"
   id="svg8"
   version="1.1"
   viewBox="0 0 47.925511 15.826272"
   height="15.826272mm"
   width="47.92551mm">
  <defs
     id="defs2" />
  <metadata
     id="metadata5">
    <rdf:RDF>
      <cc:Work
         rdf:about="">
        <dc:format>image/svg+xml</dc:format>
        <dc:type
           rdf:resource="http://purl.org/dc/dcmitype/StillImage" />
        <dc:title></dc:title>
      </cc:Work>
    </rdf:RDF>
  </metadata>
  <g
     transform="translate(-35.606413,-102.1106)"
     id="layer1">
    <g
       transform="matrix(0.84299459,0,0,0.84299459,10.108094,37.561767)"
       id="g1230">
      <path
         id="path1244"
         d="m 65.883044,95.279305 c -0.02947,-0.03599 -0.07549,-0.211436 -0.102261,-0.389881 -0.04206,-0.280404 -0.02225,-0.472949 0.14595,-1.418452 0.107041,-0.601704 0.193233,-1.209523 0.191537,-1.35071 -0.0017,-0.141187 0.02925,-0.345026 0.06878,-0.452977 0.05061,-0.13823 0.05546,-0.212679 0.01639,-0.251751 -0.03907,-0.03907 -0.401682,0.02197 -1.226181,0.206426 -0.643886,0.144048 -1.176715,0.255892 -1.184065,0.248542 -0.0073,-0.0073 0.101246,-0.100764 0.241322,-0.207587 0.204349,-0.155839 0.418798,-0.241841 1.08508,-0.435158 0.456718,-0.132514 0.891346,-0.251902 0.96584,-0.265308 0.171885,-0.03093 0.281614,-0.219052 0.359892,-0.617 0.160847,-0.817713 0.549611,-1.926299 0.734062,-2.093225 0.05327,-0.04821 0.151804,-0.07987 0.218959,-0.07036 0.101092,0.01432 0.125057,0.05332 0.139275,0.226688 0.03233,0.394208 -0.22424,1.372339 -0.520275,1.983468 -0.204171,0.421487 -0.199725,0.44606 0.07123,0.393644 0.4733,-0.09156 0.495352,-0.06678 0.167281,0.187969 -0.166851,0.129563 -0.347564,0.235569 -0.401584,0.235569 -0.129428,0 -0.232514,0.252994 -0.278208,0.682782 -0.01976,0.185909 -0.128771,0.818153 -0.242235,1.404987 -0.113463,0.586834 -0.200386,1.116864 -0.19316,1.177844 0.01188,0.100271 -0.156135,0.869927 -0.189905,0.869927 -0.0078,0 -0.03824,-0.02945 -0.06772,-0.06544 z m 1.347437,-6.026099 c -0.0011,-0.03268 -0.03646,0.01984 -0.07852,0.116717 -0.04206,0.09688 -0.07555,0.202885 -0.07442,0.235569 0.0011,0.03268 0.03646,-0.01984 0.07852,-0.116718 0.04206,-0.09688 0.07555,-0.202885 0.07443,-0.235568 z m 7.535407,2.684036 c -0.105304,-0.105305 -0.108088,-0.164051 -0.01819,-0.383776 0.03472,-0.08487 0.02537,-0.0941 -0.0595,-0.0587 -0.270174,0.112671 -0.326475,0.09607 -0.622001,-0.183428 -0.26214,-0.247922 -0.30378,-0.269752 -0.416544,-0.218373 -0.06891,0.0314 -0.258947,0.222512 -0.422308,0.424701 -0.276564,0.342298 -0.460666,0.479423 -0.538786,0.401304 -0.01797,-0.01797 -0.0021,-0.167352 0.0353,-0.331958 0.126806,-0.55827 0.153197,-0.769355 0.102803,-0.822244 -0.03184,-0.03341 -0.239256,0.14816 -0.583859,0.511105 -0.671146,0.706869 -0.84406,0.751154 -0.659474,0.168901 0.05477,-0.172751 0.09351,-0.370007 0.08611,-0.438347 -0.01212,-0.111831 -0.05272,-0.08536 -0.406079,0.264681 -0.558255,0.553026 -1.139199,0.863051 -1.220454,0.651304 -0.0152,-0.03961 0.02939,-0.229138 0.0991,-0.42117 0.0697,-0.192031 0.126734,-0.432074 0.126734,-0.533428 0,-0.201725 -0.07762,-0.386792 -0.16223,-0.386792 -0.02962,0 -0.288681,0.229679 -0.575698,0.510399 -0.638855,0.624838 -0.840528,0.754103 -1.094149,0.701313 -0.148436,-0.0309 -0.207895,-0.08451 -0.314092,-0.28321 -0.214995,-0.40227 -0.241736,-0.411172 -0.469682,-0.15636 -0.188739,0.210984 -0.329049,0.275539 -0.388789,0.178878 -0.04088,-0.06614 0.209302,-0.418168 0.536369,-0.754713 0.394886,-0.406329 0.577622,-0.402709 0.660501,0.01309 0.103759,0.520543 0.13037,0.575835 0.277142,0.575835 0.193421,0 1.007142,-0.817838 1.007142,-1.012238 0,-0.157281 0.219888,-0.348826 0.400443,-0.348826 0.192031,0 0.486775,0.303063 0.544186,0.559547 0.03886,0.173604 0.02751,0.288101 -0.05448,0.54966 -0.05696,0.181709 -0.10387,0.336269 -0.104242,0.343467 -3.66e-4,0.0072 0.03491,0.01309 0.0784,0.01309 0.04349,0 0.379535,-0.306239 0.746759,-0.680532 0.466887,-0.475873 0.703359,-0.680532 0.786317,-0.680532 0.159428,0 0.191149,0.108805 0.126578,0.434174 -0.02975,0.149893 -0.04431,0.282476 -0.03237,0.294628 0.01194,0.01215 0.220761,-0.17219 0.464041,-0.40965 0.335838,-0.327804 0.471251,-0.427645 0.562464,-0.414711 0.108935,0.01545 0.119956,0.04388 0.118214,0.304954 -0.0011,0.158354 -0.02226,0.382145 -0.04712,0.497312 l -0.0452,0.209394 0.240332,-0.220707 c 0.259227,-0.238061 0.47515,-0.323131 0.607795,-0.23946 0.04583,0.02891 0.142382,0.153535 0.214559,0.276947 0.07218,0.123412 0.170306,0.249033 0.218064,0.279158 0.08888,0.05607 0.118823,0.03662 0.508247,-0.330043 0.320623,-0.301884 0.843638,-0.735593 1.007623,-0.835566 0.215382,-0.131309 0.464707,-0.144669 0.464707,-0.0249 0,0.0458 -0.272892,0.357928 -0.606426,0.693619 -0.585813,0.589603 -0.755685,0.793569 -0.660921,0.793569 0.02478,0 0.219953,-0.149434 0.433719,-0.332075 0.517392,-0.442059 0.620627,-0.495803 0.712093,-0.370715 0.04167,0.05698 0.05804,0.160254 0.04049,0.255283 -0.01758,0.09512 -0.0012,0.197844 0.04042,0.254288 0.06053,0.08199 0.09077,0.08619 0.225402,0.03126 0.08552,-0.03489 0.196169,-0.07139 0.245888,-0.0811 0.04972,-0.0097 0.297066,-0.110684 0.54966,-0.22438 0.252594,-0.113696 0.612382,-0.231534 0.799528,-0.261861 0.597787,-0.09687 1.995181,-0.06646 3.230719,0.0703 0.718815,0.07957 1.643543,0.139085 2.501453,0.160997 0.748585,0.01912 1.737973,0.06356 2.198641,0.09875 l 0.837578,0.06399 -0.444964,0.03857 c -1.915026,0.165994 -3.86141,0.179052 -5.103988,0.03424 -1.19754,-0.139561 -2.509678,-0.187032 -3.00723,-0.108797 -0.21439,0.03371 -0.532408,0.12221 -0.706706,0.196665 -0.174298,0.07445 -0.471383,0.190354 -0.660187,0.257554 -0.188805,0.0672 -0.412595,0.158325 -0.497312,0.202502 -0.08472,0.04418 -0.208104,0.08047 -0.274194,0.08064 -0.16021,4.3e-4 -0.377148,-0.22385 -0.377148,-0.389913 0,-0.07329 -0.01564,-0.13325 -0.03475,-0.13325 -0.01911,0 -0.1899,0.137773 -0.379527,0.306162 -0.29907,0.265574 -0.614861,0.479067 -0.708618,0.479067 -0.01583,0 -0.07807,-0.04929 -0.138311,-0.109537 z M 51.056813,91.809855 c -0.04319,-0.0085 -0.2552,-0.04376 -0.471138,-0.07844 -0.523833,-0.08413 -1.500902,-0.407406 -2.01967,-0.668237 -1.527124,-0.767823 -2.774113,-2.050386 -3.524014,-3.624546 -0.4936,-1.036141 -0.706408,-2.017003 -0.703854,-3.244144 0.002,-0.969367 0.09431,-1.545495 0.389846,-2.433689 0.864183,-2.59716 3.00073,-4.485533 5.752995,-5.084744 0.631363,-0.137457 2.346008,-0.139419 2.98387,-0.0034 1.561505,0.332945 2.812336,1.009865 3.929727,2.126674 1.346704,1.346004 2.107392,3.002635 2.230959,4.858599 l 0.03224,0.484225 h -0.578418 -0.578417 l -0.03568,-0.379527 C 58.303821,82.0452 57.641388,80.65086 56.44393,79.507956 c -2.475314,-2.362542 -6.307092,-2.395014 -8.856608,-0.07505 -0.651333,0.592688 -1.286197,1.508263 -1.610725,2.322922 -0.302749,0.759987 -0.423955,1.342072 -0.454625,2.183311 -0.04433,1.215925 0.141982,2.098704 0.667074,3.160701 0.911679,1.843871 2.683806,3.147763 4.759207,3.501721 0.271397,0.04629 0.559968,0.08416 0.64127,0.08416 h 0.147821 v 0.575835 0.575834 L 51.43634,91.83129 C 51.270787,91.82799 51.1,91.81829 51.056813,91.80983 Z M 67.59897,90.711889 c 0,-0.01439 0.01178,-0.02617 0.02617,-0.02617 0.0144,0 0.02617,0.01178 0.02617,0.02617 0,0.0144 -0.01178,0.02617 -0.02617,0.02617 -0.0144,0 -0.02617,-0.01178 -0.02617,-0.02617 z m 0.498142,-1.175227 c -0.0472,-0.148724 0.09294,-0.381458 0.327655,-0.544113 0.195889,-0.135751 0.37822,-0.146223 0.37822,-0.02172 0,0.163169 -0.140425,0.479028 -0.25198,0.566776 -0.170664,0.134245 -0.411148,0.133747 -0.453895,-9.42e-4 z m -35.12674,-1.25565 c -1.298596,-0.156558 -2.233589,-0.998271 -2.600567,-2.341119 -0.164076,-0.60039 -0.163139,-2.003073 0.0017,-2.609156 0.282956,-1.040101 0.751637,-1.658252 1.547058,-2.040439 0.572786,-0.275214 0.919855,-0.350965 1.591295,-0.347314 0.863633,0.0047 1.48691,0.234752 2.00151,0.738772 0.269014,0.263482 0.552627,0.735962 0.65203,1.086233 0.03327,0.117225 0.03058,0.117785 -0.5647,0.117785 h -0.598125 l -0.192878,-0.290495 c -0.337468,-0.508265 -0.82073,-0.733759 -1.482435,-0.691719 -0.687433,0.04367 -1.29356,0.452156 -1.582246,1.066308 -0.220579,0.469263 -0.284771,0.841222 -0.283618,1.643409 0.002,1.421682 0.343846,2.173325 1.162921,2.557336 0.254776,0.119448 0.364436,0.138617 0.792975,0.138617 0.437848,0 0.532743,-0.0174 0.793633,-0.145517 0.270673,-0.132923 0.584769,-0.414383 0.707835,-0.63429 0.04217,-0.07535 0.133991,-0.08539 0.664032,-0.0726 l 0.615098,0.01484 -0.1702,0.329811 c -0.549475,1.064757 -1.734815,1.638754 -3.055361,1.479548 z m 40.793149,-0.0053 c -1.618993,-0.19096 -2.676348,-1.358226 -2.805221,-3.09682 -0.07549,-1.018434 0.07744,-1.968645 0.423515,-2.631532 0.199743,-0.382589 0.847889,-1.043864 1.216709,-1.241355 0.61198,-0.327693 1.723513,-0.466163 2.414523,-0.300789 0.530674,0.127002 1.017461,0.407393 1.437831,0.828195 0.627159,0.627804 0.910537,1.357082 0.973396,2.50505 l 0.03225,0.588922 H 74.80491 72.153298 l 9.11e-4,0.143959 c 0.0017,0.263172 0.154017,0.871464 0.284946,1.137669 0.305921,0.621997 0.726858,0.905561 1.428942,0.962604 l 0.405319,0.03293 v 0.548943 c 0,0.624764 0.03712,0.586743 -0.509895,0.522222 z m 2.398441,-4.460737 c -0.161495,-0.786907 -0.241788,-0.977402 -0.555365,-1.317592 -0.443142,-0.480752 -1.12233,-0.682928 -1.788693,-0.532444 -0.206502,0.04663 -0.474335,0.142735 -0.595184,0.213557 -0.493987,0.289496 -0.877873,0.897801 -0.949792,1.505039 l -0.02952,0.249225 h 1.971361 1.971361 z M 40.430047,83.280102 v -4.896308 h 0.602279 0.602279 l -0.01336,4.881507 -0.01336,4.881507 -0.588922,0.0148 -0.588922,0.0148 z m 23.351237,4.775096 c -0.253989,-0.650419 -2.587704,-6.789025 -2.607734,-6.859385 -0.02458,-0.08636 0.01978,-0.09222 0.594006,-0.07852 l 0.620572,0.01481 0.773512,2.146293 c 0.425431,1.180461 0.860202,2.423086 0.966156,2.761389 0.105955,0.338303 0.210722,0.615096 0.232817,0.615096 0.02209,0 0.06402,-0.08834 0.09317,-0.196307 0.02915,-0.107969 0.471946,-1.356173 0.983997,-2.773786 l 0.931002,-2.577479 0.61001,-6.9e-4 0.61001,-6.9e-4 -0.649498,1.714417 c -0.357224,0.942929 -0.959091,2.533018 -1.337483,3.53353 L 64.913836,88.17299 H 64.37056 c -0.514871,0 -0.545682,-0.0062 -0.589272,-0.117784 z m -12.41038,-0.248727 c -0.804527,-0.08663 -1.355845,-0.361214 -1.994988,-0.993586 -0.365329,-0.361458 -0.491711,-0.530218 -0.667177,-0.890893 -0.289654,-0.595387 -0.387164,-1.010846 -0.387026,-1.648981 2.1e-4,-1.031681 0.316366,-1.800667 1.033018,-2.512732 0.751766,-0.746955 1.420109,-1.024825 2.464942,-1.024825 0.989838,0 1.698681,0.306903 2.37248,1.027195 l 0.319667,0.341726 V 81.91924 81.734104 h 0.523486 0.523486 v 2.61743 2.61743 H 55.035306 54.51182 v -0.220843 -0.220842 l -0.301004,0.294475 c -0.78208,0.765117 -1.752966,1.101764 -2.839912,0.984717 z m 0.540184,-2.404697 c 0.05325,-0.106736 0.05925,-0.168123 0.02026,-0.207117 -0.03899,-0.03899 -0.02941,-0.08416 0.03233,-0.152389 0.05242,-0.05792 0.08776,-0.184405 0.08776,-0.314122 0,-0.171422 0.02644,-0.23448 0.125577,-0.299434 0.243034,-0.159241 0.321298,-0.555016 0.168273,-0.850934 -0.08418,-0.162788 -0.361967,-0.325564 -0.555593,-0.325564 -0.186538,0 -0.442888,0.147437 -0.538873,0.309927 -0.159063,0.269272 -0.07399,0.776154 0.144322,0.859929 0.06336,0.02431 0.08046,0.122411 0.08046,0.46153 0,0.394663 0.01161,0.442769 0.138882,0.575616 0.156613,0.163468 0.189586,0.157082 0.296605,-0.05744 z m -0.208512,-1.446373 c -0.04363,-0.113699 0.06713,-0.220624 0.146416,-0.141341 0.06701,0.06701 0.0255,0.223383 -0.0593,0.223383 -0.0306,0 -0.0698,-0.03692 -0.08712,-0.08204 z"
         style="fill:#a7a7a7;stroke-width:0.0523486" />
      <path
         id="path1242"
         d="m 65.881818,95.259387 c -0.146477,-0.273694 -0.129994,-0.750828 0.06317,-1.828579 0.103522,-0.5776 0.188222,-1.173167 0.188222,-1.323483 0,-0.150317 0.03355,-0.353595 0.07455,-0.451729 0.137844,-0.329908 0.0608,-0.333592 -1.17886,-0.05636 -0.606767,0.135695 -1.112984,0.236947 -1.124927,0.225005 -0.01194,-0.01194 0.06889,-0.09453 0.179626,-0.183515 0.157401,-0.12649 0.415625,-0.222641 1.183225,-0.440578 1.139646,-0.323568 1.052243,-0.245123 1.249684,-1.1216 0.142358,-0.631953 0.508333,-1.658141 0.645345,-1.809538 0.108812,-0.120236 0.324633,-0.12488 0.369503,-0.008 0.09379,0.244412 -0.208288,1.454391 -0.537407,2.1526 -0.09911,0.210265 -0.180208,0.394703 -0.180208,0.409861 0,0.01516 0.06478,0.01517 0.143958,2.9e-5 0.07918,-0.01514 0.249965,-0.04309 0.379528,-0.0621 l 0.235568,-0.03457 -0.22998,0.175728 c -0.302436,0.23109 -0.432029,0.30489 -0.53704,0.305827 -0.113491,10e-4 -0.187028,0.222673 -0.254796,0.768019 -0.03021,0.243102 -0.136362,0.858961 -0.235896,1.368575 -0.09953,0.509614 -0.182002,1.020799 -0.183262,1.135966 -0.0013,0.115167 -0.04493,0.361898 -0.09704,0.548291 -0.08416,0.301034 -0.10125,0.326742 -0.152968,0.230107 z m 1.299761,-5.808101 c 0.03376,-0.102299 0.04991,-0.197475 0.03588,-0.211502 -0.01403,-0.01403 -0.06228,0.08242 -0.107223,0.214328 -0.04494,0.131907 -0.06109,0.227083 -0.03588,0.211502 0.02521,-0.01558 0.07346,-0.112028 0.107223,-0.214328 z m 2.896181,2.463254 c -0.01686,-0.04394 0.02078,-0.239854 0.08365,-0.435366 0.132772,-0.412923 0.128541,-0.779283 -0.01,-0.866106 -0.07712,-0.04833 -0.16988,0.02023 -0.602009,0.444982 -0.664468,0.653124 -0.79025,0.737432 -1.069631,0.716944 -0.210212,-0.01542 -0.226781,-0.02951 -0.372919,-0.317137 -0.08411,-0.165552 -0.182941,-0.301004 -0.219616,-0.301004 -0.03667,0 -0.15181,0.09423 -0.255857,0.209394 -0.195546,0.216446 -0.263523,0.248943 -0.322186,0.154024 -0.0826,-0.133643 0.720301,-1.04395 0.920771,-1.04395 0.124437,0 0.178888,0.104652 0.258752,0.497311 0.07642,0.375714 0.133634,0.459342 0.282409,0.41277 0.153984,-0.0482 0.273426,-0.15054 0.648243,-0.555408 0.215364,-0.232631 0.325902,-0.39558 0.325902,-0.480425 0,-0.145488 0.219066,-0.345386 0.378506,-0.345386 0.143668,0 0.393602,0.18922 0.486036,0.367968 0.09942,0.19225 0.09911,0.500567 -7.91e-4,0.783702 -0.09981,0.282889 -0.09856,0.314091 0.01256,0.314091 0.0501,0 0.374003,-0.293893 0.719794,-0.653096 0.648232,-0.673376 0.873779,-0.820742 0.939456,-0.613812 0.01798,0.05667 0.0076,0.214907 -0.02302,0.351649 -0.03064,0.136741 -0.04301,0.261327 -0.02748,0.276856 0.01553,0.01553 0.225464,-0.164272 0.46652,-0.39956 0.432595,-0.422246 0.615788,-0.515045 0.681043,-0.344993 0.0522,0.13602 0.03643,0.356214 -0.04483,0.626226 -0.04213,0.139993 -0.06671,0.264425 -0.05462,0.276513 0.01209,0.01209 0.132936,-0.07569 0.268548,-0.195056 0.249182,-0.21934 0.431702,-0.300905 0.561705,-0.251018 0.03909,0.015 0.143592,0.155765 0.232222,0.312808 0.08863,0.157043 0.193803,0.298064 0.233719,0.313382 0.04276,0.01641 0.275368,-0.156157 0.566211,-0.420054 0.690299,-0.626346 1.075516,-0.902652 1.25845,-0.902652 0.0928,0 0.151287,0.02758 0.151287,0.07133 0,0.03923 -0.294461,0.369013 -0.654358,0.732848 -0.359896,0.363835 -0.654357,0.685089 -0.654357,0.713899 0,0.108127 0.109818,0.04224 0.523486,-0.31406 0.275177,-0.237017 0.470486,-0.36644 0.552984,-0.36644 0.117151,0 0.127613,0.02027 0.128349,0.248656 0.0012,0.38656 0.03801,0.414312 0.400238,0.302113 0.168117,-0.05208 0.43523,-0.159317 0.593584,-0.238316 0.546099,-0.272437 0.798175,-0.321213 1.806027,-0.349468 0.779144,-0.02184 1.159782,-0.0033 2.198641,0.106971 0.744921,0.07909 1.778465,0.147477 2.538907,0.167999 0.705397,0.01904 1.65945,0.06257 2.120118,0.09674 l 0.837578,0.06213 -0.471138,0.03868 c -2.061629,0.169261 -3.58569,0.177932 -4.827118,0.02746 -0.677863,-0.08216 -1.25169,-0.114208 -2.109071,-0.117784 -1.086124,-0.0045 -1.200264,0.0038 -1.465761,0.107228 -0.158354,0.06168 -0.48815,0.189043 -0.73288,0.283032 -0.24473,0.09399 -0.544439,0.216104 -0.66602,0.271366 -0.33259,0.151169 -0.555225,0.06057 -0.613417,-0.249616 -0.01871,-0.09974 -0.05106,-0.181355 -0.07189,-0.181355 -0.02083,0 -0.21261,0.153773 -0.426181,0.341719 -0.384686,0.338529 -0.5328,0.417389 -0.717995,0.382281 -0.114078,-0.02163 -0.157585,-0.297811 -0.07208,-0.457577 0.05388,-0.100682 0.04941,-0.102036 -0.112386,-0.034 -0.218593,0.09191 -0.372365,0.03364 -0.620496,-0.235134 -0.104943,-0.113674 -0.238643,-0.20668 -0.29711,-0.20668 -0.06682,0 -0.256354,0.165276 -0.510274,0.444963 -0.222182,0.24473 -0.437089,0.444964 -0.477571,0.444964 -0.09531,0 -0.09442,-0.189573 0.0022,-0.463347 0.09369,-0.26556 0.12751,-0.714497 0.05382,-0.714497 -0.08881,0 -0.292155,0.186342 -0.699798,0.64127 -0.427067,0.476607 -0.621031,0.566854 -0.562553,0.261743 0.01793,-0.09357 0.06558,-0.287917 0.105877,-0.431876 0.116907,-0.417634 0.0211,-0.416585 -0.376546,0.0041 -0.340829,0.360594 -0.904197,0.75493 -1.078535,0.75493 -0.04752,0 -0.1002,-0.03595 -0.117061,-0.07989 z m -6.300238,-0.05098 c 0,-0.0144 0.01178,-0.02617 0.02617,-0.02617 0.0144,0 0.02617,0.01178 0.02617,0.02617 0,0.0144 -0.01178,0.02617 -0.02617,0.02617 -0.0144,0 -0.02617,-0.01178 -0.02617,-0.02617 z M 50.611849,91.73422 c -1.526327,-0.275818 -2.885008,-0.986393 -4.006732,-2.095477 -1.197978,-1.184479 -1.912705,-2.577139 -2.202999,-4.292585 -0.09717,-0.574238 -0.08278,-1.80572 0.02845,-2.43421 0.552559,-3.122082 2.8568,-5.514874 5.986873,-6.216944 0.697516,-0.156452 2.369066,-0.167247 3.047404,-0.01968 1.585736,0.344963 2.816395,1.010082 3.929411,2.123677 1.33653,1.337225 2.105031,3.003504 2.2289,4.83274 l 0.03456,0.510399 h -0.583704 c -0.520845,0 -0.58375,-0.0099 -0.584133,-0.09161 -2.61e-4,-0.05039 -0.02465,-0.303061 -0.05426,-0.561501 -0.109244,-0.953642 -0.43797,-1.910836 -0.919808,-2.678314 -0.337988,-0.538352 -0.435387,-0.659773 -0.946204,-1.179566 -2.505745,-2.549772 -6.619261,-2.558647 -9.152568,-0.01975 -0.766865,0.768558 -1.241639,1.524258 -1.563822,2.489141 -0.777052,2.327135 -0.233462,4.818211 1.431798,6.561413 0.746423,0.781359 1.636801,1.350995 2.62012,1.676273 0.524138,0.173382 1.368072,0.347484 1.68438,0.347484 h 0.147821 v 0.575835 0.575834 l -0.301004,-0.0043 c -0.165553,-0.0024 -0.536573,-0.04685 -0.824491,-0.09888 z m 17.545506,-2.130376 c -0.01919,-0.01919 -0.0349,-0.09896 -0.0349,-0.17725 0,-0.193672 0.33605,-0.520731 0.535046,-0.520731 0.08002,0 0.145485,0.0206 0.145485,0.04577 0,0.137198 -0.176395,0.516296 -0.276547,0.59434 -0.117899,0.09187 -0.305647,0.121313 -0.369085,0.05787 z M 32.689305,88.19701 c -1.223576,-0.265495 -2.063722,-1.175685 -2.338939,-2.53394 -0.123959,-0.611762 -0.08336,-1.853559 0.07878,-2.410001 0.272602,-0.935485 0.779883,-1.578856 1.527692,-1.937534 0.584146,-0.280178 1.091352,-0.38479 1.694063,-0.349404 0.811561,0.04765 1.337427,0.273593 1.873897,0.805139 0.232365,0.230233 0.612661,0.877661 0.612661,1.043014 0,0.05586 -0.119665,0.07149 -0.547454,0.07149 H 35.042552 L 34.905774,82.652379 C 34.590241,82.113964 34.17834,81.893958 33.482731,81.8923 c -0.618056,-0.0015 -0.954315,0.117518 -1.347445,0.476816 -0.503492,0.460163 -0.709535,1.110054 -0.708805,2.235679 6.43e-4,0.994081 0.14764,1.613568 0.489964,2.064856 0.20218,0.266537 0.592147,0.538145 0.888642,0.618932 0.277798,0.07569 0.939943,0.07645 1.215351,0.0014 0.298247,-0.08129 0.664072,-0.336846 0.834759,-0.583147 l 0.144832,-0.208991 h 0.571982 0.571982 l -0.147226,0.273284 c -0.08097,0.150307 -0.294656,0.430177 -0.474848,0.621933 -0.699988,0.744909 -1.74191,1.040632 -2.832617,0.803966 z m 40.772708,-7.34e-4 c -0.859606,-0.184622 -1.665994,-0.780966 -2.05211,-1.517588 -0.338096,-0.645011 -0.431148,-1.080092 -0.430539,-2.013062 6.18e-4,-0.949564 0.07352,-1.308366 0.403379,-1.985415 0.924773,-1.898131 3.537612,-2.323695 5.035748,-0.820193 0.621835,0.624061 0.901867,1.328467 0.95407,2.399906 l 0.02997,0.615096 h -2.654557 -2.654556 l 0.03482,0.301005 c 0.107298,0.927431 0.407793,1.511256 0.935252,1.817076 0.217618,0.126175 0.69135,0.237606 1.010145,0.237606 h 0.173606 v 0.523486 0.523486 l -0.222482,-0.0042 c -0.122365,-0.0023 -0.375601,-0.03705 -0.562747,-0.07724 z m 2.721353,-4.35514 c -4.19e-4,-0.05039 -0.03639,-0.24269 -0.07991,-0.427341 -0.155184,-0.658355 -0.494368,-1.091131 -1.064703,-1.358489 -0.249581,-0.116997 -0.365652,-0.137905 -0.765337,-0.137859 -0.55357,5.2e-5 -0.81449,0.06889 -1.16018,0.306043 -0.458749,0.314712 -0.79357,0.869647 -0.882497,1.462657 l -0.03698,0.246599 h 1.995191 c 1.865577,0 1.99514,-0.006 1.994417,-0.09161 z m -35.70097,-0.590753 v -4.870252 l 0.536573,0.01492 0.536573,0.01492 0.01336,4.855333 0.01336,4.855333 H 41.03233 40.482399 Z m 22.067219,1.458828 c -0.715062,-1.878176 -1.311198,-3.457262 -1.324748,-3.509078 -0.02261,-0.08645 0.02221,-0.0942 0.544216,-0.09409 l 0.568852,1.21e-4 0.597713,1.66195 c 0.328741,0.914072 0.770852,2.168422 0.982468,2.787444 0.211616,0.619022 0.410715,1.125495 0.442444,1.125495 0.03173,0 0.179591,-0.353353 0.328584,-0.785229 0.148994,-0.431876 0.599006,-1.686279 1.000029,-2.787563 l 0.729132,-2.002334 h 0.562375 0.562376 l -0.104259,0.27483 c -0.05734,0.151157 -0.652218,1.723578 -1.321946,3.494269 l -1.217685,3.219439 -0.52472,0.01481 -0.52472,0.01481 -1.300111,-3.414866 z m -11.021665,3.11503 c -0.479647,-0.04684 -0.848317,-0.14746 -1.254405,-0.342346 -0.624966,-0.299928 -1.252978,-0.926717 -1.562947,-1.559903 -0.119804,-0.244729 -0.25445,-0.586304 -0.299212,-0.759054 -0.107599,-0.415255 -0.107599,-1.364598 0,-1.779853 0.204528,-0.789332 0.737376,-1.559835 1.411279,-2.040723 0.606822,-0.433019 1.177825,-0.607646 1.983002,-0.606452 0.979883,0.0015 1.592368,0.251489 2.274277,0.928428 l 0.431876,0.428728 v -0.179481 -0.179481 h 0.523486 0.523486 v 2.61743 2.61743 H 55.035306 54.51182 v -0.217362 -0.217363 l -0.30575,0.291635 c -0.611466,0.583241 -1.210787,0.876933 -1.997588,0.978901 -0.215938,0.02799 -0.416172,0.04784 -0.444963,0.04412 -0.02879,-0.0037 -0.134798,-0.01481 -0.235569,-0.02466 z m 0.383138,-2.422467 c 0.05325,-0.106736 0.05925,-0.168123 0.02026,-0.207117 -0.03899,-0.03899 -0.02941,-0.08416 0.03233,-0.152389 0.04887,-0.054 0.08776,-0.18291 0.08776,-0.290899 0,-0.150206 0.03956,-0.233493 0.175477,-0.369407 0.228386,-0.228386 0.271937,-0.447927 0.145541,-0.733667 -0.101069,-0.228482 -0.34766,-0.396081 -0.582761,-0.396081 -0.327045,0 -0.638653,0.317478 -0.638653,0.650686 0,0.200911 0.128843,0.474942 0.244102,0.51917 0.06336,0.02431 0.08046,0.122411 0.08046,0.46153 0,0.394663 0.01161,0.442769 0.138882,0.575616 0.156613,0.163468 0.189586,0.157082 0.296605,-0.05744 z m -0.208512,-1.446373 c -0.04363,-0.113699 0.06713,-0.220624 0.146416,-0.141341 0.06701,0.06701 0.0255,0.223383 -0.0593,0.223383 -0.0306,0 -0.0698,-0.03692 -0.08712,-0.08204 z"
         style="fill:#fd9651;stroke-width:0.0523486" />
      <path
         id="path1240"
         d="m 65.881818,95.259387 c -0.146477,-0.273694 -0.129994,-0.750828 0.06317,-1.828579 0.103522,-0.5776 0.188222,-1.173167 0.188222,-1.323483 0,-0.150317 0.03355,-0.353595 0.07455,-0.451729 0.137844,-0.329908 0.0608,-0.333592 -1.17886,-0.05636 -0.606767,0.135695 -1.112984,0.236947 -1.124927,0.225005 -0.01194,-0.01194 0.06889,-0.09453 0.179626,-0.183515 0.157401,-0.12649 0.415625,-0.222641 1.183225,-0.440578 1.139646,-0.323568 1.052243,-0.245123 1.249684,-1.1216 0.142358,-0.631953 0.508333,-1.658141 0.645345,-1.809538 0.108812,-0.120236 0.324633,-0.12488 0.369503,-0.008 0.09379,0.244412 -0.208288,1.454391 -0.537407,2.1526 -0.09911,0.210265 -0.180208,0.394703 -0.180208,0.409861 0,0.01516 0.06478,0.01517 0.143958,2.9e-5 0.07918,-0.01514 0.249965,-0.04309 0.379528,-0.0621 l 0.235568,-0.03457 -0.22998,0.175728 c -0.302436,0.23109 -0.432029,0.30489 -0.53704,0.305827 -0.113491,10e-4 -0.187028,0.222673 -0.254796,0.768019 -0.03021,0.243102 -0.136362,0.858961 -0.235896,1.368575 -0.09953,0.509614 -0.182002,1.020799 -0.183262,1.135966 -0.0013,0.115167 -0.04493,0.361898 -0.09704,0.548291 -0.08416,0.301034 -0.10125,0.326742 -0.152968,0.230107 z m 1.299761,-5.808101 c 0.03376,-0.102299 0.04991,-0.197475 0.03588,-0.211502 -0.01403,-0.01403 -0.06228,0.08242 -0.107223,0.214328 -0.04494,0.131907 -0.06109,0.227083 -0.03588,0.211502 0.02521,-0.01558 0.07346,-0.112028 0.107223,-0.214328 z m 2.896181,2.463254 c -0.01686,-0.04394 0.02078,-0.239854 0.08365,-0.435366 0.132772,-0.412923 0.128541,-0.779283 -0.01,-0.866106 -0.07712,-0.04833 -0.16988,0.02023 -0.602009,0.444982 -0.664468,0.653124 -0.79025,0.737432 -1.069631,0.716944 -0.210212,-0.01542 -0.226781,-0.02951 -0.372919,-0.317137 -0.08411,-0.165552 -0.182941,-0.301004 -0.219616,-0.301004 -0.03667,0 -0.15181,0.09423 -0.255857,0.209394 -0.195546,0.216446 -0.263523,0.248943 -0.322186,0.154024 -0.0826,-0.133643 0.720301,-1.04395 0.920771,-1.04395 0.124437,0 0.178888,0.104652 0.258752,0.497311 0.07642,0.375714 0.133634,0.459342 0.282409,0.41277 0.153984,-0.0482 0.273426,-0.15054 0.648243,-0.555408 0.215364,-0.232631 0.325902,-0.39558 0.325902,-0.480425 0,-0.145488 0.219066,-0.345386 0.378506,-0.345386 0.143668,0 0.393602,0.18922 0.486036,0.367968 0.09942,0.19225 0.09911,0.500567 -7.91e-4,0.783702 -0.09981,0.282889 -0.09856,0.314091 0.01256,0.314091 0.0501,0 0.374003,-0.293893 0.719794,-0.653096 0.648232,-0.673376 0.873779,-0.820742 0.939456,-0.613812 0.01798,0.05667 0.0076,0.214907 -0.02302,0.351649 -0.03064,0.136741 -0.04301,0.261327 -0.02748,0.276856 0.01553,0.01553 0.225464,-0.164272 0.46652,-0.39956 0.432595,-0.422246 0.615788,-0.515045 0.681043,-0.344993 0.0522,0.13602 0.03643,0.356214 -0.04483,0.626226 -0.04213,0.139993 -0.06671,0.264425 -0.05462,0.276513 0.01209,0.01209 0.132936,-0.07569 0.268548,-0.195056 0.249182,-0.21934 0.431702,-0.300905 0.561705,-0.251018 0.03909,0.015 0.143592,0.155765 0.232222,0.312808 0.08863,0.157043 0.193803,0.298064 0.233719,0.313382 0.04276,0.01641 0.275368,-0.156157 0.566211,-0.420054 0.690299,-0.626346 1.075516,-0.902652 1.25845,-0.902652 0.0928,0 0.151287,0.02758 0.151287,0.07133 0,0.03923 -0.294461,0.369013 -0.654358,0.732848 -0.359896,0.363835 -0.654357,0.685089 -0.654357,0.713899 0,0.108127 0.109818,0.04224 0.523486,-0.31406 0.275177,-0.237017 0.470486,-0.36644 0.552984,-0.36644 0.117151,0 0.127613,0.02027 0.128349,0.248656 0.0012,0.38656 0.03801,0.414312 0.400238,0.302113 0.168117,-0.05208 0.43523,-0.159317 0.593584,-0.238316 0.546099,-0.272437 0.798175,-0.321213 1.806027,-0.349468 0.779144,-0.02184 1.159782,-0.0033 2.198641,0.106971 0.744921,0.07909 1.778465,0.147477 2.538907,0.167999 0.705397,0.01904 1.65945,0.06257 2.120118,0.09674 l 0.837578,0.06213 -0.471138,0.03868 c -2.061629,0.169261 -3.58569,0.177932 -4.827118,0.02746 -0.677863,-0.08216 -1.25169,-0.114208 -2.109071,-0.117784 -1.086124,-0.0045 -1.200264,0.0038 -1.465761,0.107228 -0.158354,0.06168 -0.48815,0.189043 -0.73288,0.283032 -0.24473,0.09399 -0.544439,0.216104 -0.66602,0.271366 -0.33259,0.151169 -0.555225,0.06057 -0.613417,-0.249616 -0.01871,-0.09974 -0.05106,-0.181355 -0.07189,-0.181355 -0.02083,0 -0.21261,0.153773 -0.426181,0.341719 -0.384686,0.338529 -0.5328,0.417389 -0.717995,0.382281 -0.114078,-0.02163 -0.157585,-0.297811 -0.07208,-0.457577 0.05388,-0.100682 0.04941,-0.102036 -0.112386,-0.034 -0.218593,0.09191 -0.372365,0.03364 -0.620496,-0.235134 -0.104943,-0.113674 -0.238643,-0.20668 -0.29711,-0.20668 -0.06682,0 -0.256354,0.165276 -0.510274,0.444963 -0.222182,0.24473 -0.437089,0.444964 -0.477571,0.444964 -0.09531,0 -0.09442,-0.189573 0.0022,-0.463347 0.09369,-0.26556 0.12751,-0.714497 0.05382,-0.714497 -0.08881,0 -0.292155,0.186342 -0.699798,0.64127 -0.427067,0.476607 -0.621031,0.566854 -0.562553,0.261743 0.01793,-0.09357 0.06558,-0.287917 0.105877,-0.431876 0.116907,-0.417634 0.0211,-0.416585 -0.376546,0.0041 -0.340829,0.360594 -0.904197,0.75493 -1.078535,0.75493 -0.04752,0 -0.1002,-0.03595 -0.117061,-0.07989 z m -6.300238,-0.05098 c 0,-0.0144 0.01178,-0.02617 0.02617,-0.02617 0.0144,0 0.02617,0.01178 0.02617,0.02617 0,0.0144 -0.01178,0.02617 -0.02617,0.02617 -0.0144,0 -0.02617,-0.01178 -0.02617,-0.02617 z M 51.082987,91.80202 c -0.405157,-0.05078 -1.234959,-0.249474 -1.642725,-0.393354 -1.030672,-0.363671 -1.904041,-0.906491 -2.719311,-1.690115 -0.71253,-0.684873 -1.141137,-1.262797 -1.553883,-2.095225 -0.360655,-0.727368 -0.532594,-1.20638 -0.68683,-1.913476 -0.139314,-0.638685 -0.13872,-2.341603 10e-4,-3.007293 0.311947,-1.485736 1.014822,-2.792764 2.071078,-3.851263 0.303671,-0.304316 0.715271,-0.673442 0.914667,-0.82028 0.817695,-0.60216 1.814385,-1.052072 2.883076,-1.301438 0.572048,-0.13348 0.717065,-0.146542 1.622807,-0.146163 0.826839,3.46e-4 1.084594,0.01983 1.527972,0.115505 2.331985,0.503212 4.266662,1.987044 5.302376,4.066741 0.481135,0.966112 0.731762,1.863616 0.814972,2.918435 l 0.03613,0.45805 h -0.574304 -0.574303 l -0.03396,-0.441858 c -0.208061,-2.706809 -2.07999,-4.997551 -4.702627,-5.754766 -0.918593,-0.265219 -2.210294,-0.313002 -3.122644,-0.115515 -1.389047,0.300673 -2.57991,0.999901 -3.549384,2.084056 -1.939375,2.168791 -2.1525,5.438321 -0.514851,7.898263 0.981931,1.474976 2.541493,2.488267 4.302299,2.795326 0.246225,0.04294 0.538823,0.07807 0.650219,0.07807 h 0.202537 v 0.575835 0.575834 l -0.248656,-0.0078 c -0.13676,-0.0043 -0.319326,-0.0167 -0.405701,-0.02753 z m 17.074368,-2.198172 c -0.01919,-0.01919 -0.0349,-0.09896 -0.0349,-0.17725 0,-0.193672 0.33605,-0.520731 0.535046,-0.520731 0.08002,0 0.145485,0.0206 0.145485,0.04577 0,0.137198 -0.176395,0.516296 -0.276547,0.59434 -0.117899,0.09187 -0.305647,0.121313 -0.369085,0.05787 z M 32.689305,88.19701 c -1.223576,-0.265495 -2.063722,-1.175685 -2.338939,-2.53394 -0.123959,-0.611762 -0.08336,-1.853559 0.07878,-2.410001 0.272602,-0.935485 0.779883,-1.578856 1.527692,-1.937534 0.584146,-0.280178 1.091352,-0.38479 1.694063,-0.349404 0.811561,0.04765 1.337427,0.273593 1.873897,0.805139 0.232365,0.230233 0.612661,0.877661 0.612661,1.043014 0,0.05586 -0.119665,0.07149 -0.547454,0.07149 H 35.042552 L 34.905774,82.652379 C 34.590241,82.113964 34.17834,81.893958 33.482731,81.8923 c -0.618056,-0.0015 -0.954315,0.117518 -1.347445,0.476816 -0.503492,0.460163 -0.709535,1.110054 -0.708805,2.235679 6.43e-4,0.994081 0.14764,1.613568 0.489964,2.064856 0.20218,0.266537 0.592147,0.538145 0.888642,0.618932 0.277798,0.07569 0.939943,0.07645 1.215351,0.0014 0.298247,-0.08129 0.664072,-0.336846 0.834759,-0.583147 l 0.144832,-0.208991 h 0.571982 0.571982 l -0.147226,0.273284 c -0.08097,0.150307 -0.294656,0.430177 -0.474848,0.621933 -0.699988,0.744909 -1.74191,1.040632 -2.832617,0.803966 z m 40.772708,-7.34e-4 c -0.859606,-0.184622 -1.665994,-0.780966 -2.05211,-1.517588 -0.338096,-0.645011 -0.431148,-1.080092 -0.430539,-2.013062 6.18e-4,-0.949564 0.07352,-1.308366 0.403379,-1.985415 0.924773,-1.898131 3.537612,-2.323695 5.035748,-0.820193 0.621835,0.624061 0.901867,1.328467 0.95407,2.399906 l 0.02997,0.615096 h -2.654557 -2.654556 l 0.03482,0.301005 c 0.107298,0.927431 0.407793,1.511256 0.935252,1.817076 0.217618,0.126175 0.69135,0.237606 1.010145,0.237606 h 0.173606 v 0.523486 0.523486 l -0.222482,-0.0042 c -0.122365,-0.0023 -0.375601,-0.03705 -0.562747,-0.07724 z m 2.721353,-4.35514 c -4.19e-4,-0.05039 -0.03639,-0.24269 -0.07991,-0.427341 -0.155184,-0.658355 -0.494368,-1.091131 -1.064703,-1.358489 -0.249581,-0.116997 -0.365652,-0.137905 -0.765337,-0.137859 -0.55357,5.2e-5 -0.81449,0.06889 -1.16018,0.306043 -0.458749,0.314712 -0.79357,0.869647 -0.882497,1.462657 l -0.03698,0.246599 h 1.995191 c 1.865577,0 1.99514,-0.006 1.994417,-0.09161 z m -35.70097,-0.590753 v -4.870252 l 0.536573,0.01492 0.536573,0.01492 0.01336,4.855333 0.01336,4.855333 H 41.03233 40.482399 Z m 22.067219,1.458828 c -0.715062,-1.878176 -1.311198,-3.457262 -1.324748,-3.509078 -0.02261,-0.08645 0.02221,-0.0942 0.544216,-0.09409 l 0.568852,1.21e-4 0.597713,1.66195 c 0.328741,0.914072 0.770852,2.168422 0.982468,2.787444 0.211616,0.619022 0.410715,1.125495 0.442444,1.125495 0.03173,0 0.179591,-0.353353 0.328584,-0.785229 0.148994,-0.431876 0.599006,-1.686279 1.000029,-2.787563 l 0.729132,-2.002334 h 0.562375 0.562376 l -0.104259,0.27483 c -0.05734,0.151157 -0.652218,1.723578 -1.321946,3.494269 l -1.217685,3.219439 -0.52472,0.01481 -0.52472,0.01481 -1.300111,-3.414866 z m -11.573859,3.027188 c -1.537423,-0.390685 -2.643255,-1.83935 -2.640162,-3.458674 0.0017,-0.902319 0.257803,-1.628711 0.798103,-2.263884 0.727958,-0.855785 1.608079,-1.27436 2.679545,-1.27436 0.921755,0 1.638046,0.298945 2.289107,0.955362 0.221316,0.223136 0.415763,0.405702 0.432106,0.405702 0.01634,0 0.02971,-0.08245 0.02971,-0.183221 v -0.18322 h 0.497311 0.497312 v 2.61743 2.61743 H 55.06148 54.564169 V 86.76266 c 0,-0.113468 -0.01859,-0.217797 -0.04132,-0.231842 -0.02273,-0.01405 -0.187268,0.120712 -0.365649,0.299461 -0.374466,0.37524 -0.755615,0.620425 -1.255542,0.807663 -0.293856,0.11006 -0.462406,0.134974 -1.007268,0.148896 -0.414891,0.0106 -0.751071,-0.0079 -0.918634,-0.05044 z m 0.91491,-2.202533 c 0.03379,-0.04072 0.06676,-0.157179 0.07326,-0.258799 0.0065,-0.10162 0.02885,-0.201793 0.04966,-0.222607 0.02081,-0.02081 0.03784,-0.142422 0.03784,-0.270241 0,-0.18603 0.02632,-0.253099 0.131917,-0.336163 0.522821,-0.411251 0.262772,-1.193842 -0.396703,-1.193842 -0.602073,0 -0.874197,0.654972 -0.465513,1.120438 0.140935,0.160516 0.154464,0.209455 0.154464,0.558764 0,0.344143 0.01422,0.397679 0.140666,0.529662 0.16065,0.167682 0.189329,0.175289 0.274399,0.07279 z m -0.20567,-1.627295 c 0,-0.04362 0.04653,-0.07852 0.104697,-0.07852 0.05817,0 0.104697,0.0349 0.104697,0.07852 0,0.04362 -0.04653,0.07852 -0.104697,0.07852 -0.05817,0 -0.104697,-0.0349 -0.104697,-0.07852 z"
         style="fill:#6f89bf;stroke-width:0.0523486" />
      <path
         id="path1238"
         d="m 65.889079,95.234249 c -0.03281,-0.04 -0.07503,-0.225848 -0.09381,-0.412994 -0.02715,-0.270542 0.0039,-0.549439 0.151681,-1.361064 0.102203,-0.561439 0.186756,-1.162139 0.187895,-1.334889 0.0011,-0.172751 0.03574,-0.372984 0.07688,-0.444963 0.203039,-0.35518 0.03836,-0.365839 -1.226418,-0.07938 -0.585036,0.132505 -1.072525,0.232094 -1.083311,0.221308 -0.01079,-0.01079 0.08729,-0.09638 0.217941,-0.190206 0.157097,-0.112818 0.418578,-0.220004 0.772055,-0.316479 1.135337,-0.30987 1.355399,-0.386293 1.426639,-0.495443 0.03886,-0.05954 0.121131,-0.341657 0.182826,-0.62693 0.118159,-0.546355 0.40957,-1.436138 0.579324,-1.768882 0.110931,-0.217444 0.335557,-0.320415 0.421008,-0.192996 0.130196,0.194139 -0.154883,1.408484 -0.507342,2.161114 -0.09939,0.212239 -0.180713,0.403006 -0.180713,0.423928 0,0.03494 0.131624,0.02064 0.54966,-0.05974 l 0.157046,-0.0302 -0.209395,0.187853 c -0.115167,0.103319 -0.29661,0.215332 -0.403208,0.248919 -0.237559,0.07485 -0.27785,0.174514 -0.387281,0.957991 -0.04392,0.314455 -0.138743,0.856263 -0.210716,1.204018 -0.07197,0.347755 -0.1516,0.832514 -0.176951,1.077244 -0.06066,0.585596 -0.162044,0.931468 -0.243817,0.831783 z m 1.291188,-5.752812 c 0.07405,-0.224362 0.03443,-0.360351 -0.04398,-0.150959 -0.09919,0.264902 -0.118491,0.360614 -0.07271,0.360614 0.02612,0 0.07863,-0.09435 0.11669,-0.209655 z m 2.898821,2.436564 c -0.01613,-0.04204 0.01994,-0.218807 0.08017,-0.392823 0.171111,-0.494441 0.135099,-0.94416 -0.07561,-0.94416 -0.03271,0 -0.257674,0.200705 -0.499929,0.446011 -0.505667,0.512033 -0.854792,0.758354 -1.073232,0.757205 -0.208164,-0.0011 -0.248544,-0.03597 -0.408222,-0.352551 -0.07624,-0.151157 -0.17038,-0.27483 -0.2092,-0.27483 -0.103439,0 -0.335106,0.195901 -0.373052,0.315457 -0.03632,0.114427 -0.0686,0.124302 -0.178647,0.05465 -0.06293,-0.03983 -0.05955,-0.06993 0.02199,-0.195506 0.141376,-0.217729 0.766079,-0.855132 0.838094,-0.855132 0.116282,0 0.21983,0.183164 0.280441,0.496067 0.106641,0.55053 0.249573,0.566951 0.752248,0.08642 0.346532,-0.331265 0.51112,-0.567429 0.51112,-0.733395 0,-0.116131 0.267305,-0.319661 0.420315,-0.320035 0.04403,-1.05e-4 0.167012,0.08427 0.273299,0.187508 0.277491,0.269526 0.306519,0.492233 0.137368,1.053926 -0.143923,0.477923 0.05658,0.35238 0.958247,-0.599985 0.62601,-0.661211 0.757518,-0.686721 0.706183,-0.136989 -0.02116,0.226658 -0.01265,0.332922 0.02668,0.332922 0.03177,0 0.240981,-0.188455 0.464906,-0.418789 0.430351,-0.442669 0.598091,-0.518274 0.654166,-0.294851 0.02999,0.119508 -0.03615,0.590425 -0.109426,0.779076 -0.02422,0.06235 -0.0105,0.09161 0.04294,0.09161 0.04319,0 0.09123,-0.03311 0.106754,-0.07357 0.03557,-0.09268 0.474369,-0.397568 0.572199,-0.397568 0.09201,0 0.262722,0.184654 0.373639,0.40415 0.04685,0.09272 0.133093,0.194219 0.191644,0.225555 0.08875,0.0475 0.131343,0.03252 0.256097,-0.09006 0.580351,-0.57023 1.130608,-1.024598 1.39837,-1.154687 0.166197,-0.08074 0.35572,-0.05797 0.323203,0.03883 -0.0096,0.02856 -0.306012,0.343666 -0.658711,0.700244 -0.352698,0.356577 -0.64127,0.674776 -0.64127,0.707106 0,0.123499 0.145415,0.04353 0.562092,-0.309131 0.237172,-0.200731 0.47863,-0.364966 0.536573,-0.364966 0.09067,0 0.105464,0.03465 0.106154,0.248656 0.0012,0.372714 0.04136,0.410388 0.347613,0.326128 0.139477,-0.03838 0.477385,-0.169881 0.750906,-0.292236 0.672767,-0.300951 1.104414,-0.359111 2.352323,-0.316955 0.534497,0.01806 1.230939,0.06936 1.547648,0.114001 0.316709,0.04464 1.200091,0.102023 1.963072,0.127509 1.408314,0.04704 3.519067,0.165074 3.48904,0.195104 -0.03563,0.03563 -2.877556,0.173417 -3.567563,0.172967 -0.403084,-2.62e-4 -1.145125,-0.04855 -1.64898,-0.107295 -1.181249,-0.137732 -2.785577,-0.18995 -3.265929,-0.1063 -0.196344,0.03419 -0.563779,0.155279 -0.816521,0.269082 -0.252743,0.113804 -0.489483,0.206917 -0.52609,0.206917 -0.03661,0 -0.194947,0.06074 -0.351868,0.134973 -0.248095,0.117368 -0.305043,0.126801 -0.436581,0.07232 -0.11048,-0.04576 -0.166024,-0.117449 -0.205983,-0.265845 -0.03009,-0.111753 -0.07439,-0.203187 -0.09844,-0.203187 -0.02405,0 -0.188545,0.129219 -0.365545,0.287153 -0.390104,0.348084 -0.602766,0.464832 -0.770174,0.422815 -0.100246,-0.02516 -0.125234,-0.0657 -0.125234,-0.203184 0,-0.09446 0.02788,-0.199629 0.06195,-0.233699 0.100987,-0.100987 0.01163,-0.129639 -0.148691,-0.04768 -0.189238,0.09674 -0.301495,0.05298 -0.565149,-0.220309 -0.119212,-0.123568 -0.255821,-0.214493 -0.322262,-0.214493 -0.07805,0 -0.251259,0.148066 -0.535833,0.458051 -0.327399,0.356634 -0.434502,0.44418 -0.483735,0.395403 -0.0494,-0.04894 -0.04505,-0.129129 0.01985,-0.36644 0.138618,-0.506873 0.166665,-0.801105 0.07636,-0.801105 -0.08488,0 -0.37678,0.269105 -0.837541,0.772142 -0.282882,0.308837 -0.458212,0.408927 -0.458212,0.261576 0,-0.03608 0.04711,-0.23035 0.104698,-0.431709 0.05758,-0.201359 0.104697,-0.38385 0.104697,-0.405536 0,-0.116082 -0.175088,-7.48e-4 -0.476582,0.313926 -0.312694,0.326366 -0.920883,0.745967 -1.081241,0.745967 -0.03755,0 -0.08147,-0.03439 -0.0976,-0.07643 z M 51.082987,91.802016 c -0.405157,-0.05078 -1.234959,-0.249474 -1.642725,-0.393354 -1.030672,-0.363671 -1.904041,-0.906491 -2.719311,-1.690115 -0.71253,-0.684873 -1.141137,-1.262797 -1.553883,-2.095225 -0.360655,-0.727368 -0.532594,-1.20638 -0.68683,-1.913476 -0.139314,-0.638685 -0.13872,-2.341603 10e-4,-3.007293 0.311947,-1.485736 1.014822,-2.792764 2.071078,-3.851263 0.303671,-0.304316 0.715271,-0.673442 0.914667,-0.82028 0.817695,-0.60216 1.814385,-1.052072 2.883076,-1.301438 0.572048,-0.13348 0.717065,-0.146542 1.622807,-0.146163 0.826839,3.46e-4 1.084594,0.01983 1.527972,0.115505 2.331985,0.503212 4.266662,1.987044 5.302376,4.066741 0.481135,0.966112 0.731762,1.863616 0.814972,2.918435 l 0.03613,0.45805 h -0.574304 -0.574303 l -0.03396,-0.441858 c -0.208061,-2.706809 -2.07999,-4.997551 -4.702627,-5.754766 -0.918593,-0.265219 -2.210294,-0.313002 -3.122644,-0.115515 -1.389047,0.300673 -2.57991,0.999901 -3.549384,2.084056 -1.939375,2.168791 -2.1525,5.438321 -0.514851,7.898263 0.981931,1.474976 2.541493,2.488267 4.302299,2.795326 0.246225,0.04294 0.538823,0.07807 0.650219,0.07807 h 0.202537 v 0.575835 0.575834 l -0.248656,-0.0078 c -0.13676,-0.0043 -0.319326,-0.0167 -0.405701,-0.02753 z m 17.074368,-2.198172 c -0.09349,-0.09349 -0.0207,-0.301465 0.172452,-0.492692 0.187378,-0.185515 0.35475,-0.253922 0.432076,-0.176596 0.01578,0.01578 0.005,0.122191 -0.02405,0.236465 -0.07693,0.303061 -0.439729,0.573577 -0.580483,0.432823 z M 32.689305,88.19701 c -1.223576,-0.265495 -2.063722,-1.175685 -2.338939,-2.53394 -0.123959,-0.611762 -0.08336,-1.853559 0.07878,-2.410001 0.272602,-0.935485 0.779883,-1.578856 1.527692,-1.937534 0.584146,-0.280178 1.091352,-0.38479 1.694063,-0.349404 0.811561,0.04765 1.337427,0.273593 1.873897,0.805139 0.232365,0.230233 0.612661,0.877661 0.612661,1.043014 0,0.05586 -0.119665,0.07149 -0.547454,0.07149 H 35.042552 L 34.905774,82.652379 C 34.590241,82.113964 34.17834,81.893958 33.482731,81.8923 c -0.618056,-0.0015 -0.954315,0.117518 -1.347445,0.476816 -0.503492,0.460163 -0.709535,1.110054 -0.708805,2.235679 6.43e-4,0.994081 0.14764,1.613568 0.489964,2.064856 0.20218,0.266537 0.592147,0.538145 0.888642,0.618932 0.277798,0.07569 0.939943,0.07645 1.215351,0.0014 0.298247,-0.08129 0.664072,-0.336846 0.834759,-0.583147 l 0.144832,-0.208991 h 0.571982 0.571982 l -0.147226,0.273284 c -0.08097,0.150307 -0.294656,0.430177 -0.474848,0.621933 -0.699988,0.744909 -1.74191,1.040632 -2.832617,0.803966 z m 40.772708,-7.34e-4 c -0.859606,-0.184622 -1.665994,-0.780966 -2.05211,-1.517588 -0.338096,-0.645011 -0.431148,-1.080092 -0.430539,-2.013062 6.18e-4,-0.949564 0.07352,-1.308366 0.403379,-1.985415 0.924773,-1.898131 3.537612,-2.323695 5.035748,-0.820193 0.621835,0.624061 0.901867,1.328467 0.95407,2.399906 l 0.02997,0.615096 h -2.654557 -2.654556 l 0.03482,0.301005 c 0.107298,0.927431 0.407793,1.511256 0.935252,1.817076 0.217618,0.126175 0.69135,0.237606 1.010145,0.237606 h 0.173606 v 0.523486 0.523486 l -0.222482,-0.0042 c -0.122365,-0.0023 -0.375601,-0.03705 -0.562747,-0.07724 z m 2.721353,-4.35514 c -4.19e-4,-0.05039 -0.03639,-0.24269 -0.07991,-0.427341 -0.155184,-0.658355 -0.494368,-1.091131 -1.064703,-1.358489 -0.249581,-0.116997 -0.365652,-0.137905 -0.765337,-0.137859 -0.55357,5.2e-5 -0.81449,0.06889 -1.16018,0.306043 -0.458749,0.314712 -0.79357,0.869647 -0.882497,1.462657 l -0.03698,0.246599 h 1.995191 c 1.865577,0 1.99514,-0.006 1.994417,-0.09161 z m -35.70097,-0.590753 v -4.870252 l 0.536573,0.01492 0.536573,0.01492 0.01336,4.855333 0.01336,4.855333 H 41.03233 40.482399 Z m 22.067219,1.458828 c -0.715062,-1.878176 -1.311198,-3.457262 -1.324748,-3.509078 -0.02261,-0.08645 0.02221,-0.0942 0.544216,-0.09409 l 0.568852,1.21e-4 0.597713,1.66195 c 0.328741,0.914072 0.770852,2.168422 0.982468,2.787444 0.211616,0.619022 0.410715,1.125495 0.442444,1.125495 0.03173,0 0.179591,-0.353353 0.328584,-0.785229 0.148994,-0.431876 0.599006,-1.686279 1.000029,-2.787563 l 0.729132,-2.002334 h 0.562375 0.562376 l -0.104259,0.27483 c -0.05734,0.151157 -0.652218,1.723578 -1.321946,3.494269 l -1.217685,3.219439 -0.52472,0.01481 -0.52472,0.01481 -1.300111,-3.414866 z m -11.573859,3.027188 c -1.537423,-0.390685 -2.643255,-1.83935 -2.640162,-3.458674 0.0017,-0.902319 0.257803,-1.628711 0.798103,-2.263884 0.727958,-0.855785 1.608079,-1.27436 2.679545,-1.27436 0.921755,0 1.638046,0.298945 2.289107,0.955362 0.221316,0.223136 0.415763,0.405702 0.432106,0.405702 0.01634,0 0.02971,-0.08245 0.02971,-0.183221 v -0.18322 h 0.497311 0.497312 v 2.61743 2.61743 H 55.06148 54.564169 V 86.76266 c 0,-0.113468 -0.01859,-0.217797 -0.04132,-0.231842 -0.02273,-0.01405 -0.187268,0.120712 -0.365649,0.299461 -0.374466,0.37524 -0.755615,0.620425 -1.255542,0.807663 -0.293856,0.11006 -0.462406,0.134974 -1.007268,0.148896 -0.414891,0.0106 -0.751071,-0.0079 -0.918634,-0.05044 z m 0.91491,-2.202533 c 0.03379,-0.04072 0.06676,-0.157179 0.07326,-0.258799 0.0065,-0.10162 0.02885,-0.201793 0.04966,-0.222607 0.02081,-0.02081 0.03784,-0.142422 0.03784,-0.270241 0,-0.18603 0.02632,-0.253099 0.131917,-0.336163 0.522821,-0.411251 0.262772,-1.193842 -0.396703,-1.193842 -0.602073,0 -0.874197,0.654972 -0.465513,1.120438 0.140935,0.160516 0.154464,0.209455 0.154464,0.558764 0,0.344143 0.01422,0.397679 0.140666,0.529662 0.16065,0.167682 0.189329,0.175289 0.274399,0.07279 z m -0.20567,-1.627295 c 0,-0.04362 0.04653,-0.07852 0.104697,-0.07852 0.05817,0 0.104697,0.0349 0.104697,0.07852 0,0.04362 -0.04653,0.07852 -0.104697,0.07852 -0.05817,0 -0.104697,-0.0349 -0.104697,-0.07852 z"
         style="fill:#5877b6;stroke-width:0.0523486" />
      <path
         id="path1236"
         d="m 65.844136,95.043736 c -0.01764,-0.107969 -0.04264,-0.255199 -0.05555,-0.327179 -0.01291,-0.07198 0.05934,-0.596043 0.160574,-1.164587 0.101229,-0.568543 0.184053,-1.164111 0.184053,-1.323484 0,-0.159372 0.03534,-0.374337 0.07852,-0.477699 0.08919,-0.213456 0.09496,-0.277577 0.03368,-0.37419 -0.03438,-0.05421 -0.265785,-0.01856 -1.129564,0.173987 -0.597478,0.133188 -1.095621,0.232863 -1.106984,0.2215 -0.01136,-0.01136 0.05434,-0.07611 0.145998,-0.143875 0.100509,-0.07431 0.551862,-0.233056 1.137157,-0.399954 0.592125,-0.168844 0.995562,-0.311014 1.034783,-0.364652 0.03536,-0.04835 0.101744,-0.267168 0.147527,-0.486255 0.113619,-0.543704 0.372729,-1.377849 0.549113,-1.767738 0.197783,-0.437191 0.425443,-0.557867 0.48313,-0.256094 0.05845,0.305747 -0.236019,1.422235 -0.532945,2.020691 -0.229623,0.462809 -0.221841,0.488358 0.135158,0.443754 l 0.295043,-0.03686 -0.177259,0.155573 c -0.09749,0.08557 -0.264209,0.191886 -0.370482,0.236267 -0.216816,0.09054 -0.267921,0.217126 -0.331667,0.821492 -0.01974,0.187146 -0.115837,0.738832 -0.21355,1.225968 -0.09771,0.487137 -0.177358,0.970053 -0.176989,1.073147 8.38e-4,0.234075 -0.162696,0.946498 -0.217265,0.946498 -0.02222,0 -0.05484,-0.08834 -0.07248,-0.196307 z m 1.349541,-5.572632 c 0.05352,-0.127332 0.0726,-0.238346 0.04559,-0.265349 -0.027,-0.027 -0.08193,0.05776 -0.13128,0.202606 -0.09798,0.287568 -0.09723,0.282899 -0.04559,0.282198 0.02159,-3.14e-4 0.08067,-0.09905 0.13128,-0.219455 z m 7.575672,2.443142 c -0.05203,-0.06269 -0.05342,-0.123986 -0.0064,-0.280903 0.08079,-0.26965 0.07879,-0.364493 -0.0053,-0.251632 -0.03599,0.0483 -0.139475,0.102359 -0.229967,0.120126 -0.146037,0.02867 -0.190025,0.0052 -0.391315,-0.20869 -0.34698,-0.368721 -0.463332,-0.346621 -0.936088,0.177797 -0.378989,0.420404 -0.568554,0.534042 -0.502119,0.301005 0.3285,-1.1523 0.239326,-1.30912 -0.373874,-0.657484 -0.676522,0.718929 -0.69881,0.739514 -0.74773,0.690594 -0.02914,-0.02914 -0.0075,-0.178176 0.05497,-0.378957 0.05665,-0.182009 0.102996,-0.375941 0.102996,-0.430959 0,-0.19033 -0.197052,-0.104444 -0.480043,0.209227 -0.288738,0.320041 -0.879306,0.737712 -1.043093,0.737712 -0.14549,0 -0.155751,-0.06811 -0.05201,-0.345219 0.209539,-0.559701 0.182695,-1.017594 -0.05945,-1.014153 -0.07891,0.0011 -0.30629,0.183324 -0.673978,0.540058 -0.80831,0.784228 -1.038098,0.841585 -1.284737,0.320677 -0.104813,-0.22137 -0.162344,-0.286592 -0.252794,-0.286592 -0.121516,0 -0.39413,0.215523 -0.39413,0.311591 0,0.03017 -0.04796,0.05485 -0.106584,0.05485 -0.103441,0 -0.102846,-0.0055 0.02017,-0.186528 0.06971,-0.10259 0.27306,-0.338062 0.451886,-0.523269 0.40232,-0.416677 0.457336,-0.401258 0.602982,0.168999 0.09988,0.391056 0.111995,0.410641 0.263216,0.425464 0.131759,0.01291 0.211925,-0.03569 0.474925,-0.287918 0.385783,-0.369988 0.581469,-0.628094 0.605101,-0.798115 0.01084,-0.07795 0.08386,-0.166678 0.18626,-0.226311 l 0.168438,-0.09809 0.211779,0.17019 c 0.29208,0.234721 0.362731,0.479891 0.245481,0.851851 -0.108146,0.343079 -0.111568,0.503726 -0.01073,0.503726 0.08826,0 0.410647,-0.267232 0.599954,-0.497312 0.07107,-0.08638 0.287512,-0.318159 0.480985,-0.515075 0.450828,-0.45885 0.549021,-0.457642 0.531198,0.0065 -0.009,0.234326 0.0061,0.325321 0.05386,0.325321 0.03649,0 0.218793,-0.154884 0.405107,-0.344186 0.186314,-0.189302 0.40383,-0.378514 0.483368,-0.420472 0.136467,-0.07199 0.147235,-0.06939 0.19114,0.04609 0.0428,0.112579 0.02938,0.238552 -0.07518,0.705485 -0.04895,0.218624 0.032,0.222845 0.269791,0.01407 0.425075,-0.373221 0.53034,-0.362597 0.790236,0.07975 0.08386,0.14273 0.193123,0.267338 0.24281,0.276907 0.05267,0.01014 0.233409,-0.109916 0.433423,-0.287905 0.607485,-0.540585 1.044694,-0.893834 1.215776,-0.982304 0.157357,-0.08137 0.268568,-0.07425 0.268568,0.01719 0,0.02239 -0.282682,0.323395 -0.628183,0.668896 -0.592487,0.592487 -0.735412,0.802323 -0.546485,0.802323 0.04493,0 0.272209,-0.164899 0.505055,-0.366441 0.232847,-0.201542 0.452688,-0.36644 0.488536,-0.36644 0.08905,0 0.128729,0.122342 0.128729,0.396896 0,0.217701 0.0085,0.231287 0.144698,0.231287 0.158973,0 0.472358,-0.107139 1.033145,-0.353211 0.60944,-0.26742 0.760096,-0.29097 1.88455,-0.294587 0.763231,-0.0025 1.302338,0.02718 1.989246,0.109352 0.521586,0.06239 1.444764,0.125962 2.06777,0.142383 0.619022,0.01632 1.584854,0.05859 2.146293,0.09394 1.235678,0.0778 1.102697,0.100417 -1.186408,0.201783 -1.489072,0.06594 -1.553534,0.06459 -2.617429,-0.05474 -1.302359,-0.146079 -3.118257,-0.201148 -3.587656,-0.1088 -0.173943,0.03422 -0.496012,0.140128 -0.715708,0.235347 -0.219696,0.09522 -0.522843,0.213067 -0.673661,0.261881 -0.150818,0.04882 -0.28766,0.11051 -0.304094,0.1371 -0.0536,0.08673 -0.335277,0.05086 -0.442489,-0.05635 -0.05758,-0.05758 -0.104697,-0.163589 -0.104697,-0.235569 0,-0.210064 -0.162316,-0.161093 -0.518005,0.156282 -0.304363,0.271579 -0.568873,0.445727 -0.677004,0.445727 -0.0267,0 -0.07848,-0.03608 -0.115085,-0.08018 z m -23.686362,-0.11223 c -0.405157,-0.05078 -1.234959,-0.249474 -1.642725,-0.393354 -1.030672,-0.363671 -1.904041,-0.906491 -2.719311,-1.690115 -0.71253,-0.684873 -1.141137,-1.262797 -1.553883,-2.095225 -0.360655,-0.727368 -0.532594,-1.20638 -0.68683,-1.913476 -0.139314,-0.638685 -0.13872,-2.341603 10e-4,-3.007293 0.311947,-1.485736 1.014822,-2.792764 2.071078,-3.851263 0.303671,-0.304316 0.715271,-0.673442 0.914667,-0.82028 0.817695,-0.60216 1.814385,-1.052072 2.883076,-1.301438 0.572048,-0.13348 0.717065,-0.146542 1.622807,-0.146163 0.826839,3.46e-4 1.084594,0.01983 1.527972,0.115505 2.331985,0.503212 4.266662,1.987044 5.302376,4.066741 0.481135,0.966112 0.731762,1.863616 0.814972,2.918435 l 0.03613,0.45805 h -0.574304 -0.574303 l -0.03396,-0.441858 c -0.208061,-2.706809 -2.07999,-4.997551 -4.702627,-5.754766 -0.918593,-0.265219 -2.210294,-0.313002 -3.122644,-0.115515 -1.389047,0.300673 -2.57991,0.999901 -3.549384,2.084056 -1.939375,2.168791 -2.1525,5.438321 -0.514851,7.898263 0.981931,1.474976 2.541493,2.488267 4.302299,2.795326 0.246225,0.04294 0.538823,0.07807 0.650219,0.07807 h 0.202537 v 0.575835 0.575834 l -0.248656,-0.0078 c -0.13676,-0.0043 -0.319326,-0.0167 -0.405701,-0.02753 z m 17.129462,-2.22281 c -0.143997,-0.08058 -0.106185,-0.197783 0.143103,-0.443544 0.299229,-0.294996 0.421098,-0.306342 0.370092,-0.03446 -0.05035,0.268364 -0.110947,0.36689 -0.279178,0.453885 -0.09906,0.05123 -0.172117,0.05876 -0.234017,0.02411 z M 32.689305,88.19701 c -1.223576,-0.265495 -2.063722,-1.175685 -2.338939,-2.53394 -0.123959,-0.611762 -0.08336,-1.853559 0.07878,-2.410001 0.272602,-0.935485 0.779883,-1.578856 1.527692,-1.937534 0.584146,-0.280178 1.091352,-0.38479 1.694063,-0.349404 0.811561,0.04765 1.337427,0.273593 1.873897,0.805139 0.232365,0.230233 0.612661,0.877661 0.612661,1.043014 0,0.05586 -0.119665,0.07149 -0.547454,0.07149 H 35.042552 L 34.905774,82.652379 C 34.590241,82.113964 34.17834,81.893958 33.482731,81.8923 c -0.618056,-0.0015 -0.954315,0.117518 -1.347445,0.476816 -0.503492,0.460163 -0.709535,1.110054 -0.708805,2.235679 6.43e-4,0.994081 0.14764,1.613568 0.489964,2.064856 0.20218,0.266537 0.592147,0.538145 0.888642,0.618932 0.277798,0.07569 0.939943,0.07645 1.215351,0.0014 0.298247,-0.08129 0.664072,-0.336846 0.834759,-0.583147 l 0.144832,-0.208991 h 0.571982 0.571982 l -0.147226,0.273284 c -0.08097,0.150307 -0.294656,0.430177 -0.474848,0.621933 -0.699988,0.744909 -1.74191,1.040632 -2.832617,0.803966 z m 40.772708,-7.34e-4 c -0.859606,-0.184622 -1.665994,-0.780966 -2.05211,-1.517588 -0.338096,-0.645011 -0.431148,-1.080092 -0.430539,-2.013062 6.18e-4,-0.949564 0.07352,-1.308366 0.403379,-1.985415 0.924773,-1.898131 3.537612,-2.323695 5.035748,-0.820193 0.621835,0.624061 0.901867,1.328467 0.95407,2.399906 l 0.02997,0.615096 h -2.654557 -2.654556 l 0.03482,0.301005 c 0.107298,0.927431 0.407793,1.511256 0.935252,1.817076 0.217618,0.126175 0.69135,0.237606 1.010145,0.237606 h 0.173606 v 0.523486 0.523486 l -0.222482,-0.0042 c -0.122365,-0.0023 -0.375601,-0.03705 -0.562747,-0.07724 z m 2.721353,-4.35514 c -4.19e-4,-0.05039 -0.03639,-0.24269 -0.07991,-0.427341 -0.155184,-0.658355 -0.494368,-1.091131 -1.064703,-1.358489 -0.249581,-0.116997 -0.365652,-0.137905 -0.765337,-0.137859 -0.55357,5.2e-5 -0.81449,0.06889 -1.16018,0.306043 -0.458749,0.314712 -0.79357,0.869647 -0.882497,1.462657 l -0.03698,0.246599 h 1.995191 c 1.865577,0 1.99514,-0.006 1.994417,-0.09161 z m -35.70097,-0.590753 v -4.870252 l 0.536573,0.01492 0.536573,0.01492 0.01336,4.855333 0.01336,4.855333 H 41.03233 40.482399 Z m 22.067219,1.458828 c -0.715062,-1.878176 -1.311198,-3.457262 -1.324748,-3.509078 -0.02261,-0.08645 0.02221,-0.0942 0.544216,-0.09409 l 0.568852,1.21e-4 0.597713,1.66195 c 0.328741,0.914072 0.770852,2.168422 0.982468,2.787444 0.211616,0.619022 0.410715,1.125495 0.442444,1.125495 0.03173,0 0.179591,-0.353353 0.328584,-0.785229 0.148994,-0.431876 0.599006,-1.686279 1.000029,-2.787563 l 0.729132,-2.002334 h 0.562375 0.562376 l -0.104259,0.27483 c -0.05734,0.151157 -0.652218,1.723578 -1.321946,3.494269 l -1.217685,3.219439 -0.52472,0.01481 -0.52472,0.01481 -1.300111,-3.414866 z m -11.573859,3.027188 c -1.537423,-0.390685 -2.643255,-1.83935 -2.640162,-3.458674 0.0017,-0.902319 0.257803,-1.628711 0.798103,-2.263884 0.727958,-0.855785 1.608079,-1.27436 2.679545,-1.27436 0.921755,0 1.638046,0.298945 2.289107,0.955362 0.221316,0.223136 0.415763,0.405702 0.432106,0.405702 0.01634,0 0.02971,-0.08245 0.02971,-0.183221 v -0.18322 h 0.497311 0.497312 v 2.61743 2.61743 H 55.06148 54.564169 V 86.76266 c 0,-0.113468 -0.01859,-0.217797 -0.04132,-0.231842 -0.02273,-0.01405 -0.187268,0.120712 -0.365649,0.299461 -0.374466,0.37524 -0.755615,0.620425 -1.255542,0.807663 -0.293856,0.11006 -0.462406,0.134974 -1.007268,0.148896 -0.414891,0.0106 -0.751071,-0.0079 -0.918634,-0.05044 z m 0.91491,-2.202533 c 0.03379,-0.04072 0.06676,-0.157179 0.07326,-0.258799 0.0065,-0.10162 0.02885,-0.201793 0.04966,-0.222607 0.02081,-0.02081 0.03784,-0.142422 0.03784,-0.270241 0,-0.18603 0.02632,-0.253099 0.131917,-0.336163 0.522821,-0.411251 0.262772,-1.193842 -0.396703,-1.193842 -0.602073,0 -0.874197,0.654972 -0.465513,1.120438 0.140935,0.160516 0.154464,0.209455 0.154464,0.558764 0,0.344143 0.01422,0.397679 0.140666,0.529662 0.16065,0.167682 0.189329,0.175289 0.274399,0.07279 z m -0.20567,-1.627295 c 0,-0.04362 0.04653,-0.07852 0.104697,-0.07852 0.05817,0 0.104697,0.0349 0.104697,0.07852 0,0.04362 -0.04653,0.07852 -0.104697,0.07852 -0.05817,0 -0.104697,-0.0349 -0.104697,-0.07852 z"
         style="fill:#fd6500;stroke-width:0.0523486" />
      <path
         id="path1234"
         d="m 65.844136,95.043736 c -0.01764,-0.107969 -0.04264,-0.255199 -0.05555,-0.327179 -0.01291,-0.07198 0.05934,-0.596043 0.160574,-1.164587 0.101229,-0.568543 0.184053,-1.164111 0.184053,-1.323484 0,-0.159372 0.03534,-0.374337 0.07852,-0.477699 0.08919,-0.213456 0.09496,-0.277577 0.03368,-0.37419 -0.03438,-0.05421 -0.265785,-0.01856 -1.129564,0.173987 -0.597478,0.133188 -1.095621,0.232863 -1.106984,0.2215 -0.01136,-0.01136 0.05434,-0.07611 0.145998,-0.143875 0.100509,-0.07431 0.551862,-0.233056 1.137157,-0.399954 0.592125,-0.168844 0.995562,-0.311014 1.034783,-0.364652 0.03536,-0.04835 0.101744,-0.267168 0.147527,-0.486255 0.113619,-0.543704 0.372729,-1.377849 0.549113,-1.767738 0.197783,-0.437191 0.425443,-0.557867 0.48313,-0.256094 0.05845,0.305747 -0.236019,1.422235 -0.532945,2.020691 -0.229623,0.462809 -0.221841,0.488358 0.135158,0.443754 l 0.295043,-0.03686 -0.177259,0.155573 c -0.09749,0.08557 -0.264209,0.191886 -0.370482,0.236267 -0.216816,0.09054 -0.267921,0.217126 -0.331667,0.821492 -0.01974,0.187146 -0.115837,0.738832 -0.21355,1.225968 -0.09771,0.487137 -0.177358,0.970053 -0.176989,1.073147 8.38e-4,0.234075 -0.162696,0.946498 -0.217265,0.946498 -0.02222,0 -0.05484,-0.08834 -0.07248,-0.196307 z m 1.349541,-5.572632 c 0.05352,-0.127332 0.0726,-0.238346 0.04559,-0.265349 -0.027,-0.027 -0.08193,0.05776 -0.13128,0.202606 -0.09798,0.287568 -0.09723,0.282899 -0.04559,0.282198 0.02159,-3.14e-4 0.08067,-0.09905 0.13128,-0.219455 z m 7.575672,2.443142 c -0.05203,-0.06269 -0.05342,-0.123986 -0.0064,-0.280903 0.08079,-0.26965 0.07879,-0.364493 -0.0053,-0.251632 -0.03599,0.0483 -0.139475,0.102359 -0.229967,0.120126 -0.146037,0.02867 -0.190025,0.0052 -0.391315,-0.20869 -0.34698,-0.368721 -0.463332,-0.346621 -0.936088,0.177797 -0.378989,0.420404 -0.568554,0.534042 -0.502119,0.301005 0.3285,-1.1523 0.239326,-1.30912 -0.373874,-0.657484 -0.676522,0.718929 -0.69881,0.739514 -0.74773,0.690594 -0.02914,-0.02914 -0.0075,-0.178176 0.05497,-0.378957 0.05665,-0.182009 0.102996,-0.375941 0.102996,-0.430959 0,-0.19033 -0.197052,-0.104444 -0.480043,0.209227 -0.288738,0.320041 -0.879306,0.737712 -1.043093,0.737712 -0.14549,0 -0.155751,-0.06811 -0.05201,-0.345219 0.209539,-0.559701 0.182695,-1.017594 -0.05945,-1.014153 -0.07891,0.0011 -0.30629,0.183324 -0.673978,0.540058 -0.80831,0.784228 -1.038098,0.841585 -1.284737,0.320677 -0.104813,-0.22137 -0.162344,-0.286592 -0.252794,-0.286592 -0.121516,0 -0.39413,0.215523 -0.39413,0.311591 0,0.03017 -0.04796,0.05485 -0.106584,0.05485 -0.103441,0 -0.102846,-0.0055 0.02017,-0.186528 0.06971,-0.10259 0.27306,-0.338062 0.451886,-0.523269 0.40232,-0.416677 0.457336,-0.401258 0.602982,0.168999 0.09988,0.391056 0.111995,0.410641 0.263216,0.425464 0.131759,0.01291 0.211925,-0.03569 0.474925,-0.287918 0.385783,-0.369988 0.581469,-0.628094 0.605101,-0.798115 0.01084,-0.07795 0.08386,-0.166678 0.18626,-0.226311 l 0.168438,-0.09809 0.211779,0.17019 c 0.29208,0.234721 0.362731,0.479891 0.245481,0.851851 -0.108146,0.343079 -0.111568,0.503726 -0.01073,0.503726 0.08826,0 0.410647,-0.267232 0.599954,-0.497312 0.07107,-0.08638 0.287512,-0.318159 0.480985,-0.515075 0.450828,-0.45885 0.549021,-0.457642 0.531198,0.0065 -0.009,0.234326 0.0061,0.325321 0.05386,0.325321 0.03649,0 0.218793,-0.154884 0.405107,-0.344186 0.186314,-0.189302 0.40383,-0.378514 0.483368,-0.420472 0.136467,-0.07199 0.147235,-0.06939 0.19114,0.04609 0.0428,0.112579 0.02938,0.238552 -0.07518,0.705485 -0.04895,0.218624 0.032,0.222845 0.269791,0.01407 0.425075,-0.373221 0.53034,-0.362597 0.790236,0.07975 0.08386,0.14273 0.193123,0.267338 0.24281,0.276907 0.05267,0.01014 0.233409,-0.109916 0.433423,-0.287905 0.607485,-0.540585 1.044694,-0.893834 1.215776,-0.982304 0.157357,-0.08137 0.268568,-0.07425 0.268568,0.01719 0,0.02239 -0.282682,0.323395 -0.628183,0.668896 -0.592487,0.592487 -0.735412,0.802323 -0.546485,0.802323 0.04493,0 0.272209,-0.164899 0.505055,-0.366441 0.232847,-0.201542 0.452688,-0.36644 0.488536,-0.36644 0.08905,0 0.128729,0.122342 0.128729,0.396896 0,0.217701 0.0085,0.231287 0.144698,0.231287 0.158973,0 0.472358,-0.107139 1.033145,-0.353211 0.60944,-0.26742 0.760096,-0.29097 1.88455,-0.294587 0.763231,-0.0025 1.302338,0.02718 1.989246,0.109352 0.521586,0.06239 1.444764,0.125962 2.06777,0.142383 0.619022,0.01632 1.584854,0.05859 2.146293,0.09394 1.235678,0.0778 1.102697,0.100417 -1.186408,0.201783 -1.489072,0.06594 -1.553534,0.06459 -2.617429,-0.05474 -1.302359,-0.146079 -3.118257,-0.201148 -3.587656,-0.1088 -0.173943,0.03422 -0.496012,0.140128 -0.715708,0.235347 -0.219696,0.09522 -0.522843,0.213067 -0.673661,0.261881 -0.150818,0.04882 -0.28766,0.11051 -0.304094,0.1371 -0.0536,0.08673 -0.335277,0.05086 -0.442489,-0.05635 -0.05758,-0.05758 -0.104697,-0.163589 -0.104697,-0.235569 0,-0.210064 -0.162316,-0.161093 -0.518005,0.156282 -0.304363,0.271579 -0.568873,0.445727 -0.677004,0.445727 -0.0267,0 -0.07848,-0.03608 -0.115085,-0.08018 z m -6.5569,-2.33504 c -0.143997,-0.08058 -0.106185,-0.197783 0.143103,-0.443544 0.299229,-0.294996 0.421098,-0.306342 0.370092,-0.03446 -0.05035,0.268364 -0.110947,0.36689 -0.279178,0.453885 -0.09906,0.05123 -0.172117,0.05876 -0.234017,0.02411 z M 32.689305,88.19701 c -1.223576,-0.265495 -2.063722,-1.175685 -2.338939,-2.53394 -0.123959,-0.611762 -0.08336,-1.853559 0.07878,-2.410001 0.272602,-0.935485 0.779883,-1.578856 1.527692,-1.937534 0.584146,-0.280178 1.091352,-0.38479 1.694063,-0.349404 0.811561,0.04765 1.337427,0.273593 1.873897,0.805139 0.232365,0.230233 0.612661,0.877661 0.612661,1.043014 0,0.05586 -0.119665,0.07149 -0.547454,0.07149 H 35.042552 L 34.905774,82.652379 C 34.590241,82.113964 34.17834,81.893958 33.482731,81.8923 c -0.618056,-0.0015 -0.954315,0.117518 -1.347445,0.476816 -0.503492,0.460163 -0.709535,1.110054 -0.708805,2.235679 6.43e-4,0.994081 0.14764,1.613568 0.489964,2.064856 0.20218,0.266537 0.592147,0.538145 0.888642,0.618932 0.277798,0.07569 0.939943,0.07645 1.215351,0.0014 0.298247,-0.08129 0.664072,-0.336846 0.834759,-0.583147 l 0.144832,-0.208991 h 0.571982 0.571982 l -0.147226,0.273284 c -0.08097,0.150307 -0.294656,0.430177 -0.474848,0.621933 -0.699988,0.744909 -1.74191,1.040632 -2.832617,0.803966 z m 40.772708,-7.34e-4 c -0.859606,-0.184622 -1.665994,-0.780966 -2.05211,-1.517588 -0.338096,-0.645011 -0.431148,-1.080092 -0.430539,-2.013062 6.18e-4,-0.949564 0.07352,-1.308366 0.403379,-1.985415 0.924773,-1.898131 3.537612,-2.323695 5.035748,-0.820193 0.621835,0.624061 0.901867,1.328467 0.95407,2.399906 l 0.02997,0.615096 h -2.654557 -2.654556 l 0.03482,0.301005 c 0.107298,0.927431 0.407793,1.511256 0.935252,1.817076 0.217618,0.126175 0.69135,0.237606 1.010145,0.237606 h 0.173606 v 0.523486 0.523486 l -0.222482,-0.0042 c -0.122365,-0.0023 -0.375601,-0.03705 -0.562747,-0.07724 z m 2.721353,-4.35514 c -4.19e-4,-0.05039 -0.03639,-0.24269 -0.07991,-0.427341 -0.155184,-0.658355 -0.494368,-1.091131 -1.064703,-1.358489 -0.249581,-0.116997 -0.365652,-0.137905 -0.765337,-0.137859 -0.55357,5.2e-5 -0.81449,0.06889 -1.16018,0.306043 -0.458749,0.314712 -0.79357,0.869647 -0.882497,1.462657 l -0.03698,0.246599 h 1.995191 c 1.865577,0 1.99514,-0.006 1.994417,-0.09161 z m -35.70097,-0.590753 v -4.870252 l 0.536573,0.01492 0.536573,0.01492 0.01336,4.855333 0.01336,4.855333 H 41.03233 40.482399 Z m 22.067219,1.458828 c -0.715062,-1.878176 -1.311198,-3.457262 -1.324748,-3.509078 -0.02261,-0.08645 0.02221,-0.0942 0.544216,-0.09409 l 0.568852,1.21e-4 0.597713,1.66195 c 0.328741,0.914072 0.770852,2.168422 0.982468,2.787444 0.211616,0.619022 0.410715,1.125495 0.442444,1.125495 0.03173,0 0.179591,-0.353353 0.328584,-0.785229 0.148994,-0.431876 0.599006,-1.686279 1.000029,-2.787563 l 0.729132,-2.002334 h 0.562375 0.562376 l -0.104259,0.27483 c -0.05734,0.151157 -0.652218,1.723578 -1.321946,3.494269 l -1.217685,3.219439 -0.52472,0.01481 -0.52472,0.01481 -1.300111,-3.414866 z"
         style="fill:#234b9f;stroke-width:0.0523486" />
      <path
         id="path1232"
         d="m 32.689305,88.19701 c -1.223576,-0.265495 -2.063722,-1.175685 -2.338939,-2.53394 -0.123959,-0.611762 -0.08336,-1.853559 0.07878,-2.410001 0.272602,-0.935485 0.779883,-1.578856 1.527692,-1.937534 0.584146,-0.280178 1.091352,-0.38479 1.694063,-0.349404 0.811561,0.04765 1.337427,0.273593 1.873897,0.805139 0.232365,0.230233 0.612661,0.877661 0.612661,1.043014 0,0.05586 -0.119665,0.07149 -0.547454,0.07149 H 35.042552 L 34.905774,82.652379 C 34.590241,82.113964 34.17834,81.893958 33.482731,81.8923 c -0.618056,-0.0015 -0.954315,0.117518 -1.347445,0.476816 -0.503492,0.460163 -0.709535,1.110054 -0.708805,2.235679 6.43e-4,0.994081 0.14764,1.613568 0.489964,2.064856 0.20218,0.266537 0.592147,0.538145 0.888642,0.618932 0.277798,0.07569 0.939943,0.07645 1.215351,0.0014 0.298247,-0.08129 0.664072,-0.336846 0.834759,-0.583147 l 0.144832,-0.208991 h 0.571982 0.571982 l -0.147226,0.273284 c -0.08097,0.150307 -0.294656,0.430177 -0.474848,0.621933 -0.699988,0.744909 -1.74191,1.040632 -2.832617,0.803966 z m 40.772708,-7.34e-4 c -0.859606,-0.184622 -1.665994,-0.780966 -2.05211,-1.517588 -0.338096,-0.645011 -0.431148,-1.080092 -0.430539,-2.013062 6.18e-4,-0.949564 0.07352,-1.308366 0.403379,-1.985415 0.924773,-1.898131 3.537612,-2.323695 5.035748,-0.820193 0.621835,0.624061 0.901867,1.328467 0.95407,2.399906 l 0.02997,0.615096 h -2.654557 -2.654556 l 0.03482,0.301005 c 0.107298,0.927431 0.407793,1.511256 0.935252,1.817076 0.217618,0.126175 0.69135,0.237606 1.010145,0.237606 h 0.173606 v 0.523486 0.523486 l -0.222482,-0.0042 c -0.122365,-0.0023 -0.375601,-0.03705 -0.562747,-0.07724 z m 2.721353,-4.35514 c -4.19e-4,-0.05039 -0.03639,-0.24269 -0.07991,-0.427341 -0.155184,-0.658355 -0.494368,-1.091131 -1.064703,-1.358489 -0.249581,-0.116997 -0.365652,-0.137905 -0.765337,-0.137859 -0.55357,5.2e-5 -0.81449,0.06889 -1.16018,0.306043 -0.458749,0.314712 -0.79357,0.869647 -0.882497,1.462657 l -0.03698,0.246599 h 1.995191 c 1.865577,0 1.99514,-0.006 1.994417,-0.09161 z m -35.70097,-0.590753 v -4.870252 l 0.536573,0.01492 0.536573,0.01492 0.01336,4.855333 0.01336,4.855333 H 41.03233 40.482399 Z m 22.067219,1.458828 c -0.715062,-1.878176 -1.311198,-3.457262 -1.324748,-3.509078 -0.02261,-0.08645 0.02221,-0.0942 0.544216,-0.09409 l 0.568852,1.21e-4 0.597713,1.66195 c 0.328741,0.914072 0.770852,2.168422 0.982468,2.787444 0.211616,0.619022 0.410715,1.125495 0.442444,1.125495 0.03173,0 0.179591,-0.353353 0.328584,-0.785229 0.148994,-0.431876 0.599006,-1.686279 1.000029,-2.787563 l 0.729132,-2.002334 h 0.562375 0.562376 l -0.104259,0.27483 c -0.05734,0.151157 -0.652218,1.723578 -1.321946,3.494269 l -1.217685,3.219439 -0.52472,0.01481 -0.52472,0.01481 -1.300111,-3.414866 z"
         style="fill:#565656;stroke-width:0.0523486" />
    </g>
  </g>
</svg>
