<?xml version="1.0" encoding="UTF-8" standalone="no"?>
<!-- Created with Inkscape (http://www.inkscape.org/) -->

<svg
   xmlns:dc="http://purl.org/dc/elements/1.1/"
   xmlns:cc="http://creativecommons.org/ns#"
   xmlns:rdf="http://www.w3.org/1999/02/22-rdf-syntax-ns#"
   xmlns:svg="http://www.w3.org/2000/svg"
   xmlns="http://www.w3.org/2000/svg"
   xmlns:sodipodi="http://sodipodi.sourceforge.net/DTD/sodipodi-0.dtd"
   xmlns:inkscape="http://www.inkscape.org/namespaces/inkscape"
   width="120.82386mm"
   height="76.008797mm"
   viewBox="0 0 120.82386 76.008797"
   version="1.1"
   id="svg8"
   inkscape:version="0.92.3 (2405546, 2018-03-11)"
   sodipodi:docname="flecha_directa.svg">
  <defs
     id="defs2" />
  <sodipodi:namedview
     id="base"
     pagecolor="#ffffff"
     bordercolor="#666666"
     borderopacity="1.0"
     inkscape:pageopacity="0.0"
     inkscape:pageshadow="2"
     inkscape:zoom="1.5629971"
     inkscape:cx="201.33503"
     inkscape:cy="147.32529"
     inkscape:document-units="mm"
     inkscape:current-layer="g946"
     showgrid="false"
     fit-margin-top="0"
     fit-margin-left="0"
     fit-margin-right="0"
     fit-margin-bottom="0"
     inkscape:window-width="1920"
     inkscape:window-height="1015"
     inkscape:window-x="0"
     inkscape:window-y="0"
     inkscape:window-maximized="1" />
  <metadata
     id="metadata5">
    <rdf:RDF>
      <cc:Work
         rdf:about="">
        <dc:format>image/svg+xml</dc:format>
        <dc:type
           rdf:resource="http://purl.org/dc/dcmitype/StillImage" />
        <dc:title></dc:title>
      </cc:Work>
    </rdf:RDF>
  </metadata>
  <g
     inkscape:label="Capa 1"
     inkscape:groupmode="layer"
     id="layer1"
     transform="translate(-50.332915,-213.52234)">
    <g
       id="g946">
      <g
         id="g982">
        <path
           inkscape:connector-curvature="0"
           id="path867"
           d="m 139.85807,289.17359 c -0.12732,-0.16775 -0.43568,-0.48754 -0.68525,-0.71065 -0.24955,-0.22311 -0.49715,-0.48197 -0.55018,-0.57527 -0.0531,-0.0933 -0.27742,-0.33445 -0.49865,-0.5359 -0.36827,-0.33531 -0.75785,-0.73485 -1.51215,-1.55082 -0.15445,-0.1671 -0.47505,-0.49519 -0.71243,-0.72909 -0.76416,-0.75304 -1.3627,-1.37391 -1.5913,-1.65075 -0.12267,-0.14848 -0.41834,-0.46039 -0.6571,-0.69307 -0.23878,-0.23267 -0.60849,-0.59375 -0.82162,-0.80237 -0.21315,-0.2086 -0.56719,-0.59094 -0.78678,-0.84959 -0.21961,-0.25863 -0.50971,-0.53983 -0.64468,-0.62488 -0.13498,-0.085 -0.31986,-0.27733 -0.41089,-0.42728 -0.091,-0.14995 -0.34859,-0.43559 -0.5724,-0.63476 -0.42395,-0.3773 -1.16883,-1.1357 -1.56268,-1.59109 -0.12591,-0.14563 -0.45376,-0.47911 -0.7285,-0.74115 -0.27472,-0.26203 -0.56006,-0.56396 -0.63407,-0.67095 -0.074,-0.10707 -0.31247,-0.34301 -0.5299,-0.52444 -0.21743,-0.18144 -0.42209,-0.38864 -0.45479,-0.46048 -0.0327,-0.0719 -0.23308,-0.29599 -0.44529,-0.49816 -0.2122,-0.20217 -0.55104,-0.54638 -0.75294,-0.76494 -0.20192,-0.21857 -0.5107,-0.538 -0.68617,-0.70984 -0.71767,-0.70284 -1.06022,-1.05876 -1.46611,-1.52347 -0.2348,-0.26882 -0.51788,-0.54608 -0.62904,-0.61612 -0.22634,-0.14263 -0.77099,-0.81179 -0.75424,-0.92669 0.006,-0.0409 0.26492,-0.0599 0.57548,-0.0421 0.31057,0.0177 0.6328,0.0291 0.71608,0.0254 0.0833,-0.004 0.20951,-6.4e-4 0.28049,0.007 0.071,0.007 0.7288,0.0557 1.46181,0.10773 0.73303,0.0521 1.48628,0.11158 1.67391,0.13244 0.18763,0.0209 0.4056,0.0389 0.48436,0.0403 0.11989,10e-4 1.65731,0.15563 3.49261,0.34901 0.23678,0.025 0.45142,0.0586 0.47701,0.0746 0.0256,0.0161 0.17674,0.0345 0.33597,0.0408 0.15919,0.007 0.45177,0.0399 0.65017,0.0745 0.1984,0.0347 0.57343,0.085 0.8334,0.11185 0.64754,0.0669 1.32128,0.15768 1.74934,0.23561 0.79348,0.14447 1.16573,0.17465 1.29242,0.10481 0.27835,-0.15345 1.50838,-4.09773 2.35255,-7.54385 0.75814,-3.09482 1.50749,-7.78934 1.57156,-9.84531 0.007,-0.21481 0.0264,-0.64077 0.044,-0.9466 0.0531,-0.92855 0.0578,-1.5005 0.0241,-2.94184 -0.0258,-1.10307 -0.16583,-2.76344 -0.31239,-3.70569 -0.0533,-0.34299 -0.11457,-0.7478 -0.13607,-0.89957 -0.0215,-0.15177 -0.0629,-0.36961 -0.092,-0.48409 -0.0291,-0.11451 -0.12251,-0.5673 -0.20754,-1.0063 -0.085,-0.43898 -0.18856,-0.90175 -0.23005,-1.02837 -0.0416,-0.12659 -0.16715,-0.54124 -0.27922,-0.92138 -0.11207,-0.38015 -0.21799,-0.70014 -0.23537,-0.71109 -0.0375,-0.0235 -0.26306,-0.6789 -0.33127,-0.96223 -0.0263,-0.10906 -0.0776,-0.21718 -0.11415,-0.24019 -0.0365,-0.023 -0.0921,-0.16175 -0.12363,-0.30834 -0.0315,-0.14656 -0.0892,-0.28668 -0.12837,-0.31132 -0.0392,-0.0247 -0.0969,-0.16475 -0.12838,-0.31134 -0.0315,-0.14657 -0.0962,-0.29105 -0.14379,-0.32104 -0.0476,-0.03 -0.11709,-0.17747 -0.15439,-0.32773 -0.0373,-0.15024 -0.11278,-0.30182 -0.16774,-0.33682 -0.0549,-0.0349 -0.12161,-0.15669 -0.14815,-0.27038 -0.0265,-0.11371 -0.10721,-0.2909 -0.17927,-0.39377 -0.12642,-0.18048 -0.35087,-0.56708 -0.53989,-0.92997 -0.05,-0.0959 -0.20744,-0.34863 -0.34986,-0.56143 -0.14242,-0.21282 -0.38238,-0.57408 -0.53324,-0.8028 -0.15086,-0.22872 -0.39824,-0.5565 -0.54973,-0.72842 -0.1515,-0.17191 -0.28054,-0.3554 -0.28673,-0.40778 -0.006,-0.0523 -0.14901,-0.23009 -0.31738,-0.39493 -0.16835,-0.16487 -0.4203,-0.44723 -0.55987,-0.62752 -0.23981,-0.30978 -0.45263,-0.5292 -1.2972,-1.33744 -0.83278,-0.79694 -1.15181,-1.08965 -1.63811,-1.50304 -0.69334,-0.58934 -5.97443,-3.83246 -6.34777,-3.89814 -0.15415,-0.0271 -0.64402,-0.22857 -1.08865,-0.44768 -0.44461,-0.21913 -1.05998,-0.47737 -1.36746,-0.5739 -0.30746,-0.0966 -0.77116,-0.2554 -1.0304,-0.35303 -0.88812,-0.33447 -1.6952,-0.60773 -2.21513,-0.75004 -0.28611,-0.0784 -0.81494,-0.22557 -1.17518,-0.32726 -0.36025,-0.10162 -0.82841,-0.22256 -1.04035,-0.26859 -0.21195,-0.0461 -0.51005,-0.1262 -0.66246,-0.17828 -0.15241,-0.0521 -0.39197,-0.0962 -0.53238,-0.098 -0.1404,-0.001 -0.30647,-0.0356 -0.36904,-0.0752 -0.0625,-0.0395 -0.35599,-0.1161 -0.65205,-0.17048 -0.29606,-0.0542 -0.76808,-0.14386 -1.04895,-0.19899 -1.19566,-0.23464 -1.63407,-0.31133 -1.90698,-0.3335 -0.15926,-0.0133 -0.41498,-0.0542 -0.56828,-0.0917 -0.15329,-0.0375 -0.54497,-0.10003 -0.8704,-0.1391 -0.32543,-0.0391 -0.73948,-0.0931 -0.92011,-0.12008 -0.64732,-0.0968 -1.07925,-0.15193 -1.25836,-0.16049 -0.10017,-0.005 -0.44857,-0.0405 -0.77427,-0.0792 -0.56916,-0.0678 -1.32305,-0.13656 -1.93595,-0.17659 -0.15976,-0.0106 -0.4205,-0.028 -0.57941,-0.0393 -0.63621,-0.0448 -1.5793,-0.1003 -2.58697,-0.15248 -0.7657,-0.0396 -2.528452,-0.0971 -3.054513,-0.0996 -0.288738,-10e-4 -0.995096,-0.007 -1.569664,-0.012 -0.574575,-0.005 -1.221739,-0.005 -1.438128,-10e-4 -0.216398,0.005 -0.678923,0.0133 -1.027837,0.0178 -0.626297,0.009 -1.021729,0.0194 -1.754395,0.0452 -0.206093,0.007 -0.485739,0.0159 -0.621425,0.0191 -0.851579,0.0207 -2.948538,0.1266 -3.612764,0.18238 -0.349852,0.0294 -0.741748,0.0514 -0.870878,0.0489 -0.243717,-0.005 -1.37427,0.0862 -3.99787,0.3215 -0.844299,0.0757 -1.610174,0.14222 -1.701936,0.14777 -0.09176,0.005 -0.360561,0.0367 -0.597325,0.0689 -0.236764,0.0324 -0.748902,0.0881 -1.138086,0.12368 -0.389186,0.0356 -0.841597,0.0841 -1.005371,0.1076 -0.16377,0.0235 -0.70021,0.0931 -1.192084,0.15481 -1.480018,0.18556 -2.598917,0.33676 -3.773454,0.50992 -0.612891,0.0903 -1.249333,0.1819 -1.414315,0.20339 -0.778202,0.10136 -5.014085,0.79918 -5.521405,0.90955 -0.314843,0.0685 -0.833465,0.16447 -1.152484,0.21329 -0.577662,0.0883 -2.793325,0.51826 -3.860795,0.74905 -0.308516,0.0667 -0.67155,0.13164 -0.806755,0.14422 -0.405011,0.0377 -6.073487,1.34051 -8.753807,2.01174 -3.837996,0.96114 -3.350191,0.73436 2.451161,-1.13949 1.62344,-0.52438 3.235246,-1.0485 3.581778,-1.16471 0.346539,-0.11623 1.042825,-0.32982 1.547307,-0.47475 0.504482,-0.1449 1.158117,-0.34501 1.452523,-0.44466 0.294399,-0.0996 0.597551,-0.1938 0.673652,-0.20921 0.0761,-0.0154 1.259736,-0.35589 2.630288,-0.75662 10.112674,-2.95674 19.740885,-5.11847 28.58741,-6.41844 2.026311,-0.29776 6.600252,-0.83158 7.559582,-0.88227 0.0928,-0.005 0.57428,-0.0433 1.06998,-0.0853 1.04488,-0.0886 1.68242,-0.13164 2.58042,-0.17419 0.35393,-0.0167 0.7542,-0.0385 0.88949,-0.0483 0.43824,-0.0317 2.7032,-0.11332 3.19773,-0.11518 0.26438,-0.001 0.84975,-0.004 1.30082,-0.005 1.81199,-0.008 3.89013,0.0502 5.7893,0.16366 0.21014,0.012 0.57052,0.0323 0.80084,0.0437 0.23031,0.012 0.44113,0.0352 0.46848,0.0526 0.0273,0.0174 0.23673,0.0382 0.4653,0.0461 0.61888,0.0215 0.91682,0.0433 1.28496,0.0944 1.43713,0.1993 1.84652,0.24847 2.07933,0.24974 0.14669,6.3e-4 0.31943,0.0347 0.38388,0.0753 0.0645,0.0406 0.2845,0.0756 0.48902,0.0777 0.20452,0.001 0.42458,0.0371 0.48903,0.0777 0.0644,0.0406 0.25501,0.0741 0.42347,0.0745 0.16846,4e-4 0.42078,0.0332 0.56069,0.0729 0.13989,0.0397 0.43542,0.10308 0.65672,0.14085 0.22128,0.0377 0.64875,0.11822 0.94993,0.17865 0.30118,0.0604 0.70736,0.14063 0.90265,0.17805 0.19528,0.0375 0.47817,0.11198 0.62864,0.16571 0.15049,0.0537 0.43309,0.12859 0.62803,0.16628 1.08052,0.20907 2.41761,0.60348 4.28363,1.26359 0.26402,0.0934 0.77437,0.27254 1.13409,0.39808 0.35971,0.12553 0.95871,0.37916 1.3311,0.56359 0.37238,0.18445 0.79061,0.36867 0.92938,0.4094 0.4317,0.12673 0.47465,0.14864 2.43378,1.24451 2.15348,1.20458 4.59561,2.86868 5.83103,3.97334 0.79929,0.71468 1.92491,1.8111 2.23968,2.18154 0.11335,0.13337 0.37498,0.41804 0.58144,0.63256 0.45523,0.47304 0.95457,1.07352 1.22116,1.46857 0.10861,0.16095 0.29086,0.40118 0.405,0.53386 0.21385,0.24857 0.50001,0.6533 0.83154,1.17611 0.10443,0.16467 0.29149,0.458 0.41572,0.65188 0.4049,0.63192 0.72869,1.17583 0.83718,1.40638 0.0585,0.12434 0.16846,0.31383 0.24434,0.42113 0.0758,0.10733 0.22437,0.38633 0.33,0.62005 0.10564,0.23371 0.25846,0.53825 0.33964,0.67675 0.17333,0.29573 0.38599,0.76201 0.50309,1.10305 0.0458,0.13329 0.12038,0.26577 0.16582,0.2944 0.0455,0.0286 0.066,0.0877 0.0458,0.13137 -0.0202,0.0436 0.01,0.14376 0.0663,0.22259 0.0566,0.0788 0.14205,0.26174 0.18972,0.40654 0.0477,0.14479 0.14943,0.41807 0.22611,0.6073 0.0767,0.18923 0.17921,0.46183 0.22785,0.60576 0.0486,0.14393 0.13592,0.39178 0.19395,0.55077 0.2606,0.71393 0.93364,3.17771 1.25277,4.58591 0.097,0.42791 0.55838,3.21003 0.58802,3.54556 0.0102,0.11557 0.0402,0.32481 0.0666,0.46504 0.1134,0.60157 0.323,3.95093 0.31983,5.11058 -0.008,2.84754 -0.0652,4.33259 -0.22686,5.87328 -0.0548,0.52212 -0.10973,1.09587 -0.12205,1.27496 -0.047,0.68258 -0.35043,2.54439 -0.70556,4.3291 -0.20302,1.02031 -0.33905,1.87407 -0.30228,1.89724 0.0841,0.053 0.68139,-0.19234 1.10696,-0.45467 0.17794,-0.10959 0.62921,-0.36971 1.00284,-0.57788 0.37362,-0.20816 0.82375,-0.46894 1.0003,-0.57949 0.17652,-0.11052 0.44003,-0.25561 0.58554,-0.32234 0.14553,-0.0667 0.38441,-0.20137 0.53089,-0.2992 0.24955,-0.16668 1.08529,-0.64189 1.53786,-0.87445 0.11078,-0.0568 0.32763,-0.17954 0.48187,-0.27245 0.15424,-0.093 0.58631,-0.33915 0.96015,-0.54718 0.37384,-0.20804 0.85125,-0.47754 1.06093,-0.5989 0.20966,-0.12142 0.68618,-0.39142 1.05894,-0.60014 0.37277,-0.20872 0.84885,-0.47906 1.05797,-0.60075 0.20913,-0.12168 0.68631,-0.39137 1.0604,-0.59925 0.37409,-0.20785 0.8828,-0.50423 1.13047,-0.6586 0.24769,-0.15436 0.51278,-0.29582 0.58916,-0.31433 0.0763,-0.0185 0.20982,-0.0952 0.29656,-0.17045 0.087,-0.0751 0.34329,-0.22728 0.57009,-0.33785 0.22681,-0.11053 0.45936,-0.24134 0.5168,-0.29064 0.0577,-0.0491 0.2489,-0.16195 0.42553,-0.25034 0.35039,-0.17538 0.95,-0.51193 1.60716,-0.9021 0.87529,-0.51967 0.86971,-0.39455 -0.0237,0.53306 -0.72369,0.75137 -1.20123,1.26753 -2.33745,2.52652 -0.40101,0.44437 -0.90254,0.98387 -1.11443,1.19888 -0.21193,0.215 -0.5715,0.61061 -0.7991,0.8791 -0.22757,0.26851 -0.64398,0.732 -0.92529,1.03001 -0.77953,0.82577 -1.42041,1.51528 -1.82351,1.96188 -0.2005,0.22219 -0.56084,0.61732 -0.80069,0.87809 -1.30345,1.41714 -2.17164,2.36612 -2.67458,2.92344 -0.30989,0.34339 -0.75412,0.81526 -0.9872,1.04862 -0.23309,0.23334 -0.50186,0.53062 -0.59731,0.66059 -0.0954,0.13005 -0.42413,0.49318 -0.73047,0.80712 -0.30632,0.31395 -0.80958,0.85232 -1.11833,1.19642 -1.33775,1.49095 -1.85463,2.05375 -2.36301,2.57295 -0.29753,0.30388 -0.70162,0.74921 -0.89796,0.98962 -0.19631,0.24042 -0.5839,0.6609 -0.86127,0.93439 -0.27738,0.27347 -0.57892,0.60196 -0.67017,0.72991 -0.0912,0.12792 -0.43282,0.50512 -0.75913,0.83814 -0.32631,0.33304 -0.82929,0.8716 -1.11775,1.1968 -0.65485,0.73825 -1.26129,1.39764 -2.18037,2.37072 -0.394,0.41712 -0.75304,0.81306 -0.79791,0.87984 -0.0449,0.0667 -0.38916,0.4461 -0.76508,0.84292 -0.37591,0.39683 -1.05997,1.13238 -1.52012,1.63456 -0.46013,0.50218 -1.04782,1.14292 -1.30594,1.42387 -0.25812,0.28093 -0.79706,0.87801 -1.19761,1.32685 -0.79121,0.88651 -1.08244,1.14093 -1.23227,1.07651 -0.0532,-0.0228 -0.2011,-0.1789 -0.32841,-0.34667 z"
           style="fill:#2c001e;stroke-width:0.08038143" />
        <text
           xml:space="preserve"
           style="font-style:normal;font-variant:normal;font-weight:normal;font-stretch:normal;font-size:12.31543255px;line-height:0;font-family:'Mitra Mono';-inkscape-font-specification:'Mitra Mono';text-align:center;letter-spacing:0px;word-spacing:0px;text-anchor:middle;fill:#2c001e;fill-opacity:1;stroke:none;stroke-width:0.38485727"
           x="120.80158"
           y="183.81328"
           id="text891"
           transform="scale(0.76411007,1.308712)"><tspan
             sodipodi:role="line"
             id="tspan889"
             x="120.80158"
             y="183.81328"
             style="font-style:italic;font-variant:normal;font-weight:500;font-stretch:normal;font-size:15.48173714px;line-height:2;font-family:Ubuntu;-inkscape-font-specification:'Ubuntu Medium Italic';fill:#2c001e;stroke-width:0.38485727">Inscribirme</tspan><tspan
             sodipodi:role="line"
             x="120.80158"
             y="199.29501"
             style="font-style:italic;font-variant:normal;font-weight:500;font-stretch:normal;font-size:15.48173714px;font-family:Ubuntu;-inkscape-font-specification:'Ubuntu Medium Italic';fill:#2c001e;stroke-width:0.38485727"
             id="tspan893">directamente</tspan></text>
        <path
           style="fill:#a3a3a3;stroke-width:0.08038143"
           d="m 140.57619,286.8673 c -0.12732,-0.16775 -0.43568,-0.48755 -0.68525,-0.71065 -0.24955,-0.22312 -0.49715,-0.48198 -0.55018,-0.57527 -0.0531,-0.0933 -0.27742,-0.33445 -0.49865,-0.5359 -0.36827,-0.33531 -0.75785,-0.73485 -1.51215,-1.55083 -0.15445,-0.1671 -0.47505,-0.49518 -0.71242,-0.72908 -0.76417,-0.75304 -1.3627,-1.37392 -1.59131,-1.65075 -0.12267,-0.14849 -0.41834,-0.46039 -0.6571,-0.69308 -0.23878,-0.23266 -0.60849,-0.59375 -0.82162,-0.80237 -0.21315,-0.2086 -0.56719,-0.59093 -0.78678,-0.84958 -0.21961,-0.25864 -0.50971,-0.53983 -0.64468,-0.62489 -0.13498,-0.085 -0.31986,-0.27733 -0.41088,-0.42728 -0.091,-0.14994 -0.3486,-0.43559 -0.5724,-0.63475 -0.42395,-0.37731 -1.16884,-1.13571 -1.56269,-1.59109 -0.12591,-0.14563 -0.45376,-0.47911 -0.72849,-0.74115 -0.27473,-0.26204 -0.56007,-0.56397 -0.63408,-0.67096 -0.074,-0.10707 -0.31246,-0.343 -0.5299,-0.52443 -0.21743,-0.18145 -0.42209,-0.38865 -0.45479,-0.46049 -0.0327,-0.0719 -0.23308,-0.29599 -0.44529,-0.49816 -0.2122,-0.20216 -0.55103,-0.54638 -0.75294,-0.76494 -0.20192,-0.21857 -0.5107,-0.53799 -0.68616,-0.70983 -0.71768,-0.70284 -1.06022,-1.05877 -1.46611,-1.52348 -0.23481,-0.26881 -0.51788,-0.54607 -0.62905,-0.61612 -0.22634,-0.14263 -0.77099,-0.81179 -0.75424,-0.92668 0.006,-0.0409 0.26492,-0.0599 0.57548,-0.0421 0.31057,0.0177 0.6328,0.0291 0.71608,0.0254 0.0833,-0.004 0.20951,-6.4e-4 0.28049,0.007 0.071,0.007 0.7288,0.0558 1.46181,0.10773 0.73303,0.0521 1.48628,0.11159 1.67391,0.13244 0.18763,0.0209 0.4056,0.0389 0.48436,0.0402 0.1199,10e-4 1.65731,0.15564 3.49261,0.34901 0.23678,0.025 0.45142,0.0586 0.47701,0.0747 0.0256,0.0161 0.17674,0.0345 0.33597,0.0408 0.15919,0.007 0.45177,0.0399 0.65017,0.0745 0.1984,0.0347 0.57343,0.085 0.8334,0.11185 0.64755,0.067 1.32128,0.15768 1.74934,0.23562 0.79349,0.14446 1.16573,0.17464 1.29242,0.10481 0.27835,-0.15346 1.50838,-4.09773 2.35255,-7.54385 0.75814,-3.09483 1.50749,-7.78934 1.57156,-9.84531 0.007,-0.21482 0.0265,-0.64078 0.044,-0.9466 0.0532,-0.92856 0.0578,-1.50051 0.0241,-2.94185 -0.0259,-1.10307 -0.16583,-2.76343 -0.31239,-3.70568 -0.0533,-0.34299 -0.11457,-0.74781 -0.13607,-0.89958 -0.0215,-0.15176 -0.0629,-0.36961 -0.092,-0.48409 -0.0291,-0.1145 -0.1225,-0.5673 -0.20754,-1.00629 -0.085,-0.43898 -0.18856,-0.90175 -0.23005,-1.02837 -0.0415,-0.1266 -0.16715,-0.54124 -0.27922,-0.92139 -0.11207,-0.38014 -0.21799,-0.70014 -0.23537,-0.71108 -0.0374,-0.0235 -0.26306,-0.6789 -0.33127,-0.96223 -0.0263,-0.10907 -0.0776,-0.21718 -0.11414,-0.24019 -0.0365,-0.023 -0.0921,-0.16176 -0.12364,-0.30835 -0.0315,-0.14656 -0.0893,-0.28668 -0.12837,-0.31132 -0.0392,-0.0247 -0.0969,-0.16474 -0.12838,-0.31133 -0.0315,-0.14658 -0.0962,-0.29105 -0.14379,-0.32105 -0.0476,-0.03 -0.11708,-0.17747 -0.15439,-0.32772 -0.0373,-0.15024 -0.11278,-0.30183 -0.16774,-0.33683 -0.0549,-0.0349 -0.12161,-0.15668 -0.14815,-0.27038 -0.0265,-0.11371 -0.10721,-0.29089 -0.17926,-0.39376 -0.12643,-0.18049 -0.35088,-0.56709 -0.5399,-0.92998 -0.05,-0.0959 -0.20743,-0.34862 -0.34986,-0.56143 -0.14242,-0.21282 -0.38237,-0.57407 -0.53324,-0.8028 -0.15086,-0.22872 -0.39824,-0.5565 -0.54973,-0.72842 -0.1515,-0.17191 -0.28054,-0.3554 -0.28673,-0.40777 -0.006,-0.0523 -0.14901,-0.23009 -0.31737,-0.39493 -0.16836,-0.16487 -0.42031,-0.44723 -0.55988,-0.62752 -0.23981,-0.30978 -0.45263,-0.5292 -1.2972,-1.33745 -0.83278,-0.79694 -1.15181,-1.08965 -1.63811,-1.50303 -0.69334,-0.58934 -5.97443,-3.83247 -6.34777,-3.89814 -0.15415,-0.0271 -0.64402,-0.22858 -1.08865,-0.44768 -0.44461,-0.21913 -1.05998,-0.47737 -1.36746,-0.57391 -0.30746,-0.0966 -0.77116,-0.25539 -1.0304,-0.35303 -0.88812,-0.33446 -1.6952,-0.60772 -2.21513,-0.75003 -0.2861,-0.0784 -0.81494,-0.22558 -1.17518,-0.32727 -0.36025,-0.10162 -0.82841,-0.22255 -1.04035,-0.26858 -0.21195,-0.0461 -0.51005,-0.1262 -0.66246,-0.17829 -0.15241,-0.0521 -0.39197,-0.0962 -0.53238,-0.098 -0.1404,-0.001 -0.30647,-0.0356 -0.36904,-0.075 -0.0625,-0.0395 -0.35599,-0.11611 -0.65205,-0.17048 -0.29606,-0.0542 -0.76808,-0.14386 -1.04895,-0.19899 -1.19566,-0.23465 -1.63407,-0.31133 -1.90698,-0.3335 -0.15926,-0.0133 -0.41498,-0.0542 -0.56828,-0.0917 -0.15329,-0.0375 -0.54497,-0.10003 -0.8704,-0.1391 -0.32543,-0.0389 -0.73948,-0.0931 -0.9201,-0.12009 -0.64733,-0.0968 -1.07926,-0.15192 -1.25837,-0.16048 -0.10017,-0.005 -0.44857,-0.0405 -0.77427,-0.0792 -0.56916,-0.0677 -1.32305,-0.13656 -1.93595,-0.1766 -0.15975,-0.0106 -0.4205,-0.028 -0.57941,-0.0393 -0.6362,-0.0448 -1.5793,-0.10042 -2.58697,-0.15247 -0.7657,-0.0396 -2.528452,-0.0971 -3.054514,-0.0996 -0.288738,-0.001 -0.995096,-0.007 -1.569663,-0.012 -0.574576,-0.005 -1.22174,-0.005 -1.438129,-0.001 -0.216398,0.005 -0.678923,0.0133 -1.027837,0.0178 -0.626297,0.009 -1.021728,0.0194 -1.754395,0.0452 -0.206093,0.007 -0.485739,0.0159 -0.621425,0.0191 -0.851579,0.0207 -2.948538,0.1266 -3.612764,0.18238 -0.349852,0.0293 -0.741748,0.0514 -0.870878,0.0489 -0.243717,-0.005 -1.37427,0.0862 -3.99787,0.3215 -0.844299,0.0757 -1.610174,0.14222 -1.701936,0.14777 -0.09176,0.005 -0.360561,0.0365 -0.597325,0.0689 -0.236764,0.0324 -0.748902,0.0881 -1.138086,0.12367 -0.389186,0.0356 -0.841597,0.0841 -1.005371,0.1076 -0.163769,0.0235 -0.70021,0.0931 -1.192084,0.15481 -1.480018,0.18557 -2.598917,0.33676 -3.773454,0.50993 -0.61289,0.0903 -1.249332,0.1819 -1.414315,0.20339 -0.778202,0.10136 -5.014085,0.79917 -5.521404,0.90955 -0.314844,0.0685 -0.833466,0.16447 -1.152485,0.21329 -0.577661,0.0883 -2.793324,0.51825 -3.860795,0.74905 -0.308516,0.0667 -0.67155,0.13164 -0.806755,0.14422 -0.405011,0.0377 -6.073487,1.3405 -8.753807,2.01174 -3.837996,0.96114 -3.350191,0.73436 2.451161,-1.13949 1.62344,-0.52438 3.235246,-1.0485 3.581778,-1.16471 0.346539,-0.11623 1.042826,-0.32982 1.547307,-0.47475 0.504482,-0.1449 1.158118,-0.34501 1.452523,-0.44466 0.2944,-0.0996 0.597551,-0.1938 0.673652,-0.20921 0.0761,-0.0154 1.259736,-0.35589 2.630288,-0.75663 10.112674,-2.95674 19.740886,-5.11846 28.587411,-6.41844 2.02631,-0.29775 6.600252,-0.83157 7.559592,-0.88226 0.0928,-0.005 0.57427,-0.0433 1.06997,-0.0853 1.04489,-0.0886 1.68242,-0.13164 2.58043,-0.17419 0.35393,-0.0167 0.75419,-0.0385 0.88948,-0.0484 0.43824,-0.0318 2.7032,-0.11331 3.19773,-0.11517 0.26438,-0.001 0.84975,-0.004 1.30082,-0.005 1.81199,-0.008 3.89014,0.0502 5.7893,0.16366 0.21014,0.012 0.57052,0.0323 0.80084,0.0437 0.23031,0.012 0.44113,0.0352 0.46848,0.0526 0.0273,0.0174 0.23674,0.0383 0.4653,0.0461 0.61888,0.0215 0.91682,0.0433 1.28496,0.0944 1.43713,0.1993 1.84652,0.24847 2.07934,0.24973 0.14668,6.4e-4 0.31942,0.0347 0.38387,0.0753 0.0645,0.0406 0.2845,0.0756 0.48902,0.0777 0.20452,0.001 0.42458,0.0371 0.48903,0.0777 0.0644,0.0406 0.25501,0.0741 0.42347,0.0745 0.16847,4e-4 0.42078,0.0332 0.56069,0.0729 0.13989,0.0397 0.43542,0.10308 0.65672,0.14085 0.22128,0.0377 0.64875,0.11809 0.94993,0.17865 0.30118,0.0604 0.70737,0.14062 0.90265,0.17804 0.19529,0.0375 0.47817,0.11199 0.62864,0.16572 0.15049,0.0537 0.43309,0.12859 0.62803,0.16628 1.08053,0.20907 2.41761,0.60348 4.28364,1.26359 0.26401,0.0934 0.77436,0.27254 1.13408,0.39807 0.35972,0.12554 0.95871,0.37917 1.3311,0.5636 0.37239,0.18445 0.79061,0.36867 0.92938,0.40939 0.4317,0.12673 0.47465,0.14865 2.43378,1.24452 2.15349,1.20458 4.59561,2.86868 5.83103,3.97334 0.79929,0.71467 1.92492,1.8111 2.23968,2.18153 0.11335,0.13337 0.37498,0.41805 0.58144,0.63257 0.45523,0.47304 0.95457,1.07352 1.22116,1.46857 0.10862,0.16095 0.29086,0.40118 0.40501,0.53386 0.21384,0.24856 0.5,0.6533 0.83153,1.17611 0.10443,0.16467 0.2915,0.458 0.41572,0.65188 0.4049,0.63191 0.72869,1.17582 0.83718,1.40638 0.0585,0.12434 0.16846,0.31383 0.24434,0.42112 0.0758,0.10734 0.22437,0.38634 0.33,0.62006 0.10564,0.23371 0.25846,0.53825 0.33964,0.67674 0.17333,0.29574 0.38599,0.76202 0.50309,1.10306 0.0458,0.13329 0.12039,0.26577 0.16582,0.29439 0.0455,0.0286 0.066,0.0877 0.0458,0.13138 -0.0202,0.0436 0.01,0.14376 0.0663,0.22259 0.0566,0.0788 0.14206,0.26174 0.18973,0.40654 0.0477,0.14479 0.14942,0.41807 0.2261,0.6073 0.0767,0.18923 0.17921,0.46182 0.22786,0.60575 0.0486,0.14394 0.13591,0.39179 0.19394,0.55078 0.26061,0.71393 0.93364,3.17771 1.25277,4.5859 0.097,0.42792 0.55838,3.21004 0.58803,3.54557 0.0102,0.11557 0.0402,0.32481 0.0666,0.46504 0.1134,0.60157 0.32301,3.95093 0.31983,5.11057 -0.008,2.84755 -0.0652,4.3326 -0.22686,5.87329 -0.0548,0.52212 -0.10972,1.09586 -0.12205,1.27496 -0.047,0.68258 -0.35042,2.54439 -0.70556,4.3291 -0.20302,1.0203 -0.33905,1.87407 -0.30228,1.89724 0.0841,0.053 0.6814,-0.19234 1.10697,-0.45467 0.17793,-0.10959 0.6292,-0.36971 1.00283,-0.57789 0.37363,-0.20815 0.82376,-0.46893 1.0003,-0.57948 0.17652,-0.11052 0.44003,-0.25561 0.58554,-0.32235 0.14553,-0.0667 0.38441,-0.20137 0.53089,-0.29919 0.24955,-0.16669 1.0853,-0.64189 1.53786,-0.87445 0.11078,-0.0569 0.32763,-0.17955 0.48187,-0.27245 0.15424,-0.093 0.58631,-0.33915 0.96015,-0.54718 0.37384,-0.20804 0.85126,-0.47754 1.06093,-0.5989 0.20966,-0.12142 0.68618,-0.39143 1.05894,-0.60014 0.37277,-0.20872 0.84885,-0.47906 1.05797,-0.60075 0.20913,-0.12168 0.68631,-0.39137 1.0604,-0.59925 0.37409,-0.20786 0.8828,-0.50423 1.13047,-0.6586 0.24769,-0.15436 0.51278,-0.29582 0.58916,-0.31433 0.0764,-0.0185 0.20982,-0.0952 0.29656,-0.17046 0.087,-0.0751 0.34329,-0.22727 0.57009,-0.33785 0.22681,-0.11052 0.45936,-0.24134 0.5168,-0.29063 0.0577,-0.0491 0.2489,-0.16195 0.42553,-0.25034 0.35039,-0.17539 0.95,-0.51193 1.60716,-0.90211 0.87529,-0.51966 0.86971,-0.39454 -0.0237,0.53307 -0.72369,0.75137 -1.20123,1.26752 -2.33745,2.52652 -0.40101,0.44437 -0.90254,0.98387 -1.11443,1.19888 -0.21193,0.215 -0.5715,0.61061 -0.79909,0.8791 -0.22758,0.26851 -0.64399,0.732 -0.9253,1.03001 -0.77953,0.82576 -1.4204,1.51528 -1.8235,1.96188 -0.20051,0.22219 -0.56085,0.61732 -0.8007,0.87809 -1.30345,1.41714 -2.17164,2.36611 -2.67458,2.92344 -0.30988,0.34339 -0.75412,0.81526 -0.9872,1.04862 -0.23309,0.23334 -0.50185,0.53062 -0.5973,0.66059 -0.0954,0.13005 -0.42414,0.49318 -0.73048,0.80712 -0.30632,0.31395 -0.80958,0.85232 -1.11833,1.19642 -1.33775,1.49095 -1.85463,2.05374 -2.36301,2.57295 -0.29753,0.30388 -0.70162,0.74921 -0.89795,0.98962 -0.19632,0.24042 -0.58391,0.6609 -0.86128,0.93439 -0.27738,0.27347 -0.57892,0.60196 -0.67017,0.72991 -0.0912,0.12792 -0.43282,0.50512 -0.75913,0.83814 -0.32631,0.33304 -0.82929,0.8716 -1.11775,1.1968 -0.65485,0.73825 -1.26129,1.39764 -2.18037,2.37072 -0.394,0.41712 -0.75304,0.81306 -0.79791,0.87983 -0.0449,0.0667 -0.38916,0.4461 -0.76508,0.84293 -0.37591,0.39683 -1.05997,1.13237 -1.52011,1.63456 -0.46014,0.50218 -1.04783,1.14292 -1.30595,1.42387 -0.25812,0.28093 -0.79706,0.87801 -1.19761,1.32685 -0.79121,0.88651 -1.08244,1.14092 -1.23227,1.07651 -0.0532,-0.0229 -0.20109,-0.17891 -0.32841,-0.34667 z"
           id="path920"
           inkscape:connector-curvature="0" />
        <text
           transform="scale(0.76411007,1.308712)"
           id="text926"
           y="183.23819"
           x="121.56705"
           style="font-style:normal;font-variant:normal;font-weight:normal;font-stretch:normal;font-size:12.31543255px;line-height:0;font-family:'Mitra Mono';-inkscape-font-specification:'Mitra Mono';text-align:center;letter-spacing:0px;word-spacing:0px;text-anchor:middle;fill:#f8dad0;fill-opacity:1;stroke:none;stroke-width:0.38485727"
           xml:space="preserve"><tspan
             style="font-style:italic;font-variant:normal;font-weight:500;font-stretch:normal;font-size:15.48173714px;line-height:2;font-family:Ubuntu;-inkscape-font-specification:'Ubuntu Medium Italic';fill:#f8dad0;stroke-width:0.38485727"
             y="183.23819"
             x="121.56705"
             id="tspan922"
             sodipodi:role="line">Inscribirme</tspan><tspan
             id="tspan924"
             style="font-style:italic;font-variant:normal;font-weight:500;font-stretch:normal;font-size:15.48173714px;font-family:Ubuntu;-inkscape-font-specification:'Ubuntu Medium Italic';fill:#f8dad0;stroke-width:0.38485727"
             y="198.71992"
             x="121.56705"
             sodipodi:role="line">directamente</tspan></text>
      </g>
    </g>
  </g>
</svg>
