<?xml version="1.0" encoding="UTF-8" standalone="no"?>
<svg
   xmlns:dc="http://purl.org/dc/elements/1.1/"
   xmlns:cc="http://creativecommons.org/ns#"
   xmlns:rdf="http://www.w3.org/1999/02/22-rdf-syntax-ns#"
   xmlns:svg="http://www.w3.org/2000/svg"
   xmlns="http://www.w3.org/2000/svg"
   xmlns:sodipodi="http://sodipodi.sourceforge.net/DTD/sodipodi-0.dtd"
   xmlns:inkscape="http://www.inkscape.org/namespaces/inkscape"
   id="svg1030"
   version="1.1"
   viewBox="0 0 119.83347 58.914452"
   height="58.914452mm"
   width="119.83347mm"
   sodipodi:docname="logo_puertas_digitales.svg"
   inkscape:export-filename="/home/l15h0/Descargas/edusi/contrato ECOS/puertas digitales/logo_puertas_digitales.png"
   inkscape:export-xdpi="96"
   inkscape:export-ydpi="96"
   inkscape:version="0.92.3 (2405546, 2018-03-11)">
  <sodipodi:namedview
     pagecolor="#ffffff"
     bordercolor="#666666"
     borderopacity="1"
     objecttolerance="10"
     gridtolerance="10"
     guidetolerance="10"
     inkscape:pageopacity="0"
     inkscape:pageshadow="2"
     inkscape:window-width="1920"
     inkscape:window-height="1015"
     id="namedview30"
     showgrid="false"
     inkscape:zoom="1"
     inkscape:cx="273.13267"
     inkscape:cy="89.350835"
     inkscape:window-x="0"
     inkscape:window-y="0"
     inkscape:window-maximized="1"
     inkscape:current-layer="layer1" />
  <defs
     id="defs1024">
    <clipPath
       id="clipPath1557"
       clipPathUnits="userSpaceOnUse">
      <rect
         y="388.65921"
         x="-211.47768"
         height="44.601189"
         width="50.081848"
         id="rect1559"
         style="opacity:1;vector-effect:none;fill:#596a91;fill-opacity:1;fill-rule:nonzero;stroke:#000000;stroke-width:0.1;stroke-linecap:butt;stroke-linejoin:miter;stroke-miterlimit:4;stroke-dasharray:none;stroke-dashoffset:0;stroke-opacity:1;paint-order:fill markers stroke" />
    </clipPath>
  </defs>
  <metadata
     id="metadata1027">
    <rdf:RDF>
      <cc:Work
         rdf:about="">
        <dc:format>image/svg+xml</dc:format>
        <dc:type
           rdf:resource="http://purl.org/dc/dcmitype/StillImage" />
        <dc:title />
      </cc:Work>
    </rdf:RDF>
  </metadata>
  <g
     transform="translate(-73.886836,-181.3642)"
     id="layer1">
    <path
       id="path981"
       d="m 153.19959,202.91324 c 0.29498,-2.14642 0.2745,-4.27121 0.24988,-6.53262 -0.004,-0.33358 0.20045,-0.66661 0.52186,-0.85397 0.21289,-0.1241 0.5873,-0.449 0.5873,-0.449 0.54941,-0.47025 1.28614,-0.83183 2.36628,-1.16129 1.81448,-0.55345 1.92159,-0.67288 2.48928,-2.77608 1.0959,-4.06025 3.7556,-7.02469 7.2845,-8.11925 1.01124,-0.31366 1.80724,-0.41277 3.31515,-0.41277 3.36442,0 5.73588,1.02663 7.97544,3.45268 1.45344,1.57448 2.09344,2.94923 2.9812,6.40368 l 0.20478,0.79679 1.93157,0.59516 c 2.55217,0.78639 3.49334,1.28495 4.75977,2.52137 2.4662,2.40779 3.12004,6.1903 1.60766,9.30037 -0.69543,1.43007 -2.60491,3.28787 -4.3444,4.22685 l -1.22539,0.66146 -15.07181,0.0537 -19.24245,0.3217 c 0,0 1.74747,-2.04724 2.22682,-3.18161 0.6515,-1.54173 1.15468,-3.18902 1.38256,-4.84717 z m 9.03503,-12.26348 c 0.0768,-0.543 -0.29369,-0.8193 -0.76232,-0.56851 -0.34158,0.18283 -0.45831,0.7447 -0.20693,0.99608 0.2889,0.2889 0.90646,0.0164 0.96925,-0.42757 z m 3.20855,-3.63698 c 2.07671,-1.50035 2.62712,-2.06016 2.3949,-2.43592 -0.19675,-0.31832 -0.74642,-0.20568 -1.963,0.40225 -1.32328,0.66125 -3.42074,2.496 -3.42074,2.9923 0,0.95893 0.60182,0.76589 2.98884,-0.95863 z"
       style="opacity:1;vector-effect:none;fill:#e5f0f8;fill-opacity:1;fill-rule:nonzero;stroke:none;stroke-width:0.07142857;stroke-linecap:butt;stroke-linejoin:miter;stroke-miterlimit:4;stroke-dasharray:none;stroke-dashoffset:0;stroke-opacity:1;paint-order:fill markers stroke"
       inkscape:connector-curvature="0"
       sodipodi:nodetypes="sssccccsccccccccccssccscccssc" />
    <text
       id="text1409"
       y="223.56906"
       x="165.30399"
       style="font-style:normal;font-variant:normal;font-weight:normal;font-stretch:normal;font-size:50.79999924px;line-height:2;font-family:'Noto Sans Lycian';-inkscape-font-specification:'Noto Sans Lycian';text-align:center;letter-spacing:0px;word-spacing:0px;text-anchor:middle;fill:#ff461e;fill-opacity:1;stroke:none;stroke-width:0.26458332"
       xml:space="preserve"><tspan
         style="font-style:normal;font-variant:normal;font-weight:normal;font-stretch:normal;font-size:14.11111069px;font-family:'Noto Sans Lycian';-inkscape-font-specification:'Noto Sans Lycian';fill:#ff461e;fill-opacity:1;stroke:none;stroke-width:0.26458332"
         y="223.56906"
         x="165.30399"
         id="tspan1407">uertas</tspan></text>
    <text
       xml:space="preserve"
       style="font-style:normal;font-variant:normal;font-weight:normal;font-stretch:normal;font-size:50.79999924px;line-height:2;font-family:'Noto Sans Lycian';-inkscape-font-specification:'Noto Sans Lycian';text-align:center;letter-spacing:0px;word-spacing:0px;text-anchor:middle;fill:#596a91;fill-opacity:1;stroke:none;stroke-width:0.26458332"
       x="168.95007"
       y="237.34343"
       id="text1413"><tspan
         id="tspan1411"
         x="168.95007"
         y="237.34343"
         style="font-style:normal;font-variant:normal;font-weight:normal;font-stretch:normal;font-size:14.11111069px;font-family:'Noto Sans Lycian';-inkscape-font-specification:'Noto Sans Lycian';fill:#596a91;fill-opacity:1;stroke:none;stroke-width:0.26458332">igitales</tspan></text>
    <path
       id="path1483"
       d="m 123.42348,225.76569 v -2.26787 h 2.03163 2.0316 v -19.13504 -19.13504 h 2.22062 2.2206 v 2.07886 c 0,1.14337 0.0347,2.07888 0.0771,2.07888 0.0424,0 0.16777,-0.15946 0.27858,-0.35435 0.35576,-0.62566 1.23407,-1.66151 1.88933,-2.22827 1.66847,-1.44309 3.51335,-2.10804 6.12635,-2.20811 1.61282,-0.0618 2.59345,0.0462 3.76888,0.41495 1.58507,0.49726 2.81001,1.25711 4.06908,2.52415 2.08053,2.0937 3.35698,4.83269 3.8852,8.33665 0.19619,1.30154 0.22251,4.79833 0.0458,6.08269 -0.50358,3.65996 -1.704,6.35146 -3.81974,8.56459 -1.20375,1.25913 -2.86634,2.31394 -4.15446,2.63575 l -0.25987,0.0649 v -2.24337 -2.24338 l 0.61769,-0.566 c 2.26095,-2.07174 3.39029,-5.91814 3.0684,-10.45051 -0.3589,-5.05341 -2.36974,-8.2246 -5.83118,-9.19604 -1.04179,-0.29239 -2.79418,-0.29247 -3.83558,-2.1e-4 -3.12066,0.87585 -5.04375,3.49591 -5.69905,7.76459 -0.20817,1.35594 -0.20806,4.13618 2.2e-4,5.60015 0.50223,3.53004 2.06263,6.12539 4.37033,7.26889 l 0.78909,0.39103 v 1.77993 c 0,0.97896 -0.0204,1.77993 -0.0451,1.77993 -0.0249,0 -0.33258,-0.10821 -0.68392,-0.24045 -1.47072,-0.55356 -3.07708,-1.88502 -4.09911,-3.39757 l -0.51081,-0.75594 -0.0241,9.662 -0.0241,9.66203 h -4.2518 -4.25178 z"
       style="opacity:1;vector-effect:none;fill:#ff461e;fill-opacity:1;fill-rule:nonzero;stroke:#000000;stroke-width:0.1;stroke-linecap:butt;stroke-linejoin:miter;stroke-miterlimit:4;stroke-dasharray:none;stroke-dashoffset:0;stroke-opacity:1;paint-order:fill markers stroke" />
    <path
       id="path1485"
       d="m 106.59027,229.05414 c -0.18148,-0.21868 -0.68376,-0.2835 -2.19652,-0.2835 h -1.96122 v -2.8348 -2.83482 h 1.96122 c 1.56379,0 2.01187,-0.061 2.21115,-0.30113 0.21146,-0.25479 0.62923,-0.28969 2.71621,-0.2269 2.15697,0.0649 2.61914,0.13848 3.68478,0.5865 0.67013,0.28175 1.28539,0.61775 1.36726,0.74663 0.11805,0.18587 0.14941,0.18547 0.15171,-0.003 0.003,-0.16446 0.3761,-0.23625 1.23132,-0.23625 h 1.22843 v 2.28055 2.28053 l -1.2936,-0.0419 c -0.71149,-0.023 -1.38684,0.0156 -1.5008,0.0861 -0.11395,0.0704 -0.76694,0.33874 -1.45105,0.59623 -1.07828,0.40588 -1.55461,0.46818 -3.57873,0.46818 -1.84491,0 -2.38426,-0.0595 -2.57016,-0.28347 z m -0.18899,-3.12515 v -2.4637 l -1.84264,0.0541 -1.84264,0.0541 -0.0529,2.4096 -0.0529,2.4096 h 1.89553 1.89553 z"
       style="opacity:1;vector-effect:none;fill:#ff461e;fill-opacity:1;fill-rule:nonzero;stroke:#000000;stroke-width:0.1;stroke-linecap:butt;stroke-linejoin:miter;stroke-miterlimit:4;stroke-dasharray:none;stroke-dashoffset:0;stroke-opacity:1;paint-order:fill markers stroke" />
    <path
       id="path1487"
       d="m 103.67,224.60791 0.0419,-0.50805 h 0.73498 0.73499 v 0.46773 0.4677 l -0.77687,0.0403 -0.77687,0.0403 z"
       style="opacity:1;vector-effect:none;fill:#ff461e;fill-opacity:1;fill-rule:nonzero;stroke:#000000;stroke-width:0.1;stroke-linecap:butt;stroke-linejoin:miter;stroke-miterlimit:4;stroke-dasharray:none;stroke-dashoffset:0;stroke-opacity:1;paint-order:fill markers stroke" />
    <path
       id="path1489"
       d="m 103.69982,227.32386 c -0.0417,-0.1088 -0.0561,-0.33745 -0.0319,-0.50819 0.0399,-0.28181 0.11166,-0.31038 0.77896,-0.31038 h 0.73499 v 0.4677 0.46773 l -0.70305,0.0405 c -0.52478,0.0302 -0.72234,-0.01 -0.77899,-0.15732 z"
       style="opacity:1;vector-effect:none;fill:#ff461e;fill-opacity:1;fill-rule:nonzero;stroke:#000000;stroke-width:0.1;stroke-linecap:butt;stroke-linejoin:miter;stroke-miterlimit:4;stroke-dasharray:none;stroke-dashoffset:0;stroke-opacity:1;paint-order:fill markers stroke" />
    <g
       style="stroke:#000000;stroke-width:0.07234501;stroke-miterlimit:4;stroke-dasharray:none;stroke-opacity:1"
       transform="matrix(1.3822653,0,0,1.3822653,869.21132,-298.28011)"
       id="g1507">
      <g
         transform="matrix(-1.0363202,-0.97395772,0.97395772,-1.0363202,-1377.9895,106.45496)"
         style="fill:#596a91;fill-opacity:1;stroke:#000000;stroke-width:0.05086964;stroke-miterlimit:4;stroke-dasharray:none;stroke-opacity:1"
         id="g1497">
        <path
           style="opacity:1;vector-effect:none;fill:#596a91;fill-opacity:1;fill-rule:nonzero;stroke:#000000;stroke-width:0.05086964;stroke-linecap:butt;stroke-linejoin:miter;stroke-miterlimit:4;stroke-dasharray:none;stroke-dashoffset:0;stroke-opacity:1;paint-order:fill markers stroke"
           d="m -551.91049,274.35246 c -0.57042,-0.21103 -1.37793,-0.81039 -1.72614,-1.28119 -0.83717,-1.13196 -0.75589,-2.61239 0.20166,-3.67228 0.52634,-0.58259 1.15586,-0.8468 2.19919,-0.92305 0.48075,-0.0351 0.87408,-0.106 0.87408,-0.15746 0,-0.0515 -0.19455,-0.73636 -0.43233,-1.52196 -0.48755,-1.61084 -0.58611,-2.24234 -0.42574,-2.72825 0.0608,-0.18418 0.45045,-0.73245 0.86593,-1.21838 0.8201,-0.95922 0.90559,-1.14035 0.78756,-1.66825 -0.043,-0.19209 -0.0788,-0.64688 -0.0797,-1.01068 0,-0.55571 0.0428,-0.74237 0.27599,-1.16753 0.35557,-0.64831 0.96435,-1.18195 1.64017,-1.43775 1.09091,-0.4129 2.65478,-0.0632 3.31854,0.74203 0.58391,0.70839 0.77751,2.08777 0.43683,3.11248 -0.21881,0.6581 -0.85622,1.35675 -1.49445,1.63803 -0.44384,0.19561 -0.62709,0.21789 -1.66113,0.20185 -1.36808,-0.0212 -1.42928,0.003 -2.25542,0.84892 l -0.58285,0.59767 0.45998,1.50225 c 0.253,0.82624 0.48408,1.56503 0.51356,1.64182 0.0372,0.0969 0.82637,-0.62289 2.57971,-2.35271 2.68933,-2.65324 4.31155,-4.14588 4.50572,-4.14588 0.23524,0 0.61902,0.45706 0.61902,0.73726 0,0.43055 -0.43071,0.94086 -2.86446,3.39362 -1.49918,1.51091 -2.22488,2.30492 -2.13624,2.33736 0.0738,0.027 0.81462,0.25884 1.64616,0.5152 l 1.51191,0.46606 0.87407,-0.86445 c 0.48072,-0.47545 0.87405,-0.90239 0.87405,-0.94877 0,-0.0463 -0.25154,-0.35322 -0.55898,-0.68186 -0.75033,-0.80213 -0.76883,-0.88852 -0.30753,-1.43663 0.51303,-0.60963 3.11984,-3.16328 3.44173,-3.37156 0.25524,-0.16515 0.26612,-0.16372 0.58055,0.0761 0.62976,0.48033 2.88581,2.72471 3.16965,3.15325 0.36947,0.55774 0.36423,0.84111 -0.0259,1.40965 -0.39539,0.57608 -2.70705,2.7214 -3.20757,2.97672 -0.48733,0.24863 -0.72181,0.18082 -1.23811,-0.35801 -0.53055,-0.55366 -0.61852,-0.5343 -1.66788,0.36719 -1.15102,0.98878 -1.43285,1.14737 -1.92016,1.08059 -0.21879,-0.03 -1.18248,-0.29049 -2.14159,-0.57888 -1.90702,-0.57344 -2.30426,-0.62307 -2.6719,-0.33391 -0.35549,0.27964 -0.44291,0.67501 -0.41899,1.89505 0.0206,1.04982 0.01,1.11543 -0.26303,1.64957 -0.33075,0.64683 -0.83272,1.07038 -1.61557,1.3633 -0.72271,0.2704 -1.23727,0.31739 -1.68037,0.15345 z m 1.32548,-1.68468 c 0.56663,-0.37867 0.81526,-0.82364 0.76076,-1.36152 -0.0764,-0.75361 -0.66292,-1.27251 -1.4519,-1.28444 -0.66509,-0.0101 -1.22886,0.51599 -1.32554,1.23687 -0.0433,0.32279 -0.007,0.46244 0.20058,0.77645 0.2408,0.36391 1.00311,0.93975 1.24402,0.93975 0.0619,0 0.31935,-0.1382 0.57208,-0.30711 z m 12.46973,-5.53619 c 0.5356,-0.38971 1.54969,-1.50561 1.54969,-1.70527 0,-0.17724 -0.91276,-1.28942 -1.59615,-1.94487 l -0.39073,-0.37476 -0.85408,0.84725 c -0.46974,0.46596 -0.94046,0.98552 -1.04603,1.15457 l -0.19195,0.30736 0.34522,0.4703 c 0.43119,0.58743 1.445,1.51357 1.6568,1.51357 0.0873,0 0.32454,-0.12067 0.52723,-0.26815 z m -7.60449,-5.64375 c 0.80909,-0.76091 0.71289,-1.89383 -0.20191,-2.3776 -0.50556,-0.26733 -0.95369,-0.27276 -1.48021,-0.0177 -0.69405,0.33596 -1.01137,1.01036 -0.7585,1.61213 0.0732,0.17428 0.33501,0.50239 0.58176,0.72916 0.44111,0.40534 0.45802,0.41159 1.00624,0.37193 0.45558,-0.0329 0.61158,-0.0911 0.85262,-0.31777 z"
           id="path1491" />
        <path
           style="opacity:1;vector-effect:none;fill:#596a91;fill-opacity:1;fill-rule:nonzero;stroke:#000000;stroke-width:0.05086964;stroke-linecap:butt;stroke-linejoin:miter;stroke-miterlimit:4;stroke-dasharray:none;stroke-dashoffset:0;stroke-opacity:1;paint-order:fill markers stroke"
           d="m -540.53433,260.78516 c -0.30271,-0.30271 -0.19209,-0.81474 0.23675,-1.0957 0.24045,-0.15756 0.2514,-0.15459 0.57118,0.15534 0.40169,0.38934 0.40891,0.57034 0.0353,0.88471 -0.34891,0.29361 -0.58939,0.30946 -0.8432,0.0557 z"
           id="path1493" />
        <path
           style="opacity:1;vector-effect:none;fill:#596a91;fill-opacity:1;fill-rule:nonzero;stroke:#000000;stroke-width:0.05086964;stroke-linecap:butt;stroke-linejoin:miter;stroke-miterlimit:4;stroke-dasharray:none;stroke-dashoffset:0;stroke-opacity:1;paint-order:fill markers stroke"
           d="m -537.52276,260.28187 c -1.12231,-0.98232 -2.7536,-2.72349 -3.01729,-3.22054 -0.21635,-0.4078 -0.21809,-0.4278 -0.053,-0.61018 0.23836,-0.26339 1.12009,-0.59841 2.75442,-1.04651 2.99072,-0.82005 3.32766,-0.74554 3.07925,0.68093 -0.15256,0.87601 -0.91586,3.50042 -1.20637,4.14777 -0.22979,0.51205 -0.43876,0.74081 -0.6767,0.74081 -0.0491,0 -0.44524,-0.31152 -0.88029,-0.69228 z m 0.81359,-2.53947 c 0.0883,-0.40024 0.13293,-0.77232 0.0992,-0.82683 -0.0337,-0.0545 -0.21566,-0.0992 -0.40436,-0.0992 -0.43673,0 -1.44116,0.20529 -1.44116,0.29456 0,0.0372 0.32617,0.41447 0.72482,0.83822 0.50686,0.5388 0.74531,0.73298 0.79293,0.64569 0.0374,-0.0687 0.14028,-0.45228 0.22855,-0.85248 z"
           id="path1495" />
      </g>
      <path
         id="path1501"
         d="m -563.61046,358.15818 c -0.0206,-0.0819 -0.0233,-0.88637 -0.006,-1.7877 0.0314,-1.65322 0.10458,-2.3086 0.26888,-2.41016 0.19424,-0.12003 1.07381,-0.2 2.19994,-0.2 1.21668,0 1.58212,0.0475 1.76386,0.22924 0.20995,0.20995 0.3564,1.83312 0.26496,2.93688 -0.0887,1.07036 -0.0613,1.00649 -0.47494,1.10984 -0.39375,0.0984 -1.50685,0.18658 -2.99507,0.23729 l -0.98406,0.0335 z"
         style="opacity:1;vector-effect:none;fill:#ff39e2;fill-opacity:1;fill-rule:nonzero;stroke:none;stroke-width:0.07234501;stroke-linecap:butt;stroke-linejoin:miter;stroke-miterlimit:4;stroke-dasharray:none;stroke-dashoffset:0;stroke-opacity:1;paint-order:fill markers stroke" />
      <path
         id="path1503"
         d="m -557.96864,371.14957 c -0.8221,-0.0942 -1.54681,-0.64524 -1.83964,-1.3989 -0.1932,-0.49726 -0.18932,-1.14334 0.009,-1.56242 0.28633,-0.60382 0.84948,-1.00768 1.59373,-1.14301 0.68856,-0.12518 1.01676,-0.023 1.69705,0.52835 0.5164,0.4185 0.55804,0.53236 0.55911,1.5289 0.002,0.96182 -0.0493,1.15909 -0.3898,1.52851 -0.40593,0.44038 -0.91058,0.60094 -1.62987,0.51857 z"
         style="opacity:1;vector-effect:none;fill:#42ff39;fill-opacity:1;fill-rule:nonzero;stroke:none;stroke-width:0.07234501;stroke-linecap:butt;stroke-linejoin:miter;stroke-miterlimit:4;stroke-dasharray:none;stroke-dashoffset:0;stroke-opacity:1;paint-order:fill markers stroke" />
      <path
         id="path1505"
         d="m -570.00459,364.2286 c -0.76248,-0.4132 -1.62849,-1.11294 -1.62849,-1.31583 0,-0.13368 0.47802,-0.53321 1.21331,-1.01409 0.38096,-0.24915 0.71102,-0.453 0.7335,-0.453 0.0952,0 0.12773,0.25598 0.1538,1.21094 0.0269,0.98365 -0.0134,1.7617 -0.091,1.75907 -0.0211,0 -0.19259,-0.0849 -0.38115,-0.18709 z"
         style="opacity:1;vector-effect:none;fill:#39b7ff;fill-opacity:1;fill-rule:nonzero;stroke:none;stroke-width:0.07234501;stroke-linecap:butt;stroke-linejoin:miter;stroke-miterlimit:4;stroke-dasharray:none;stroke-dashoffset:0;stroke-opacity:1;paint-order:fill markers stroke" />
    </g>
    <path
       id="path1509"
       d="m 127.48074,239.29839 c -3.46934,-0.37586 -6.48549,-2.62014 -8.16983,-6.07901 -1.23486,-2.53582 -1.44719,-3.6654 -1.44544,-7.68906 0.003,-3.98232 0.1765,-4.89669 1.43796,-7.52271 0.98747,-2.05573 2.86101,-4.06752 4.65812,-5.00184 2.26332,-1.17673 2.12254,-1.25574 2.12254,1.19092 v 2.10997 l -0.94195,0.84688 c -1.13328,1.01893 -2.15124,2.96455 -2.55349,4.8805 -0.36359,1.73173 -0.3625,5.36779 0.003,7.10113 0.61171,2.9079 2.07893,5.0257 4.20801,6.07385 1.18454,0.58314 1.38366,0.62116 3.25406,0.62116 1.86965,0 2.06989,-0.0382 3.2517,-0.61999 2.11651,-1.04196 3.55925,-3.02821 4.24254,-5.84081 0.42942,-1.76758 0.43191,-5.75572 0.005,-7.48877 -0.64746,-2.62641 -2.17463,-4.85061 -3.99285,-5.81517 l -0.86024,-0.45635 v -1.64929 -1.6493 l 0.46604,0.17719 c 1.58572,0.60291 3.23069,1.85412 4.08328,3.10589 0.25236,0.37058 0.52266,0.67432 0.60061,0.67503 0.078,0 0.14174,-4.03833 0.14174,-8.97564 v -8.97695 h 4.15774 4.15774 v 2.26788 2.26785 h -1.98437 -1.98438 v 17.95386 17.95388 h -2.17337 -2.17336 l -0.009,-2.03163 -0.009,-2.03163 -0.50271,0.66146 c -0.84005,1.10535 -2.21321,2.34183 -3.18706,2.86983 -1.73895,0.94284 -4.28464,1.34363 -6.8021,1.07087 z"
       style="opacity:1;vector-effect:none;fill:#596a91;fill-opacity:1;fill-rule:nonzero;stroke:#000000;stroke-width:0.07142857;stroke-linecap:butt;stroke-linejoin:miter;stroke-miterlimit:4;stroke-dasharray:none;stroke-dashoffset:0;stroke-opacity:1;paint-order:fill markers stroke" />
    <path
       id="path1545"
       d="m 159.65493,207.0829 c -0.34211,-0.0403 -0.55666,-0.12745 -0.63219,-0.2568 -0.15115,-0.25878 -0.2134,-0.97938 -0.24967,-2.88979 l -0.0235,-1.23318 -0.76677,0.0205 c -0.42172,0.0113 -1.41917,0.03 -2.21655,0.0417 l -1.4498,0.0213 v -2.25534 -2.25534 l 0.95804,-0.0247 c 0.52694,-0.0134 3.25483,-0.0266 6.06202,-0.0293 5.26277,-0.005 5.6524,0.004 5.9556,0.13037 0.0607,0.0253 0.13297,0.0899 0.16062,0.1433 0.1416,0.2738 0.22556,1.13918 0.22476,2.316 -8e-4,1.2493 -0.0826,1.57726 -0.44007,1.76606 -0.0521,0.0275 -0.25019,0.0503 -0.51384,0.0588 l -0.42905,0.0142 -0.0163,1.70023 c -0.0103,1.07111 -0.0312,1.79436 -0.0567,1.9546 -0.10981,0.69019 -0.23357,0.7416 -1.85372,0.7702 l -1.02145,0.0179 -0.0241,-0.86044 c -0.0353,-1.26117 -0.10311,-1.6287 -0.34588,-1.87146 -0.11713,-0.11714 -0.38242,-0.2128 -0.4941,-0.17815 -0.024,0.007 -0.0843,0.0224 -0.13421,0.0333 -0.12727,0.0277 -0.29004,0.17376 -0.37129,0.33303 -0.13538,0.26539 -0.17291,0.5703 -0.19516,1.58588 l -0.0213,0.96654 -0.93263,0.004 c -0.51293,0.003 -1.04076,-0.008 -1.17295,-0.024 z"
       style="opacity:1;vector-effect:none;fill:#596a91;fill-opacity:1;fill-rule:nonzero;stroke:#000000;stroke-width:0.1015104;stroke-linecap:butt;stroke-linejoin:miter;stroke-miterlimit:4;stroke-dasharray:none;stroke-dashoffset:0;stroke-opacity:1;paint-order:fill markers stroke"
       inkscape:connector-curvature="0" />
    <path
       id="path1553"
       d="m 171.50007,207.47637 c -1.03228,-0.24389 -1.09065,-0.40702 -0.79592,-2.22438 0.38192,-2.35487 0.34702,-3.18723 -0.16516,-3.94098 -0.85631,-1.26017 -0.96596,-3.17431 -0.2494,-4.35267 0.3792,-0.62351 1.63807,-1.48261 2.5908,-1.76813 1.22451,-0.36691 3.26131,0.68973 3.99161,2.07077 0.57042,1.07868 0.51338,1.98686 -0.22801,3.62884 -0.6694,1.48262 -0.66274,1.3763 -0.31389,4.96961 0.0546,0.56156 0.0319,1.11862 -0.0498,1.23783 -0.30797,0.44811 -3.43764,0.69627 -4.78021,0.37911 z m 3.0213,-2.00835 c 0.10554,-0.19707 0.10325,-0.78848 -0.008,-1.65924 -0.21594,-1.71238 -0.12555,-2.26438 0.52664,-3.21213 0.28856,-0.41944 0.56956,-0.98711 0.62446,-1.26148 0.19051,-0.9525 -0.80516,-2.31393 -1.94593,-2.66093 -0.78571,-0.23896 -2.41136,1.26748 -2.41303,2.23612 -2.7e-4,0.20285 0.26737,0.87401 0.59496,1.49151 0.58383,1.10046 0.59565,1.16278 0.59565,3.13415 0,1.10627 0.0511,2.06241 0.11345,2.12484 0.0626,0.0623 0.48087,0.11344 0.92997,0.11344 0.61214,0 0.85764,-0.0768 0.98049,-0.30629 z"
       style="opacity:1;vector-effect:none;fill:#596a91;fill-opacity:1;fill-rule:nonzero;stroke:#000000;stroke-width:0.11458825;stroke-linecap:butt;stroke-linejoin:miter;stroke-miterlimit:4;stroke-dasharray:none;stroke-dashoffset:0;stroke-opacity:1;paint-order:fill markers stroke"
       inkscape:connector-curvature="0" />
    <path
       id="path1590"
       d="m 172.94956,205.64492 c -0.14292,-0.0246 -0.26457,-0.0525 -0.27032,-0.062 -0.006,-0.01 -0.0384,-0.93157 -0.0726,-2.04896 l -0.0621,-2.03163 -0.5599,-1.17401 c -0.3659,-0.76721 -0.55677,-1.28466 -0.55086,-1.49333 0.023,-0.81048 1.56624,-2.23695 2.23776,-2.06841 0.71485,0.17941 1.64044,1.15895 1.85776,1.96598 0.12686,0.47115 0.0532,0.70052 -0.57576,1.79205 -0.6191,1.07448 -0.7201,1.58158 -0.57741,2.89886 0.14766,1.36321 0.14027,1.95122 -0.0263,2.08944 -0.14851,0.12324 -0.98995,0.20259 -1.40032,0.13203 z"
       style="opacity:1;vector-effect:none;fill:#ffffff;fill-opacity:1;fill-rule:nonzero;stroke:none;stroke-width:0.03571428;stroke-linecap:butt;stroke-linejoin:miter;stroke-miterlimit:4;stroke-dasharray:none;stroke-dashoffset:0;stroke-opacity:1;paint-order:fill markers stroke"
       inkscape:connector-curvature="0" />
    <g
       id="g849"
       transform="translate(-43.060447,26.316283)"
       style="fill:#596a91;fill-opacity:1">
      <path
         transform="matrix(0.26458333,0,0,0.26458333,73.886836,181.3642)"
         inkscape:connector-curvature="0"
         id="path840"
         d="m 447.27031,14.08256 c 0.5813,-0.537821 1.60084,-1.755491 1.60084,-1.755491 l 73.13388,-1.257279 56.55781,-0.161555 4.37371,-2.1706805 c 5.18797,-2.5747981 7.08453,-3.7506671 10.10745,-6.2666068 4.76481,-3.9656932 8.7309,-10.2124675 10.33671,-16.2808167 0.67108,-2.535973 0.77224,-3.491689 0.77224,-7.295649 0,-5.5428 -0.72213,-8.561923 -3.28062,-13.715821 -4.91432,-9.899528 -12.35144,-15.020125 -26.48932,-18.238385 -2.21339,-0.503844 -4.3308,-1.114306 -4.70534,-1.356585 -0.94161,-0.609097 -1.42462,-1.912555 -2.41022,-6.504247 -1.45772,-6.791149 -3.20845,-11.088162 -6.58276,-16.156771 -2.12096,-3.18593 -6.44164,-7.723074 -9.36573,-9.834949 -4.64512,-3.354863 -10.18541,-5.877891 -15.80105,-7.195739 -4.31697,-1.013084 -11.6647,-1.262098 -16.2038,-0.549147 -10.20709,1.603217 -18.75286,6.104369 -25.00195,13.168808 -5.15664,5.829455 -8.47908,12.749984 -10.30013,21.454832 -0.65212,3.117166 -1.54092,5.530394 -2.18304,5.927248 -0.14336,0.0886 -2.23845,0.615155 -4.65575,1.170118 -4.65058,1.06768 -8.54324,3.487157 -9.76927,4.367972 -1.22603,0.880816 -4.52002,3.632238 -4.52002,3.632238 0,0 -0.19256,-2.383495 -0.7071,-4.526434 -0.23533,-0.980088 -0.92808,-3.465776 -0.92808,-3.465776 l 5.9757,-1.725662 c 0.97749,-0.43867 3.04915,-1.225917 4.6037,-1.749435 5.72253,-1.927155 6.1175,-2.387834 8.64311,-10.081205 1.74127,-5.304146 2.73174,-7.621687 4.68082,-10.952438 4.22807,-7.225254 10.37375,-12.732083 19.18689,-17.192397 4.78362,-2.420977 8.54049,-3.745208 11.98002,-4.222742 3.56431,-0.494856 16.81671,-0.408018 19.90438,0.130427 8.33181,1.452947 19.71505,8.250039 25.73174,15.364781 4.9716,5.878932 7.90622,11.679557 9.71709,19.206977 1.21876,5.066117 1.62337,5.469493 7.14939,7.127526 4.26977,1.281107 5.94035,1.926953 9.33843,3.610249 9.43511,4.673838 17.04271,13.138172 20.1147,22.379942 2.46878,7.427093 2.10673,15.378128 -1.01363,22.2599189 -2.62088,5.7802379 -9.07554,13.4522465 -14.57777,17.3271439 -2.78655,1.9624072 -4.14728,2.6944702 -8.64164,4.6491352 l -4.05279,1.762617 -55.15511,0.265168 c -30.33531,0.14584 -56.10719,0.270032 -57.27084,0.27598 l -23.01124,0.692028 c 0,0 1.87549,-1.337251 2.71859,-2.117298 z"
         style="opacity:1;vector-effect:none;fill:#596a91;fill-opacity:1;fill-rule:nonzero;stroke:none;stroke-width:0.11029643;stroke-linecap:butt;stroke-linejoin:miter;stroke-miterlimit:4;stroke-dasharray:none;stroke-dashoffset:0;stroke-opacity:1;paint-order:fill markers stroke"
         sodipodi:nodetypes="scccsscsssccsssssccszcscccscsssssssscsscsccs" />
      <path
         transform="matrix(0.26458333,0,0,0.26458333,73.886836,181.3642)"
         inkscape:connector-curvature="0"
         id="path842"
         d="m 497.4128,-72.89287 c -0.78704,-0.869669 -0.38162,-1.805013 1.77179,-4.087739 6.00952,-6.370408 17.91583,-12.283875 17.91583,-8.898196 0,1.132268 -1.98886,3.042708 -5.01395,4.816251 -2.91451,1.70872 -6.12017,4.006142 -8.70187,6.236444 -2.83231,2.44679 -4.90098,3.116478 -5.9718,1.93324 z"
         style="opacity:1;vector-effect:none;fill:#596a91;fill-opacity:1;fill-rule:nonzero;stroke:none;stroke-width:0.11029643;stroke-linecap:butt;stroke-linejoin:miter;stroke-miterlimit:4;stroke-dasharray:none;stroke-dashoffset:0;stroke-opacity:1;paint-order:fill markers stroke" />
      <path
         transform="matrix(0.26458333,0,0,0.26458333,73.886836,181.3642)"
         inkscape:connector-curvature="0"
         id="path844"
         d="m 492.58052,-63.220969 c -0.54823,-0.443926 -0.6013,-0.630275 -0.326,-1.144672 0.44702,-0.835281 1.75215,-1.826991 2.40438,-1.826991 0.99378,0 1.58303,2.356721 0.78803,3.151721 -0.52308,0.52308 -2.12212,0.422634 -2.86641,-0.180058 z"
         style="opacity:1;vector-effect:none;fill:#596a91;fill-opacity:1;fill-rule:nonzero;stroke:none;stroke-width:0.11029643;stroke-linecap:butt;stroke-linejoin:miter;stroke-miterlimit:4;stroke-dasharray:none;stroke-dashoffset:0;stroke-opacity:1;paint-order:fill markers stroke" />
    </g>
  </g>
</svg>
