<?xml version="1.0" encoding="UTF-8" standalone="no"?>
<svg
   xmlns:dc="http://purl.org/dc/elements/1.1/"
   xmlns:cc="http://creativecommons.org/ns#"
   xmlns:rdf="http://www.w3.org/1999/02/22-rdf-syntax-ns#"
   xmlns:svg="http://www.w3.org/2000/svg"
   xmlns="http://www.w3.org/2000/svg"
   id="svg1931"
   version="1.1"
   viewBox="0 0 135.20789 38.561024"
   height="38.561024mm"
   width="135.20789mm">
  <defs
     id="defs1925" />
  <metadata
     id="metadata1928">
    <rdf:RDF>
      <cc:Work
         rdf:about="">
        <dc:format>image/svg+xml</dc:format>
        <dc:type
           rdf:resource="http://purl.org/dc/dcmitype/StillImage" />
        <dc:title></dc:title>
      </cc:Work>
    </rdf:RDF>
  </metadata>
  <g
     transform="translate(-38.985345,-238.40997)"
     id="layer1">
    <g
       transform="matrix(1.5899421,0,0,-1.5899421,38.985345,276.97099)"
       id="g10">
      <g
         transform="scale(0.1)"
         id="g12">
        <path
           id="path14"
           style="fill:#ffffff;fill-opacity:1;fill-rule:nonzero;stroke:none"
           d="m 238.824,22.9414 h -5.133 l -3.55,10.0977 h -15.668 l -3.551,-10.0977 h -4.891 l 13.188,36.2305 h 6.422 z m -10.168,14.2305 -6.347,17.7812 -6.375,-17.7812 z" />
        <path
           id="path16"
           style="fill:#ffffff;fill-opacity:1;fill-rule:nonzero;stroke:none"
           d="M 268.023,59.1719 255.273,38.8281 V 22.9414 h -4.816 V 38.3125 L 237.66,59.1719 h 5.328 l 9.903,-16.211 10,16.211 h 5.132" />
        <path
           id="path18"
           style="fill:#ffffff;fill-opacity:1;fill-rule:nonzero;stroke:none"
           d="m 300.309,37.4922 c 0,-2.6367 -0.293,-4.9219 -0.868,-6.875 -0.574,-1.9531 -1.523,-3.5859 -2.836,-4.8828 -1.246,-1.2305 -2.703,-2.1289 -4.375,-2.6953 -1.675,-0.5664 -3.617,-0.8516 -5.839,-0.8516 -2.274,0 -4.254,0.2969 -5.938,0.8984 -1.687,0.5977 -3.105,1.4844 -4.258,2.6485 -1.312,1.3281 -2.254,2.9375 -2.832,4.8242 -0.574,1.8867 -0.863,4.1914 -0.863,6.9336 v 21.6797 h 4.813 V 37.25 c 0,-1.9648 0.136,-3.5156 0.402,-4.6484 0.269,-1.1446 0.719,-2.1719 1.351,-3.0977 0.715,-1.0547 1.68,-1.8476 2.907,-2.3828 1.226,-0.5273 2.695,-0.8008 4.418,-0.8008 1.734,0 3.207,0.2656 4.429,0.7891 1.215,0.5312 2.188,1.3281 2.918,2.3945 0.633,0.9258 1.082,1.9805 1.348,3.1836 0.269,1.1914 0.402,2.6641 0.402,4.4336 v 22.0508 h 4.821 V 37.4922" />
        <path
           id="path20"
           style="fill:#ffffff;fill-opacity:1;fill-rule:nonzero;stroke:none"
           d="m 337.137,22.9414 h -5.961 L 314.004,55.3438 V 22.9414 H 309.5 v 36.2305 h 7.469 L 332.637,29.582 v 29.5899 h 4.5 V 22.9414" />
        <path
           id="path22"
           style="fill:#ffffff;fill-opacity:1;fill-rule:nonzero;stroke:none"
           d="M 372.605,54.8828 H 359.664 V 22.9414 h -4.816 v 31.9414 h -12.946 v 4.2891 h 30.703 v -4.2891" />
        <path
           id="path24"
           style="fill:#ffffff;fill-opacity:1;fill-rule:nonzero;stroke:none"
           d="m 403.145,22.9414 h -5.137 l -3.551,10.0977 h -15.668 l -3.551,-10.0977 h -4.886 l 13.183,36.2305 h 6.422 z m -10.172,14.2305 -6.348,17.7812 -6.371,-17.7812 z" />
        <path
           id="path26"
           style="fill:#ffffff;fill-opacity:1;fill-rule:nonzero;stroke:none"
           d="m 440.902,22.9414 h -4.82 V 54.1523 L 426.016,32.9141 h -2.883 l -9.988,21.2382 V 22.9414 h -4.504 v 36.2305 h 6.562 l 9.66,-20.1758 9.344,20.1758 h 6.695 V 22.9414" />
        <path
           id="path28"
           style="fill:#ffffff;fill-opacity:1;fill-rule:nonzero;stroke:none"
           d="m 463.402,22.9414 h -14.297 v 3.6992 h 4.747 v 28.8203 h -4.747 v 3.711 h 14.297 v -3.711 h -4.746 V 26.6406 h 4.746 v -3.6992" />
        <path
           id="path30"
           style="fill:#ffffff;fill-opacity:1;fill-rule:nonzero;stroke:none"
           d="m 495.473,22.9414 h -23.868 v 36.2305 h 23.868 V 54.8828 H 476.41 v -9.9219 h 19.063 V 40.6758 H 476.41 v -13.457 h 19.063 v -4.2774" />
        <path
           id="path32"
           style="fill:#ffffff;fill-opacity:1;fill-rule:nonzero;stroke:none"
           d="m 530.746,22.9414 h -5.957 L 507.602,55.3438 V 22.9414 h -4.493 v 36.2305 h 7.461 L 526.234,29.582 v 29.5899 h 4.512 V 22.9414" />
        <path
           id="path34"
           style="fill:#ffffff;fill-opacity:1;fill-rule:nonzero;stroke:none"
           d="M 566.215,54.8828 H 553.266 V 22.9414 h -4.805 v 31.9414 h -12.949 v 4.2891 h 30.703 v -4.2891" />
        <path
           id="path36"
           style="fill:#ffffff;fill-opacity:1;fill-rule:nonzero;stroke:none"
           d="m 596.879,55 c 1.484,-1.6172 2.617,-3.6016 3.398,-5.9531 0.782,-2.3555 1.192,-5.0235 1.192,-8.0078 0,-2.9805 -0.41,-5.6563 -1.211,-8.0078 -0.801,-2.3672 -1.934,-4.3282 -3.379,-5.9102 -1.484,-1.6289 -3.242,-2.8633 -5.293,-3.6914 -2.031,-0.8281 -4.356,-1.2422 -6.953,-1.2422 -2.559,0 -4.863,0.4219 -6.953,1.2617 -2.09,0.8477 -3.848,2.0703 -5.313,3.6719 -1.465,1.6133 -2.578,3.582 -3.379,5.918 -0.781,2.3359 -1.172,5 -1.172,8 0,2.9453 0.391,5.6015 1.172,7.9453 0.782,2.3437 1.914,4.3476 3.399,6.0156 1.426,1.5938 3.203,2.8047 5.312,3.6563 2.129,0.8359 4.434,1.2578 6.934,1.2578 2.597,0 4.922,-0.4219 6.992,-1.2696 2.07,-0.8476 3.828,-2.0703 5.254,-3.6445 z m -0.43,-13.9609 c 0,4.7031 -1.054,8.3281 -3.164,10.8867 -2.109,2.5586 -4.98,3.8398 -8.633,3.8398 -3.691,0 -6.582,-1.2812 -8.672,-3.8398 -2.109,-2.5586 -3.144,-6.1836 -3.144,-10.8867 0,-4.75 1.055,-8.3907 3.203,-10.9102 2.149,-2.5195 5,-3.7773 8.613,-3.7773 3.594,0 6.465,1.2578 8.594,3.7773 2.129,2.5195 3.203,6.1602 3.203,10.9102" />
        <path
           id="path38"
           style="fill:#ffffff;fill-opacity:1;fill-rule:nonzero;stroke:none"
           d="m 657.23,41.0156 c 0,-3.289 -0.722,-6.2773 -2.167,-8.9531 -1.426,-2.6758 -3.34,-4.7461 -5.723,-6.2305 -1.66,-1.0156 -3.496,-1.7578 -5.547,-2.207 -2.031,-0.4609 -4.707,-0.6836 -8.027,-0.6836 h -9.161 v 36.2305 h 9.063 c 3.535,0 6.348,-0.2656 8.437,-0.7735 2.071,-0.5156 3.829,-1.2109 5.274,-2.1093 2.48,-1.5313 4.394,-3.5821 5.781,-6.1485 1.367,-2.5625 2.07,-5.6093 2.07,-9.125 z m -5.039,0.0703 c 0,2.8438 -0.507,5.2344 -1.484,7.1797 -0.996,1.9532 -2.48,3.4766 -4.434,4.5977 -1.425,0.8086 -2.949,1.3789 -4.55,1.6914 -1.602,0.3203 -3.535,0.4766 -5.762,0.4766 H 631.43 V 27.082 h 4.531 c 2.324,0 4.336,0.168 6.074,0.5078 1.719,0.3399 3.301,0.9649 4.746,1.8946 1.797,1.1523 3.145,2.664 4.063,4.5508 0.898,1.875 1.347,4.2304 1.347,7.0507" />
        <path
           id="path40"
           style="fill:#ffffff;fill-opacity:1;fill-rule:nonzero;stroke:none"
           d="m 688.871,22.9414 h -23.867 v 36.2305 h 23.867 v -4.2891 h -19.043 v -9.9219 h 19.043 v -4.2851 h -19.043 v -13.457 h 19.043 v -4.2774" />
        <path
           id="path42"
           style="fill:#ffffff;fill-opacity:1;fill-rule:nonzero;stroke:none"
           d="m 736.938,22.9414 h -22.911 v 36.2305 h 4.805 V 27.2188 h 18.106 v -4.2774" />
        <path
           id="path44"
           style="fill:#ffffff;fill-opacity:1;fill-rule:nonzero;stroke:none"
           d="m 765.629,22.9414 h -23.867 v 36.2305 h 23.867 v -4.2891 h -19.063 v -9.9219 h 19.063 v -4.2851 h -19.063 v -13.457 h 19.063 v -4.2774" />
        <path
           id="path46"
           style="fill:#ffffff;fill-opacity:1;fill-rule:nonzero;stroke:none"
           d="m 800.258,55 c 1.484,-1.6172 2.617,-3.6016 3.398,-5.9531 0.801,-2.3555 1.192,-5.0235 1.192,-8.0078 0,-2.9805 -0.41,-5.6563 -1.211,-8.0078 -0.801,-2.3672 -1.934,-4.3282 -3.379,-5.9102 -1.485,-1.6289 -3.242,-2.8633 -5.274,-3.6914 -2.05,-0.8281 -4.375,-1.2422 -6.972,-1.2422 -2.559,0 -4.864,0.4219 -6.953,1.2617 -2.09,0.8477 -3.848,2.0703 -5.313,3.6719 -1.465,1.6133 -2.578,3.582 -3.379,5.918 -0.781,2.3359 -1.172,5 -1.172,8 0,2.9453 0.391,5.6015 1.172,7.9453 0.781,2.3437 1.914,4.3476 3.399,6.0156 1.425,1.5938 3.203,2.8047 5.312,3.6563 2.129,0.8359 4.434,1.2578 6.934,1.2578 2.597,0 4.922,-0.4219 6.992,-1.2696 2.07,-0.8476 3.828,-2.0703 5.254,-3.6445 z m -0.43,-13.9609 c 0,4.7031 -1.055,8.3281 -3.164,10.8867 -2.109,2.5586 -4.98,3.8398 -8.633,3.8398 -3.691,0 -6.582,-1.2812 -8.672,-3.8398 -2.109,-2.5586 -3.144,-6.1836 -3.144,-10.8867 0,-4.75 1.055,-8.3907 3.203,-10.9102 2.148,-2.5195 5.02,-3.7773 8.613,-3.7773 3.594,0 6.465,1.2578 8.594,3.7773 2.148,2.5195 3.203,6.1602 3.203,10.9102 z m -5.078,31.7461 -6.641,-9.0899 h -3.632 l 4.355,9.0899 h 5.918" />
        <path
           id="path48"
           style="fill:#ffffff;fill-opacity:1;fill-rule:nonzero;stroke:none"
           d="m 840.121,22.9414 h -5.957 L 816.977,55.3438 V 22.9414 h -4.493 v 36.2305 h 7.461 L 835.609,29.582 v 29.5899 h 4.512 V 22.9414" />
        <path
           id="path50"
           style="fill:#fab93d;fill-opacity:1;fill-rule:nonzero;stroke:none"
           d="m 5.90625,166.133 -1.48828,-2.867 c 0,0 4.68359,1.687 4.46484,-3.43 l 1.82029,4.187 c 0,0 -1.05857,3.204 -4.79685,2.11 0,0 3.73828,1.094 0,0" />
        <path
           id="path52"
           style="fill:#fab93d;fill-opacity:1;fill-rule:nonzero;stroke:none"
           d="m 24.9961,189.582 3.2227,2.449 c 0,0 0,-4.336 3.6835,-5.289 l -3.6132,-2.668 c 0,0 -3.293,2.227 -3.293,5.508 0,0 0,-3.281 0,0" />
        <path
           id="path54"
           style="fill:#fab93d;fill-opacity:1;fill-rule:nonzero;stroke:none"
           d="m 53.5742,34.6797 c 0,0 4.6524,-1.8828 -0.5586,-5.8399 l 4.1485,-1.582 c 0,0 4.8906,2.4805 1.5234,5.9844 l -4.293,1.3008" />
        <path
           id="path56"
           style="fill:#fab93d;fill-opacity:1;fill-rule:nonzero;stroke:none"
           d="m 161.914,166.133 1.488,-2.867 c 0,0 -4.695,1.687 -4.476,-3.43 l -1.809,4.187 c 0,0 1.055,3.204 4.797,2.11 0,0 -3.742,1.094 0,0" />
        <path
           id="path58"
           style="fill:#fab93d;fill-opacity:1;fill-rule:nonzero;stroke:none"
           d="m 142.828,189.582 -3.183,2.449 c 0,0 0,-4.336 -3.747,-5.289 l 3.61,-2.668 c 0,0 3.32,2.227 3.32,5.508 0,0 0,-3.281 0,0" />
        <path
           id="path60"
           style="fill:#fab93d;fill-opacity:1;fill-rule:nonzero;stroke:none"
           d="m 114.258,34.6797 c 0,0 -4.621,-1.8828 0.543,-5.8399 l -4.141,-1.582 c 0,0 -4.875,2.4805 -1.519,5.9844 l 4.316,1.3008" />
        <path
           id="path62"
           style="fill:#fab93d;fill-opacity:1;fill-rule:nonzero;stroke:none"
           d="m 84.0078,185.891 c 3.6133,0 15.211,-0.547 15.211,-0.547 1.7072,-5.344 8.9492,-5.555 8.9492,-5.555 h 22.422 c 15.656,1.172 14.269,13.219 14.269,13.219 l 8.211,-5.547 c 0,0 3.508,-2.656 -3.515,-10.352 l 2.218,-2.187 c 0,0 7.918,5.637 10.567,0 l 4.574,-10.047 c 0,0 -1.719,2.891 -5,3.078 -4.418,0.242 -11.078,-3.281 -9.492,-16.223 0,0 -7.902,-1.386 -7.774,-10.332 v -11.906 c 0,0 -1.187,-6.082 5.665,-6.851 v -0.032 6.008 c 0,3.399 2.457,6.289 5.855,6.289 3.441,0 6.215,-2.797 6.215,-6.203 L 162.418,115 c 0,3.422 -3.234,6.242 -6.66,6.242 -2.41,0 -4.149,-1.328 -4.957,-3.301 l -0.051,-0.128 c -0.18,-0.477 -0.258,-1.016 -0.258,-1.563 v -0.156 c 0,-2.625 2.145,-4.793 4.778,-4.793 2.656,0 4.773,2.168 4.773,4.793 0,1.105 -0.328,2.07 -0.918,2.863 l 0.176,-0.176 c 1.476,-1.133 2.308,-3.008 2.308,-5.226 0,-3.289 -3.183,-5.75 -6.449,-5.75 h -4.703 v -0.313 -2.48 l 0.02,-0.051 h 4.683 c 3.278,0 6.449,-2.461 6.449,-5.7501 0,-2.2461 -0.793,-4.0625 -2.308,-5.2148 l -0.153,-0.207 c 0.567,0.8203 0.938,1.7968 0.938,2.8632 0,2.6563 -2.148,4.7927 -4.797,4.7927 -2.652,0 -4.773,-2.1364 -4.773,-4.7927 v -0.1562 c 0,-0.5352 0.07,-1.0664 0.234,-1.5039 l 0.086,-0.1758 c 0.805,-1.9805 2.527,-3.3008 4.949,-3.3008 3.399,0 6.653,2.8321 6.653,6.2696 l -0.047,-13.7305 c 0,-3.4063 -2.774,-6.1719 -6.172,-6.1719 -3.41,0 -5.883,2.8828 -5.883,6.3086 v 5.9883 h -0.086 l -0.02,-0.0313 c -5.562,-0.2812 -5.652,-6.8359 -5.652,-6.8359 L 144.648,83 c 0,0 -0.285,-8.7969 5.938,-9.0039 0,0 -0.656,-7.793 4.437,-9.8633 0,0 4.332,-3.5469 8.977,-1.6211 l -6.715,-13.9062 c 0,0 -9.125,1.3008 -10.269,5.1367 l -4.77,-4.9609 c 0,0 5.406,-0.9571 9.938,-11.8672 l -12.332,-8.4375 c 0,0 -1.625,13.2343 -14.418,12.4531 0,0 -8.297,12.168 -17.098,0 0,0 -7.535,-13.125 4.445,-15.9766 L 97.6172,22.2109 c 0,0 -7.0469,3.375 -4.0039,14.7032 0,0 -3.332,-2.5547 -9.543,-2.5547 h -0.0469 -0.2265 -0.043 c -6.2305,0 -9.5469,2.5547 -9.5469,2.5547 3.0547,-11.3282 -3.9961,-14.7032 -3.9961,-14.7032 l -15.1914,2.7422 c 12,2.8516 4.4766,15.9766 4.4766,15.9766 -8.7695,12.168 -17.1328,0 -17.1328,0 C 29.5781,41.7109 27.9961,28.4766 27.9961,28.4766 l -12.3047,8.4375 c 4.4492,10.9101 9.9141,11.8672 9.9141,11.8672 l -4.8399,4.9609 C 19.6523,49.9063 10.5508,48.6055 10.5508,48.6055 L 3.83203,62.5117 c 4.64063,-1.9258 8.96877,1.6211 8.96877,1.6211 5.0898,2.0703 4.4219,9.8633 4.4219,9.8633 C 23.4648,74.2031 23.1602,83 23.1602,83 l 0.0859,0.3125 c 0,0 -0.0859,6.5547 -5.6641,6.8359 v 0.0313 H 17.5 v -5.9883 c 0,-3.4258 -2.4805,-6.3086 -5.8789,-6.3086 -3.42969,0 -6.18751,2.7656 -6.18751,6.1719 L 5.39063,97.7852 c 0,-3.4375 3.22656,-6.2696 6.66407,-6.2696 2.4023,0 4.1328,1.3203 4.9336,3.3008 l 0.082,0.1758 c 0.1524,0.4375 0.2344,0.9687 0.2344,1.5039 v 0.1562 c 0,2.6563 -2.1094,4.7927 -4.75,4.7927 -2.67189,0 -4.80079,-2.1364 -4.80079,-4.7927 0,-1.0664 0.37109,-2.0429 0.97656,-2.8632 l -0.21875,0.207 c -1.49609,1.1523 -2.30078,2.9687 -2.30078,5.2148 0,3.2891 3.18359,5.7501 6.48046,5.7501 h 4.6797 v 0.051 2.48 0.313 h -4.6523 c -3.29692,0 -6.50786,2.461 -6.50786,5.75 0,2.218 0.83984,4.093 2.30078,5.226 l 0.21875,0.176 c -0.60547,-0.793 -0.96094,-1.758 -0.96094,-2.863 0,-2.625 2.15235,-4.793 4.80857,-4.793 2.6172,0 4.7266,2.168 4.7266,4.793 l 0.0469,0.156 c 0,0.547 -0.1016,1.086 -0.2813,1.563 l -0.082,0.128 c -0.7695,1.973 -2.4922,3.301 -4.918,3.301 -3.42186,0 -6.67967,-2.82 -6.67967,-6.242 l 0.05859,13.703 c 0,3.406 2.74219,6.203 6.19528,6.203 3.3907,0 5.8555,-2.89 5.8555,-6.289 v -6.008 l 0.0156,0.032 c 6.8555,0.769 5.6446,6.851 5.6446,6.851 v 11.906 c 0.1289,8.946 -7.7461,10.332 -7.7461,10.332 1.5742,12.942 -5.1016,16.465 -9.50785,16.223 -3.24219,-0.187 -5.019531,-3.078 -5.019531,-3.078 l 4.601561,10.047 c 2.67188,5.637 10.56642,0 10.56642,0 l 2.2266,2.187 c -7.0547,7.696 -3.5118,10.352 -3.5118,10.352 l 8.1993,5.547 c 0,0 -1.3829,-12.047 14.2734,-13.219 h 22.4101 c 0,0 7.2618,0.211 9,5.555 0,0 11.5391,0.547 15.1758,0.547 h 0.1797" />
        <path
           id="path64"
           style="fill:#fab93d;fill-opacity:1;fill-rule:nonzero;stroke:none"
           d="m 47.3477,194.566 -7.2852,0.575 -2.293,-3.918 4.9024,-0.84 4.6758,4.183" />
        <path
           id="path66"
           style="fill:#fab93d;fill-opacity:1;fill-rule:nonzero;stroke:none"
           d="m 119.906,194.582 7.121,0.563 2.258,-3.922 -4.738,-0.528 -4.641,3.887" />
        <path
           id="path68"
           style="fill:#fab93d;fill-opacity:1;fill-rule:nonzero;stroke:none"
           d="m 83.7461,203.863 c 23.6019,0.133 40.2229,-4.316 45.0509,-5.816 0.918,-0.281 2.16,-0.211 2.547,1 0.261,0.914 -0.223,1.93 -1.153,2.258 l -0.476,0.148 c 0,0 -17.723,6.27 -45.9689,6.063 h -0.0156 c -28.3008,0.207 -46.5352,-6.2 -46.5352,-6.2 l 0.0469,-0.011 c -0.9336,-0.328 -1.4336,-1.344 -1.1016,-2.258 0.3399,-1.211 1.5899,-1.281 2.5,-1 4.8242,1.5 21.4571,5.949 45.0899,5.816 h 0.0156" />
        <path
           id="path70"
           style="fill:#fab93d;fill-opacity:1;fill-rule:nonzero;stroke:none"
           d="m 83.7188,188.188 c 17.6912,0.105 31.4762,-2.375 39.2852,-4.27 0.766,-0.012 1.687,0.363 1.953,1.25 0.305,0.918 -0.211,1.934 -1.129,2.254 h -0.058 c -7.672,1.914 -21.758,4.562 -40.0512,4.426 h -0.0586 0.0586 c -18.3204,0.136 -32.4258,-2.512 -40.0977,-4.426 h -0.0664 c -0.9024,-0.32 -1.4063,-1.336 -1.1133,-2.254 0.2774,-0.887 1.1797,-1.262 1.957,-1.25 7.8282,1.895 21.5977,4.375 39.3204,4.27" />
        <path
           id="path72"
           style="fill:#fab93d;fill-opacity:1;fill-rule:nonzero;stroke:none"
           d="m 111.348,223.82 c -1.301,0.16 -2.539,-0.789 -2.715,-2.086 -0.141,-1.32 0.769,-2.543 2.094,-2.714 1.324,-0.168 2.5,0.773 2.711,2.109 0.14,1.32 -0.778,2.496 -2.09,2.691 0,0 1.312,-0.195 0,0" />
        <path
           id="path74"
           style="fill:#fab93d;fill-opacity:1;fill-rule:nonzero;stroke:none"
           d="m 113.66,218.703 c -1.328,0.172 -2.558,-0.742 -2.699,-2.086 -0.18,-1.308 0.738,-2.515 2.062,-2.703 1.301,-0.172 2.543,0.77 2.723,2.113 0.137,1.313 -0.766,2.539 -2.086,2.676 0,0 1.32,-0.137 0,0" />
        <path
           id="path76"
           style="fill:#fab93d;fill-opacity:1;fill-rule:nonzero;stroke:none"
           d="m 107.988,219.313 c -1.332,0.167 -2.543,-0.727 -2.73,-2.075 -0.192,-1.289 0.773,-2.504 2.09,-2.711 1.324,-0.144 2.554,0.809 2.711,2.09 0.16,1.344 -0.778,2.559 -2.071,2.696 0,0 1.293,-0.137 0,0" />
        <path
           id="path78"
           style="fill:#fab93d;fill-opacity:1;fill-rule:nonzero;stroke:none"
           d="m 56.5508,223.645 c 1.3359,0.191 2.5351,-0.723 2.7265,-2.055 0.1641,-1.301 -0.7968,-2.543 -2.1015,-2.699 -1.3477,-0.184 -2.5235,0.754 -2.707,2.074 -0.1641,1.332 0.7539,2.519 2.082,2.68 0,0 -1.3281,-0.161 0,0" />
        <path
           id="path80"
           style="fill:#fab93d;fill-opacity:1;fill-rule:nonzero;stroke:none"
           d="m 54.2578,218.586 c 1.3164,0.152 2.5235,-0.773 2.711,-2.102 0.1601,-1.332 -0.7735,-2.511 -2.086,-2.703 -1.3086,-0.152 -2.543,0.746 -2.6953,2.067 -0.1797,1.347 0.7383,2.558 2.0703,2.738 0,0 -1.332,-0.18 0,0" />
        <path
           id="path82"
           style="fill:#fab93d;fill-opacity:1;fill-rule:nonzero;stroke:none"
           d="m 59.9297,219.191 c 1.3203,0.18 2.5312,-0.738 2.7109,-2.082 0.1602,-1.32 -0.7656,-2.527 -2.0859,-2.707 -1.3281,-0.172 -2.5234,0.754 -2.7149,2.082 -0.1367,1.329 0.7696,2.536 2.0899,2.707 0,0 -1.3203,-0.171 0,0" />
        <path
           id="path84"
           style="fill:#fab93d;fill-opacity:1;fill-rule:nonzero;stroke:none"
           d="m 84.8008,228.406 c 2.0312,1.918 6.6719,6.629 6.2422,8.938 0,0 0.1562,3.984 -4.2578,1.297 0,0 0.3906,3.734 -2.7618,3.89 h -0.1406 c -3.2539,-0.082 -2.8515,-3.886 -2.8515,-3.886 -4.2266,2.949 -4.543,-1.262 -4.543,-1.262 -0.4727,-2.348 4.543,-7.195 6.4883,-9.047 l 0.9179,7.695 0.9063,-7.625" />
        <path
           id="path86"
           style="fill:#fab93d;fill-opacity:1;fill-rule:nonzero;stroke:none"
           d="m 81.2266,226.445 c -1.875,2.024 -6.5899,6.696 -8.9532,6.25 0,0 -3.9336,0.133 -1.2226,-4.281 0,0 -3.7656,0.367 -3.9063,-2.766 V 225.5 c 0.0821,-3.203 3.8907,-2.832 3.8907,-2.832 -2.9297,-4.258 1.2265,-4.543 1.2265,-4.543 2.375,-0.492 7.1875,4.563 9.0703,6.469 l -7.6797,0.945 7.5743,0.906" />
        <path
           id="path88"
           style="fill:#fab93d;fill-opacity:1;fill-rule:nonzero;stroke:none"
           d="m 86.4102,226.598 c 1.9492,2.027 6.6445,6.73 8.9414,6.23 0,0 3.9882,0.18 1.2773,-4.226 0,0 3.7891,0.343 3.8671,-2.774 v -0.137 c -0.027,-3.218 -3.8124,-2.871 -3.8124,-2.871 2.8945,-4.234 -1.2773,-4.523 -1.2773,-4.523 -2.3516,-0.492 -7.1797,4.551 -9.0508,6.461 l 7.6914,0.945 -7.6367,0.895" />
        <path
           id="path90"
           style="fill:#fab93d;fill-opacity:1;fill-rule:nonzero;stroke:none"
           d="m 83.9258,228.25 c 1.3281,0 2.4023,-1.078 2.4023,-2.379 0,-1.371 -1.0742,-2.441 -2.4023,-2.441 -1.3594,0 -2.4219,1.07 -2.4219,2.441 0,1.301 1.0625,2.379 2.4219,2.379 0,0 -1.3594,0 0,0" />
        <path
           id="path92"
           style="fill:#fab93d;fill-opacity:1;fill-rule:nonzero;stroke:none"
           d="m 134.375,215.078 c -0.723,2.688 -2.648,9.012 -4.895,9.742 0,0 -3.46,2.039 -3.144,-3.179 0,0 -3.168,2.132 -4.727,-0.547 l -0.105,-0.129 c -1.445,-2.887 2.086,-4.348 2.086,-4.348 -4.637,-2.347 -1.063,-4.609 -1.063,-4.609 1.836,-1.512 8.469,0.617 11.028,1.422 l -6.305,4.449 7.125,-2.801" />
        <path
           id="path94"
           style="fill:#fab93d;fill-opacity:1;fill-rule:nonzero;stroke:none"
           d="m 81.7969,224.289 c 0,-7.305 -5.9102,-13.266 -13.2266,-13.266 -3.2187,0 -6.1719,1.161 -8.4492,3.036 l -4.9609,-0.575 c -2.418,-3.394 -6.3516,-5.617 -10.836,-5.617 l -0.0898,-0.008 c -5.7813,0 -10.7031,3.704 -12.5117,8.856 l 0.039,0.172 c 0.586,2.59 0.4258,7.578 -1.2773,9.261 0,0 -2.1094,2.989 -3.8242,-1.394 0,0 -3.2539,2.777 -5.9766,1.09 0,0 -4.1758,-2.383 -0.8516,-5.891 0,0 2.6719,-1.086 3.7227,0.961 0,0 3.2305,-2.246 5.2187,-6.898 l 2.4258,-4.157 c 3.1524,-3.66 7.8281,-5.976 13.0352,-5.976 h 0.0898 c 5.586,0 10.5586,2.668 13.6992,6.777 v 0.004 c 2.9102,-2.242 6.5743,-3.609 10.5469,-3.609 6.5938,0 12.3086,3.711 15.2266,9.156 l 0.0469,-0.031 c 2.8906,-5.414 8.6328,-9.125 15.1953,-9.125 3.9769,0 7.6059,1.359 10.4999,3.558 l 0.106,-0.031 c 3.148,-4.043 8.089,-6.699 13.621,-6.699 5.132,0 9.718,2.25 12.875,5.777 l 2.55,4.199 c 1.997,4.774 5.254,7.071 5.254,7.071 1.094,-2.039 3.735,-0.953 3.735,-0.953 3.304,3.507 -0.836,5.894 -0.836,5.894 -2.723,1.699 -5.977,-1.113 -5.977,-1.113 -1.711,4.379 -3.82,1.39 -3.82,1.39 -1.715,-1.664 -1.895,-6.644 -1.309,-9.246 l 0.051,-0.16 c -1.789,-5.172 -6.719,-8.875 -12.523,-8.875 -4.477,0 -8.422,2.238 -10.844,5.621 l -4.922,0.571 c -2.289,-1.875 -5.254,-3.036 -8.4609,-3.036 -7.3321,0 -13.2735,5.961 -13.2735,13.266" />
        <path
           id="path96"
           style="fill:#fab93d;fill-opacity:1;fill-rule:nonzero;stroke:none"
           d="m 33.5703,214.555 c 0.5391,2.738 1.961,9.222 4.1133,10.086 0,0 3.2422,2.304 3.3672,-2.883 0,0 2.9805,2.375 4.7578,-0.168 l 0.1094,-0.156 c 1.7148,-2.731 -1.6836,-4.454 -1.6836,-4.454 4.7539,-1.98 1.4179,-4.531 1.4179,-4.531 -1.7226,-1.683 -8.5234,-0.066 -11.1406,0.52 l 5.9571,4.949 -6.8985,-3.363" />
        <path
           id="path98"
           style="fill:#fab93d;fill-opacity:1;fill-rule:nonzero;stroke:none"
           d="m 28.3281,213.633 c -1.1172,-0.676 -1.4375,-2.219 -0.707,-3.32 0.7383,-1.098 2.2578,-1.446 3.3203,-0.715 1.1445,0.75 1.4453,2.226 0.7188,3.359 -0.7422,1.102 -2.2305,1.426 -3.3321,0.676 0,0 1.1016,0.75 0,0" />
        <path
           id="path100"
           style="fill:#fab93d;fill-opacity:1;fill-rule:nonzero;stroke:none"
           d="m 77.6133,197.969 5.9219,2.703 5.9062,-2.703 -5.9062,-2.668 -5.9219,2.668" />
        <path
           id="path102"
           style="fill:#fab93d;fill-opacity:1;fill-rule:nonzero;stroke:none"
           d="m 61.9766,199.246 c 3.2226,0.41 6,-0.351 6.2109,-1.773 0.1953,-1.387 -2.293,-2.895 -5.5078,-3.34 -3.207,-0.461 -6.0039,0.344 -6.1992,1.715 -0.1914,1.425 2.2695,2.898 5.4961,3.398 0,0 -3.2266,-0.5 0,0" />
        <path
           id="path104"
           style="fill:#fab93d;fill-opacity:1;fill-rule:nonzero;stroke:none"
           d="m 127.535,196.094 -10.265,-0.707 6.898,-5.883 -0.379,-0.781 v -0.02 c -7.691,1.856 -21.777,4.539 -40.0702,4.395 -18.3204,0.144 -32.4258,-2.539 -40.0821,-4.395 l -0.4922,0.879 6.6641,5.801 -10.2539,0.703 -0.5078,1 c 5.2851,1.555 21.6211,5.762 44.6719,5.648 H 83.75 c 22.5,0.114 38.648,-3.882 44.293,-5.574 z m -77.2342,2.16 c -0.4375,-0.981 -0.0195,-2.02 0.875,-2.473 0.9336,-0.398 2.0156,0 2.457,0.949 0.3985,0.899 0.0235,1.989 -0.9023,2.407 -0.9297,0.429 -2.0313,0 -2.4297,-0.883 0,0 0.3984,0.883 0,0 m 1.0664,-4.426 c -0.4531,-0.937 0,-1.98 0.875,-2.422 0.9492,-0.379 2.0156,0 2.4531,0.949 0.4219,0.911 0,2.004 -0.9258,2.407 -0.9023,0.422 -2.0156,0.031 -2.4023,-0.934 0,0 0.3867,0.965 0,0 m 19.8476,6.961 c -0.5156,-0.844 -0.289,-1.973 0.5586,-2.516 0.8633,-0.562 2.0157,-0.304 2.5664,0.579 0.5079,0.804 0.2891,1.961 -0.5703,2.492 -0.8711,0.578 -1.9961,0.293 -2.5547,-0.555 0,0 0.5586,0.848 0,0 m 0.1133,-4.551 c -0.5429,-0.851 -0.2773,-1.968 0.586,-2.504 0.8398,-0.539 1.9726,-0.285 2.5156,0.536 0.5391,0.875 0.2773,2.003 -0.543,2.558 -0.875,0.539 -2.0039,0.281 -2.5586,-0.59 0,0 0.5547,0.871 0,0 m 12.211,-2.152 8.2656,3.961 -8.2656,3.719 -8.375,-3.797 z m -28.1016,1.629 c 0.2461,-1.981 3.5742,-3.192 7.4102,-2.656 3.789,0.558 6.6679,2.566 6.3945,4.57 -0.2969,1.953 -3.6406,3.16 -7.4024,2.617 -3.8085,-0.512 -6.6796,-2.535 -6.4023,-4.531 0,0 -0.2773,1.996 0,0 m 58.9255,3.422 c -0.906,-0.418 -1.34,-1.508 -0.906,-2.407 0.41,-0.949 1.508,-1.347 2.426,-0.949 0.902,0.453 1.34,1.492 0.902,2.473 -0.398,0.883 -1.508,1.312 -2.422,0.883 0,0 0.914,0.429 0,0 m -1.062,-4.375 c -0.934,-0.403 -1.332,-1.496 -0.934,-2.407 0.426,-0.949 1.528,-1.328 2.434,-0.949 0.949,0.442 1.32,1.485 0.902,2.422 -0.426,0.965 -1.5,1.356 -2.402,0.934 0,0 0.902,0.422 0,0 m -19.9846,6.582 c -0.8672,-0.531 -1.1055,-1.688 -0.5781,-2.492 0.539,-0.883 1.6914,-1.141 2.543,-0.579 0.8593,0.543 1.0859,1.672 0.5742,2.516 -0.5742,0.848 -1.6797,1.133 -2.5391,0.555 0,0 0.8594,0.578 0,0 m -0.1484,-4.516 c -0.8203,-0.555 -1.0821,-1.683 -0.5274,-2.558 0.5274,-0.821 1.6797,-1.075 2.543,-0.536 0.8203,0.536 1.0859,1.653 0.5352,2.504 -0.5352,0.871 -1.6719,1.129 -2.5508,0.59 0,0 0.8789,0.539 0,0 m 12.055,3.418 c -3.813,0.543 -7.1019,-0.664 -7.3675,-2.617 -0.3086,-2.004 2.5625,-4.012 6.3865,-4.57 3.813,-0.536 7.106,0.675 7.387,2.656 0.293,1.996 -2.598,4.019 -6.406,4.531 0,0 3.808,-0.512 0,0" />
        <path
           id="path106"
           style="fill:#fab93d;fill-opacity:1;fill-rule:nonzero;stroke:none"
           d="m 105.078,199.246 c -3.215,0.41 -5.9725,-0.351 -6.1835,-1.773 -0.2187,-1.387 2.2775,-2.895 5.4805,-3.34 3.238,-0.461 6.004,0.344 6.215,1.715 0.191,1.425 -2.274,2.898 -5.512,3.398 0,0 3.238,-0.5 0,0" />
        <path
           id="path108"
           style="fill:#fab93d;fill-opacity:1;fill-rule:nonzero;stroke:none"
           d="m 139.215,213.668 c 1.121,-0.711 1.394,-2.23 0.703,-3.328 -0.75,-1.121 -2.234,-1.445 -3.348,-0.707 -1.132,0.742 -1.445,2.242 -0.715,3.336 0.747,1.109 2.215,1.433 3.36,0.699 0,0 -1.145,0.734 0,0" />
        <path
           id="path110"
           style="fill:#fab93d;fill-opacity:1;fill-rule:nonzero;stroke:none"
           d="m 89.4414,197.969 -5.9023,2.703 -5.918,-2.703 5.918,-2.668 5.9023,2.668" />
        <path
           id="path112"
           style="fill:#ffffff;fill-opacity:1;fill-rule:nonzero;stroke:none"
           d="m 83.3672,45.0391 c 0,8.5781 -34.7539,11.9765 -34.7539,11.9765 C 30.457,57.1992 31.4922,74.0625 31.4922,74.0625 v 94.6995 h 51.875 51.8088 l -0.149,-94.6995 c 0,0 1.414,-16.8633 -16.707,-17.0469 0,0 -34.9528,-3.3984 -34.9528,-11.9765 0,0 0,0.1953 0,0" />
        <path
           id="path114"
           style="fill:#960954;fill-opacity:1;fill-rule:nonzero;stroke:none"
           d="m 72.0586,151.313 c 3.5117,0.632 7.1797,-3.528 7.1797,-3.528 -1.1094,0.82 -6.875,0.481 -6.875,0.481 -5.586,0.172 -6.5547,4.648 -6.5547,4.648 1.7539,-2.258 6.25,-1.601 6.25,-1.601" />
        <path
           id="path116"
           style="fill:#960954;fill-opacity:1;fill-rule:nonzero;stroke:none"
           d="m 122.605,139.074 c 0,0 2.813,-0.965 2.813,2.918 0,0 3.996,-3.789 -2.332,-6.316 0,0 3.695,-3.426 -0.645,-7.473 h -0.175 c -5.911,0.481 -5.129,5.422 -5.129,5.422 -6.535,-1.906 -5.715,3.516 -5.715,3.516 2.371,-3.039 4.617,-0.137 4.617,-0.137 1.289,2.863 -1.766,3.379 -1.766,3.379 -4.48,1.23 -5.265,-3.867 -5.265,-3.867 -1.297,-5.438 6.406,-12.961 6.406,-12.961 8.176,-8.328 6.211,-17.137 6.211,-17.137 -2.871,-7.5196 -7.965,-6.6992 -7.965,-6.6992 0,1.7582 -1.621,6.4372 -1.621,6.4372 3.016,-0.832 4.5,2.188 4.5,2.188 1.57,8.179 -3.387,12.344 -3.387,12.344 -5.261,5.429 -6.886,9.414 -6.886,9.414 -4,7.527 1.902,12 1.902,12 7.871,5.918 12.992,-1.426 12.992,-1.426 l 1.445,-1.602" />
        <path
           id="path118"
           style="fill:#960954;fill-opacity:1;fill-rule:nonzero;stroke:none"
           d="m 82.3008,118.098 c -3.0625,2.59 -6.2852,1.59 -6.2852,1.59 -4.7851,-2.243 -6.3672,-3.172 -6.3672,-3.172 0,0 -3.5117,-0.946 -3.6562,-4.328 l -2.3984,1.925 c 0,0 -2.1211,-2.527 -1.7969,-4.16 l -1.7735,3.367 c 0,0 -3.8086,-3.203 -3.8086,-4.976 l -0.3359,3.531 c 0,0 -3.8203,-1.445 -4.3203,-3.191 l 0.5,3.191 C 46.4609,108.344 45,112.836 45,112.836 c -0.6562,1.277 -3.168,-0.156 -3.168,-0.156 0.9219,1.902 3.4844,2.89 3.4844,2.89 -0.4766,1.59 -3.0273,0.946 -3.0273,0.946 -0.6289,2.882 3.3632,3.507 3.3632,3.507 -0.8125,1.149 -3.5039,2.079 -3.5039,2.079 0,0 4.793,2.714 7.3399,0.488 0,0 2.7383,-3.027 4.6172,-3.027 0,0 5.7812,-1.29 14.2773,4.492" />
        <path
           id="path120"
           style="fill:#960954;fill-opacity:1;fill-rule:nonzero;stroke:none"
           d="m 52.5195,137.805 c 0,0 -2.875,0 -2.875,2.871 0,0 0.793,4.609 -4.1718,5.781 0,0 1.3203,2.551 4.6484,2.043 0,0 0.9805,2.859 -3.1797,3.016 0,0 3.4961,1.632 6.0742,0 0,0 0.6367,1.32 -1.457,2.57 0,0 6.9141,-0.773 7.0508,-5.422 0,0 -0.7774,-3.379 1.125,-7.519 0,0 1.5976,-6.223 9.6054,-11.641 0,0 -0.957,-0.82 -0.957,-5.449 0,0 -1.9297,-1.309 -2.8711,-1.789 0,0 -4.039,4.777 -6.582,2.718 v 3.7 l -3.3555,-1.114 c 0,0 0.1446,2.532 -0.4804,3.809 l -2.2266,-0.625 c 2.3555,6.055 -0.3477,7.051 -0.3477,7.051" />
        <path
           id="path122"
           style="fill:#960954;fill-opacity:1;fill-rule:nonzero;stroke:none"
           d="m 71.0781,131.379 c 3.1797,-0.781 5.6172,0.34 5.6172,0.34 -1.2812,0.648 -2.2656,2.383 -2.2656,2.383 5.7539,0.336 5.9219,1.937 5.9219,1.937 -2.5313,-0.519 -3.5118,1.102 -3.5118,1.102 11.6797,2.871 10.3907,10.586 10.3907,10.586 0,0 -2.5547,-6.582 -10.3907,-5.625 l -2.2343,4.015 c 0,0 8.1562,-1.633 6.7265,4.637 0,0 -1.4414,4.316 -9.7812,1.902 l -1.7461,4.485 6.7266,0.683 c 0,0 3.6523,6.699 13.4062,3.801 0,0 5.9688,-1.25 7.8594,-8.32 0,0 0.9609,-4.492 2.4061,-5.93 l -3.6991,1.789 c 0,0 -0.3125,-4.68 2.6016,-6.562 l -2.7383,-0.657 c 0,0 2.7383,-1.437 0.1367,-10.722 0,0 -0.8047,-1.895 0.6524,-3.184 l -3.0352,1.289 c 0,0 -2.4141,-1.633 -0.9727,-5.273 l -3.3593,2.195 c 0,0 -2.6953,-7.176 3.8515,-11.512 0,0 5.9102,-3.152 10.5584,-3.32 0,0 3.852,0.273 7.852,-5.273 0,0 2.547,-2.411 1.609,-13.145 0,0 -1.336,-3.3516 7.5,-6.8828 L 118.109,85 c 0,0 2.559,-6.9219 5.942,-10.9375 0,0 2.711,-2.6836 -4.985,-6.8359 0,0 -2.222,-0.1055 -2.066,-2.5469 0,0 -1.297,4.6289 -8.832,-0.957 0,0 -1.234,0.7812 -0.918,2.8711 0,0 0.469,-1.9141 -2.402,-2.0899 0,0 -3.36,7.043 6.574,7.6953 0,0 2.074,0.1367 3.633,0 0,0 4.652,5.4492 -1.903,10.7422 0,0 -9.109,1.418 -10.547,5.2461 0,0 -1.921,4.5078 -0.625,12.6645 0,0 0.782,3.359 -7.0581,4.472 0,0 -22.2305,-0.312 -25.2735,11.192 0,0 -4.3789,16.484 2.5586,12.988 -1.5859,0.801 -1.1289,1.875 -1.1289,1.875 m 8.0235,24.805 c 0,0 2.8476,0 5.2539,-2.383 0,0 -1.1133,2.715 0.164,4.023 0,0 -1.8867,-1.769 -5.4179,-1.64 0,0 3.5312,-0.129 0,0" />
        <path
           id="path124"
           style="fill:#960954;fill-opacity:1;fill-rule:nonzero;stroke:none"
           d="M 850.395,0 H 0 V 8.92969 H 850.395 V 0" />
        <path
           id="path126"
           style="fill:#960954;fill-opacity:1;fill-rule:nonzero;stroke:none"
           d="m 90.4531,83.5078 v 0.0078 -0.0078" />
        <path
           id="path128"
           style="fill:#960954;fill-opacity:1;fill-rule:nonzero;stroke:none"
           d="m 90.4453,83.5156 c -0.0469,0.0899 -0.0312,0.0703 0,0" />
        <path
           id="path130"
           style="fill:#960954;fill-opacity:1;fill-rule:nonzero;stroke:none"
           d="m 90.6406,83.1094 c -0.0976,0.2109 -0.1523,0.3281 -0.1875,0.3984 0.0586,-0.125 0.1875,-0.3984 0.1875,-0.3984" />
        <path
           id="path132"
           style="fill:#960954;fill-opacity:1;fill-rule:nonzero;stroke:none"
           d="m 63.125,80.0391 c 0.0273,0.0507 0.0742,0.0703 0.0977,0.1172 C 63.125,80.1289 63.125,80.0391 63.125,80.0391" />
        <path
           id="path134"
           style="fill:#960954;fill-opacity:1;fill-rule:nonzero;stroke:none"
           d="m 102.582,95.4922 c 0,2.1367 -0.352,3.8672 -0.781,3.8945 0.015,0.1172 0.031,0.1953 0.031,0.1953 0,0 -16.1797,1.895 -20.3203,-1.6211 0,0 -6.8242,-4.5117 -2.4101,-11.2109 0,0 4.6445,-4.1602 3.5429,-6.2305 0,0 -3.6914,-4.9414 -8.3515,-3.8476 0,0 -3.3477,0.4883 -6.2188,4.4922 0,0 -2.332,1.8828 -4.8515,-1.0078 0.1757,0.039 0.6289,-0.0938 1.8007,-1.0821 0,0 -3.3632,-0.2929 -3.0468,-3.0351 0,0 1.6054,0.7968 1.914,-0.9493 0,0 -2.6953,-0.3007 -3.4922,-2.746 0,0 2.7227,-0.4688 3.3672,-2.5547 0,0 0.9453,-3.1953 7.0196,0.3398 0,0 3.039,1.1328 3.1992,-2.5781 0,0 1.9219,4.9883 13.4258,9.6094 0,0 5.8398,-0.2344 3.2304,5.9492 -0.5039,1.082 -3.0468,2.8594 -3.0468,2.8594 -2.5704,1.9335 -0.6446,2.871 -0.6446,2.871 6.5664,2.7149 7.5117,-0.9375 7.5117,-0.9375 -0.164,3.0196 7.5351,3.3399 7.5351,3.3399 -0.055,0.1094 -0.098,0.2422 -0.152,0.3711 0.418,0.1562 0.738,1.8164 0.738,3.8789" />
      </g>
    </g>
  </g>
</svg>
