<?xml version="1.0" encoding="UTF-8" standalone="no"?>
<svg
   xmlns:dc="http://purl.org/dc/elements/1.1/"
   xmlns:cc="http://creativecommons.org/ns#"
   xmlns:rdf="http://www.w3.org/1999/02/22-rdf-syntax-ns#"
   xmlns:svg="http://www.w3.org/2000/svg"
   xmlns="http://www.w3.org/2000/svg"
   id="svg2703"
   version="1.1"
   viewBox="0 0 91.512276 47.731731"
   height="47.731731mm"
   width="91.512276mm">
  <defs
     id="defs2697" />
  <metadata
     id="metadata2700">
    <rdf:RDF>
      <cc:Work
         rdf:about="">
        <dc:format>image/svg+xml</dc:format>
        <dc:type
           rdf:resource="http://purl.org/dc/dcmitype/StillImage" />
        <dc:title></dc:title>
      </cc:Work>
    </rdf:RDF>
  </metadata>
  <g
     transform="translate(-68.39267,-211.14604)"
     id="layer1">
    <g
       id="layer1-6"
       style="display:inline"
       transform="matrix(0.48448328,0,0,0.48448328,56.556903,140.57453)">
      <g
         style="stroke-width:0.14921087"
         transform="matrix(6.7019244,0,0,6.7019244,-84.759955,-696.02664)"
         id="g6572">
        <g
           transform="matrix(0.41504294,0,0,0.41504294,7.2039927,82.802091)"
           style="fill:#ffffff;stroke-width:0.14921087"
           id="g6552">
          <g
             aria-label="S"
             transform="matrix(0.97111942,0.3369361,-0.4103213,0.88737587,0,0)"
             style="font-style:normal;font-variant:normal;font-weight:normal;font-stretch:normal;font-size:27.96692657px;line-height:125%;font-family:Molle;-inkscape-font-specification:Molle;letter-spacing:0px;word-spacing:0px;fill:#550000;fill-opacity:1;stroke:none;stroke-width:0.04636632px;stroke-linecap:butt;stroke-linejoin:miter;stroke-opacity:1"
             id="text6576" />
        </g>
      </g>
      <g
         transform="translate(14.432554,141.65285)"
         id="g8188">
        <rect
           rx="2.7928884"
           ry="3.2528245"
           transform="matrix(0.10491523,-0.99448117,0.99999993,3.412199e-4,-238.88095,-153.45833)"
           y="347.2287"
           x="-239.75748"
           height="97.67514"
           width="5.5857768"
           id="rect8232"
           style="display:inline;opacity:1;fill:#1c2422;fill-opacity:1;stroke:#ffffff;stroke-width:0.42771444;stroke-linecap:butt;stroke-linejoin:bevel;stroke-miterlimit:4;stroke-dasharray:none;stroke-opacity:1" />
        <g
           transform="translate(-238.88095,-153.45833)"
           id="g8186">
          <rect
             style="opacity:1;fill:#1c2422;fill-opacity:1;stroke:#ffffff;stroke-width:0.42654023;stroke-linecap:butt;stroke-linejoin:bevel;stroke-miterlimit:4;stroke-dasharray:none;stroke-opacity:1"
             id="rect8158"
             width="73.48774"
             height="73.48774"
             x="-247.04893"
             y="255.09564"
             transform="rotate(-89.65624)"
             ry="10.340008"
             rx="10.340008" />
          <g
             id="g8164"
             style="font-style:normal;font-variant:normal;font-weight:normal;font-stretch:normal;font-size:11.60747528px;line-height:125%;font-family:Molle;-inkscape-font-specification:Molle;letter-spacing:0px;word-spacing:0px;fill:#ffffff;fill-opacity:1;stroke:none;stroke-width:0.01924401px;stroke-linecap:butt;stroke-linejoin:miter;stroke-opacity:1"
             transform="matrix(6.5083689,2.2581203,-2.7499423,5.947126,25.042129,-690.54599)"
             aria-label="S">
            <path
               id="path8160"
               style="font-style:normal;font-variant:normal;font-weight:normal;font-stretch:normal;font-family:Molle;-inkscape-font-specification:Molle;baseline-shift:baseline;fill:#ffffff;stroke-width:0.01924401px"
               d="m 87.391816,123.80498 q -0.430746,-0.45909 -0.634784,-1.04286 -0.204037,-0.58945 -0.204037,-1.0882 0,-0.49876 0.05101,-0.56111 0.05668,-0.0623 0.12469,-0.10768 0.119022,-0.0793 0.289053,-0.12469 0.464752,1.19022 1.717317,1.53028 0.402407,0.11335 0.810483,0.11335 0.413743,0 0.731135,-0.068 0.323059,-0.0737 0.561103,-0.22671 0.515762,-0.34006 0.515762,-1.02585 0,-0.52143 -0.413743,-1.16189 -0.175699,-0.28338 -0.379737,-0.5611 -0.204037,-0.28338 -0.379736,-0.57244 -0.413743,-0.66312 -0.413743,-1.13354 0,-0.47609 0.130357,-0.78781 0.136025,-0.31739 0.368401,-0.56677 0.232376,-0.25505 0.544101,-0.44775 0.317392,-0.19271 0.685793,-0.32306 0.736802,-0.26072 1.564289,-0.26072 0.782144,0 1.229893,0.16437 0.447749,0.15869 0.634784,0.32872 0.192702,0.17003 0.192702,0.3344 0,0.16436 -0.05101,0.27772 -0.05101,0.10768 -0.130358,0.21537 -0.170031,0.22104 -0.334395,0.33439 -0.391072,-0.62344 -1.303574,-0.87849 -0.294721,-0.0794 -0.623448,-0.0794 -0.32306,0 -0.646119,0.0794 -0.32306,0.0793 -0.566771,0.22671 -0.549769,0.31739 -0.549769,0.82748 0,0.27772 0.192703,0.55544 0.19837,0.27772 0.487423,0.57811 0.294721,0.30038 0.634784,0.62911 0.340063,0.32873 0.629116,0.7028 0.685793,0.87283 0.685793,1.72298 0,0.84449 -0.317392,1.46794 -0.317392,0.61778 -0.855824,1.03152 -1.076866,0.84449 -2.714835,0.84449 -1.382922,0 -2.261417,-0.9465 z" />
            <path
               d="m 87.406225,123.76404 c -0.288984,-0.31215 -0.50285,-0.6659 -0.64162,-1.06124 -0.138789,-0.39918 -0.209473,-0.76725 -0.212034,-1.10421 l 0.568528,1.3995 c 0.285126,0.76595 0.930448,1.38575 2.08915,1.01242 1.15871,-0.37334 4.18184,-1.5816 4.18184,-1.5816 0,0 0.03603,0.0139 -0.171984,0.43353 -0.208018,0.4159 -0.49011,0.76238 -0.846257,1.03942 -0.712216,0.56558 -1.613287,0.84458 -2.703201,0.83703 -0.920207,-0.006 -1.67501,-0.33133 -2.264422,-0.97484 z"
               style="font-style:normal;font-variant:normal;font-weight:normal;font-stretch:normal;font-family:Molle;-inkscape-font-specification:Molle;baseline-shift:baseline;fill:#1c2422;stroke-width:0.01924401px"
               id="path8162" />
          </g>
          <g
             id="g8168"
             style="font-style:normal;font-variant:normal;font-weight:normal;font-stretch:normal;font-size:10.13505936px;line-height:125%;font-family:FZWeiBei-S03;-inkscape-font-specification:FZWeiBei-S03;letter-spacing:0px;word-spacing:0px;fill:#ffffff;fill-opacity:1;stroke:none;stroke-width:0.0168029px;stroke-linecap:butt;stroke-linejoin:miter;stroke-opacity:1"
             transform="matrix(5.805063,3.4510591,-3.5665705,5.6170529,25.042129,-690.54599)"
             aria-label="I">
            <path
               id="path8166"
               style="font-style:normal;font-variant:normal;font-weight:normal;font-stretch:normal;font-size:10.81072903px;font-family:'Kaushan Script';-inkscape-font-specification:'Kaushan Script';fill:#ffffff;stroke-width:0.0168029px"
               d="m 101.93671,99.49176 q 0,-0.389187 0.11892,-1.005398 0.12973,-0.627022 0.32432,-1.340531 0.20541,-0.724318 0.46486,-1.470259 0.25946,-0.756751 0.52973,-1.416205 0.27027,-0.659455 0.52973,-1.156748 0.25945,-0.497294 0.46486,-0.713508 0.1081,0.01081 0.28108,0.08648 0.18378,0.06486 0.36756,0.162161 0.18378,0.0973 0.33513,0.216215 0.15135,0.108107 0.1946,0.205404 -0.31351,0.281079 -0.62703,0.854047 -0.3027,0.562158 -0.59459,1.286477 -0.28107,0.724319 -0.52972,1.535124 -0.24865,0.799994 -0.43243,1.556745 -0.18378,0.756751 -0.29189,1.405394 -0.0973,0.648652 -0.0973,1.048642 0,0.18379 0.0324,0.22703 -0.23784,-0.0108 -0.34595,-0.0865 -0.10811,-0.0649 -0.17297,-0.15135 -0.0541,-0.0757 -0.10811,-0.16216 -0.0432,-0.0757 -0.14054,-0.11892 -0.0757,-0.0324 -0.12973,-0.15135 -0.0541,-0.11891 -0.0973,-0.25945 -0.0324,-0.151358 -0.0541,-0.302709 -0.0216,-0.15135 -0.0216,-0.248646 z" />
          </g>
          <path
             id="path8170"
             d="m 310.78168,247.02106 c -0.47939,-0.0952 -0.88192,-0.17492 -0.89454,-0.17894 -0.0154,-0.002 0.0707,-0.0603 0.1833,-0.12264 0.2357,-0.13404 0.39903,-0.27612 0.47101,-0.40882 0.2357,-0.43495 0.0154,-1.30674 -0.44669,-1.80583 -0.5263,-0.56296 -1.18433,-0.55291 -1.75404,0.0268 -0.19181,0.19503 -0.26868,0.24328 -0.38992,0.24328 -0.18946,6.1e-4 -0.54661,0.0945 -0.81649,0.21447 -0.35996,0.1595 -0.67293,0.58574 -0.82235,1.12042 l -0.0718,0.25736 -0.75692,-0.52409 c -0.41633,-0.28819 -0.76318,-0.54152 -0.77086,-0.56296 -0.0114,-0.0201 0.0688,-0.20441 0.17043,-0.40547 0.20152,-0.40011 0.5905,-0.85671 0.84949,-0.99618 0.0905,-0.0469 0.16386,-0.10119 0.16386,-0.11728 0,-0.0134 -0.12586,-0.16554 -0.2788,-0.33308 l -0.2788,-0.30427 -0.14992,0.15816 c -0.0823,0.0865 -0.24931,0.20039 -0.36968,0.25267 -0.23456,0.10053 -0.79633,0.25333 -0.82387,0.22451 -0.0275,-0.0335 -0.80592,-1.65832 -0.80596,-1.68748 0,-0.0134 0.10408,-0.0201 0.23182,-0.0134 0.1274,0.006 0.29937,0.002 0.38167,-0.0134 0.17626,-0.0335 0.63903,-0.32639 0.82515,-0.52342 0.139,-0.14678 0.25668,-0.53281 0.25782,-0.84559 6.6e-4,-0.15883 0.0114,-0.17224 0.13203,-0.17224 0.5013,0 0.81544,-1.0524 0.5135,-1.72031 -0.0952,-0.20977 -0.3363,-0.45439 -0.51457,-0.52208 l -0.12231,-0.0469 -0.0154,0.6588 c -0.0154,0.57972 -0.0275,0.67442 -0.11024,0.78574 -0.16815,0.22451 -0.3227,0.30896 -0.60438,0.32705 -0.36385,0.0201 -0.54654,-0.0791 -0.71161,-0.40077 -0.12466,-0.24328 -0.12627,-0.25602 -0.1258,-1.12083 l 10e-4,-0.87481 0.0874,0.19168 c 0.23651,0.52074 1.02454,0.63065 1.34866,0.18832 0.12197,-0.16554 0.15568,-0.57234 0.0623,-0.75128 -0.11648,-0.22452 -0.28503,-0.3485 -0.50465,-0.3733 -0.43,-0.0469 -0.75021,0.25735 -0.70971,0.67864 0.0154,0.12465 0.0154,0.22652 0.007,0.22652 -0.0114,0 -0.0489,-0.067 -0.0901,-0.14543 -0.0986,-0.19034 -0.068,-0.59178 0.0563,-0.76281 0.16037,-0.21916 0.35687,-0.28484 0.85294,-0.28484 l 0.44729,-6e-5 v -0.20642 -0.20575 h -0.42041 c -0.36968,0 -0.44474,-0.0134 -0.62348,-0.11929 -0.20461,-0.11997 -0.37551,-0.38805 -0.37705,-0.59178 -10e-4,-0.16822 0.0885,-0.4115 0.20347,-0.55023 l 0.11373,-0.13739 -0.0928,0.18363 c -0.16735,0.32906 -0.0483,0.69144 0.28269,0.86013 0.30212,0.15414 0.67072,0.0536 0.83866,-0.23591 0.11769,-0.19972 0.11025,-0.60385 -0.0154,-0.80658 -0.26868,-0.43495 -1.05273,-0.38134 -1.3205,0.0898 l -0.10408,0.18363 0.0154,-0.92567 c 0.0154,-1.01474 0.0194,-1.04416 0.32813,-1.27343 0.18249,-0.13605 0.70104,-0.13471 0.8849,0.002 0.25005,0.18631 0.31104,0.35788 0.32927,0.92788 l 0.0154,0.52007 0.12151,-0.0335 c 0.19416,-0.0469 0.42175,-0.20843 0.51558,-0.36257 0.0788,-0.12935 0.0866,-0.24395 0.0862,-1.28932 -7.1e-4,-1.02613 -0.0114,-1.16694 -0.0874,-1.33804 -0.11339,-0.24998 -0.41712,-0.54084 -0.69867,-0.66952 l -0.22519,-0.10254 0.0275,-0.22921 c 0.0389,-0.31901 -0.0422,-0.89899 -0.15917,-1.14033 -0.11534,-0.23792 -0.3615,-0.50331 -0.56732,-0.61054 -0.21627,-0.11327 -0.65752,-0.10321 -0.89419,0.0201 l -0.18946,0.0985 0.29669,-0.60585 c 0.16353,-0.33376 0.3487,-0.64674 0.41197,-0.69613 0.18678,-0.1461 0.54614,-0.12265 0.89682,0.0603 l 0.28732,0.14811 0.12968,-0.12466 c 0.0711,-0.0684 0.12968,-0.13806 0.12968,-0.15414 0,-0.0201 -0.11065,-0.1957 -0.24583,-0.3981 -0.25943,-0.38804 -0.33469,-0.61657 -0.26325,-0.80456 0.0275,-0.0724 0.23725,-0.24194 0.57603,-0.46445 0.29281,-0.19234 0.54219,-0.35051 0.55398,-0.35051 0.0114,0 0.0194,0.10925 0.0194,0.24328 0,0.64741 0.64553,1.2668 1.46799,1.40814 0.45278,0.0778 3.54238,0.0402 3.78456,-0.0469 0.17204,-0.0603 0.53971,-0.38134 0.64225,-0.55827 0.0402,-0.0697 0.16701,-0.0824 1.05514,-0.10924 0.55505,-0.0134 1.41176,-0.0134 1.90378,0.003 l 0.89457,0.0335 0.13786,0.21111 c 0.0998,0.15414 0.21198,0.24864 0.40949,0.34984 l 0.27142,0.13873 1.64603,0.0134 c 1.04049,0.006 1.76515,-0.003 1.97006,-0.0335 0.78609,-0.12197 1.35984,-0.63802 1.47606,-1.32785 l 0.055,-0.3237 0.48066,0.31767 c 0.58233,0.38469 0.58709,0.38871 0.62281,0.53079 0.0503,0.20173 -0.0228,0.41485 -0.27612,0.79143 l -0.24616,0.36794 0.14369,0.14007 0.14409,0.14007 0.2967,-0.14678 c 0.34441,-0.17089 0.64492,-0.19368 0.84122,-0.067 0.082,0.0536 0.22639,0.2855 0.42235,0.67602 0.16386,0.32705 0.29784,0.60451 0.29784,0.61658 0,0.0134 -0.0749,-0.0201 -0.16702,-0.0764 -0.23141,-0.13605 -0.65826,-0.13806 -0.91561,-0.002 -0.23182,0.12198 -0.46083,0.37732 -0.58428,0.6521 -0.0727,0.16218 -0.0986,0.33442 -0.11339,0.77105 l -0.0154,0.5623 -0.19496,0.0865 c -0.26988,0.11997 -0.54842,0.38335 -0.67426,0.63869 -0.0991,0.20173 -0.10676,0.2788 -0.1215,1.24221 -0.0114,0.56497 -0.002,1.09583 0.0154,1.17987 0.0389,0.20307 0.23028,0.42423 0.45895,0.52811 0.30212,0.13739 0.30058,0.14007 0.30058,-0.40412 0,-0.6072 0.0881,-0.8356 0.3798,-0.98432 0.23765,-0.1213 0.65833,-0.10321 0.84809,0.0335 0.25588,0.18766 0.28577,0.3217 0.28577,1.2735 l 8e-5,0.86696 -0.10328,-0.15146 c -0.17083,-0.25199 -0.32538,-0.33778 -0.64271,-0.35654 -0.24235,-0.0134 -0.3103,-0.001 -0.44682,0.0905 -0.43362,0.29221 -0.42758,0.963 0.0154,1.23048 0.40078,0.24395 0.95228,-0.067 0.95228,-0.53415 0,-0.11326 -0.0228,-0.24864 -0.0503,-0.30024 -0.0389,-0.0717 -0.0389,-0.0865 0.003,-0.0603 0.0889,0.0536 0.1837,0.32638 0.1837,0.52811 0,0.2406 -0.0951,0.42088 -0.30561,0.58173 -0.15495,0.11862 -0.20582,0.13002 -0.64231,0.14476 l -0.47396,0.0134 v 0.2024 0.2024 h 0.46102 c 0.50982,0 0.64493,0.0469 0.83816,0.27411 0.16969,0.20173 0.20153,0.4879 0.0838,0.75323 -0.10448,0.23792 -0.1654,0.28617 -0.0913,0.0724 0.0617,-0.17492 0.0154,-0.41351 -0.10408,-0.56832 -0.28966,-0.36861 -0.86665,-0.3284 -1.07917,0.0744 -0.10723,0.20307 -0.1006,0.58105 0.0154,0.77816 0.26908,0.46578 1.03251,0.39675 1.35305,-0.12265 0.0846,-0.13672 0.085,-0.13337 0.0843,0.73406 -5.1e-4,0.8173 -0.007,0.88278 -0.10294,1.05073 -0.14604,0.25602 -0.3091,0.36057 -0.59366,0.38201 -0.18906,0.0134 -0.28926,-0.003 -0.44923,-0.0878 -0.31921,-0.1642 -0.36693,-0.30159 -0.36693,-1.05871 l -8e-5,-0.63132 -0.17124,0.071 c -0.37973,0.15884 -0.56751,0.46914 -0.59854,0.98867 -0.0275,0.47182 0.0753,0.82621 0.30989,1.06065 0.10951,0.10924 0.21708,0.17425 0.28966,0.17425 0.10448,0 0.11842,0.0201 0.14637,0.2406 0.0846,0.67207 0.23959,0.89544 0.81855,1.18054 0.26908,0.13203 0.33704,0.14677 0.59968,0.13069 l 0.2967,-0.0201 -0.0603,0.1394 c -0.28034,0.64406 -0.76744,1.58461 -0.82126,1.58461 -0.10408,0 -0.67845,-0.18632 -0.86021,-0.2788 -0.0913,-0.0469 -0.21788,-0.14544 -0.28034,-0.2205 l -0.11414,-0.13605 -0.31606,0.32304 c -0.17398,0.17693 -0.29281,0.33107 -0.26479,0.34179 0.35801,0.13605 0.74652,0.55894 1.03071,1.12439 l 0.17901,0.35587 -0.14831,0.10991 c -0.59192,0.43629 -1.37984,0.95134 -1.40733,0.9193 -0.0154,-0.0201 -0.0596,-0.13136 -0.0916,-0.24529 -0.0765,-0.26874 -0.24154,-0.59178 -0.39595,-0.77554 -0.20776,-0.24731 -0.84727,-0.50868 -1.243,-0.50868 -0.11956,0 -0.1914,-0.0469 -0.3619,-0.2272 -0.63467,-0.6785 -1.43964,-0.59781 -1.95255,0.19637 -0.31761,0.49125 -0.44575,1.12244 -0.29784,1.46665 0.0769,0.17894 0.3099,0.40346 0.55077,0.53012 0.21238,0.11192 0.29669,0.0824 -0.86642,0.3036 l -0.82573,0.15682 -0.16038,-0.12867 c -0.32343,-0.25937 -0.48448,-0.81884 -0.41458,-1.44078 0.0228,-0.22921 0.0154,-0.26339 -0.0409,-0.24261 -0.0395,0.0134 -0.1957,0.0704 -0.34676,0.12733 -0.23101,0.0871 -0.36344,0.10388 -0.82572,0.10187 -0.54071,-10e-4 -0.6324,-0.0201 -1.12399,-0.22049 -0.059,-0.0201 -0.0684,0.0469 -0.0684,0.48857 0,0.63199 -0.0745,0.8616 -0.36847,1.13222 -0.11145,0.10254 -0.21902,0.18498 -0.23839,0.18163 -0.0154,-0.002 -0.42765,-0.0838 -0.90707,-0.17895 z m 2.7977,-2.93329 c 0.0695,-0.21849 0.65377,-0.55358 1.3203,-0.75699 0.60472,-0.1843 1.60518,-0.37798 2.50585,-0.48522 0.44427,-0.0536 0.97029,-0.12465 1.16891,-0.1595 0.83975,-0.14744 1.31702,-0.59245 1.57512,-1.46792 0.0753,-0.25602 0.0823,-0.70806 0.0948,-6.59443 l 0.0154,-6.31918 h -6.74462 -6.74466 l 3.9e-4,6.1586 c 2.3e-4,4.04361 0.0154,6.25967 0.0483,6.45275 0.14677,0.90181 0.5895,1.47516 1.3146,1.70081 0.1522,0.0469 0.58407,0.11997 0.95938,0.15951 2.34353,0.25266 4.02535,0.74458 4.32035,1.26304 0.0913,0.16018 0.12969,0.1709 0.16889,0.0469 z m 3.03572,-2.34501 c -0.0422,-0.0603 -0.0784,-0.0771 -0.0974,-0.0469 -0.0469,0.0751 -0.24113,0.0603 -0.27223,-0.0201 -0.0154,-0.0402 -0.0275,-0.16285 -0.0275,-0.27142 0,-0.39609 0.32853,-0.60787 1.01378,-0.6521 l 0.3975,-0.0268 0.0745,-0.15548 c 0.0409,-0.0858 0.0741,-0.26473 0.0741,-0.39877 0,-0.19301 -0.0275,-0.2855 -0.13899,-0.45238 -0.18947,-0.28684 -0.2093,-0.2989 -0.64647,-0.40815 -0.67099,-0.16754 -1.0212,-0.42021 -1.07843,-0.77775 -0.0308,-0.20575 -0.063,-0.2138 -0.49367,-0.12734 -0.1833,0.0402 -0.29864,0.0911 -0.38288,0.18028 l -0.11996,0.12734 -0.1126,-0.0885 c -0.20735,-0.16352 -0.83372,-0.0791 -0.9108,0.12131 -0.0194,0.0536 0.0496,0.14945 0.25005,0.33442 0.3227,0.29757 0.37745,0.39006 0.37745,0.63937 0,0.23792 -0.11259,0.37061 -0.34401,0.40613 -0.41572,0.067 -1.50581,0.72911 -1.74058,1.06206 -0.12854,0.18229 -0.14174,0.18966 -0.16426,0.0958 -0.0154,-0.0536 -0.0777,-0.14275 -0.14295,-0.191 -0.11843,-0.0885 -0.11957,-0.0878 -0.36579,0.0268 -0.47571,0.22049 -0.65009,0.20776 -0.83055,-0.0603 -0.0596,-0.0885 -0.17901,-0.19369 -0.26519,-0.23524 l -0.15763,-0.0751 0.16621,-0.16621 c 0.0913,-0.0911 0.20152,-0.1662 0.24502,-0.1662 0.065,0 0.0688,-0.0134 0.0194,-0.0684 -0.0349,-0.0402 -0.0959,-0.069 -0.14328,-0.069 -0.0476,0 -0.0862,-0.0335 -0.0862,-0.071 0,-0.0965 0.20615,-0.29556 0.30715,-0.2969 0.0707,-8.7e-4 0.0657,-0.0134 -0.0228,-0.0844 l -0.10837,-0.0838 0.1262,-0.0992 c 0.20856,-0.16419 0.35527,-0.13135 0.66068,0.15013 0.56162,0.51605 0.89306,0.55358 1.44019,0.16218 0.39548,-0.28282 0.3936,-0.43696 -0.0114,-0.87969 -0.2481,-0.27143 -0.37081,-0.50533 -0.37081,-0.70578 0,-0.38469 0.33047,-0.84954 0.72371,-1.01869 0.33469,-0.14409 0.89857,-0.19771 1.71906,-0.16353 l 0.72248,0.0335 v -0.14141 c 0,-0.10723 -0.0409,-0.17559 -0.17163,-0.28416 -0.22639,-0.18766 -0.52034,-0.26339 -1.14239,-0.29489 -1.38667,-0.0697 -2.45642,-0.52007 -2.78123,-1.1721 l -0.11226,-0.22518 -0.13203,0.0804 c -0.16815,0.10321 -0.24502,0.19637 -0.28577,0.35051 l -0.0308,0.12265 -0.14992,-0.12533 c -0.14409,-0.1213 -0.1522,-0.12264 -0.21594,-0.0402 -0.0349,0.0469 -0.0905,0.16353 -0.11956,0.25869 l -0.0543,0.17291 -0.10837,-0.18229 c -0.0688,-0.11594 -0.13163,-0.17291 -0.17358,-0.15682 -0.0663,0.0201 -0.27807,0.27813 -0.37665,0.4497 -0.0496,0.0865 -0.057,0.0784 -0.0862,-0.0999 -0.0154,-0.10723 -0.0402,-0.19503 -0.0509,-0.19503 -0.0523,0 -0.32538,0.15951 -0.42176,0.24596 l -0.1087,0.0979 0.0154,-0.17358 c 0.0154,-0.14342 0.007,-0.16822 -0.0516,-0.14275 -0.379,0.16353 -0.61122,0.12935 -0.75902,-0.10991 -0.085,-0.13806 -0.10603,-0.14745 -0.27491,-0.12265 l -0.1829,0.0268 0.13357,-0.13873 c 0.0734,-0.0764 0.17204,-0.15213 0.21942,-0.16688 0.13632,-0.0469 0.0114,-0.15682 -0.17666,-0.15682 -0.0858,0 -0.15495,-0.0201 -0.15495,-0.0402 0,-0.13404 0.10951,-0.28484 0.26131,-0.36325 l 0.17398,-0.0891 -0.21902,-0.10589 -0.21862,-0.10657 0.15026,-0.0791 c 0.21239,-0.11125 0.55351,-0.15213 0.68528,-0.0818 0.059,0.0335 0.20696,0.14074 0.32927,0.24395 0.2093,0.17492 0.24234,0.18832 0.56041,0.20374 0.34207,0.0134 0.81901,-0.0885 1.13726,-0.25334 l 0.13129,-0.0677 -0.10723,-0.11393 c -0.19335,-0.20575 -0.39789,-0.30494 -0.57026,-0.27679 l -0.15763,0.0268 v -0.22451 -0.22452 l -0.18913,0.067 c -0.23919,0.0844 -0.22364,0.0885 -0.22445,-0.0603 -4.3e-4,-0.0697 -0.0154,-0.17425 -0.0275,-0.23322 -0.0228,-0.0932 -0.0489,-0.10321 -0.17901,-0.0791 l -0.14992,0.0268 0.065,-0.21513 c 0.13049,-0.43362 0.0745,-0.60988 -0.2221,-0.7037 -0.20776,-0.067 -0.26365,-0.1575 -0.26365,-0.4363 0,-0.28148 -0.0885,-0.43763 -0.3215,-0.56899 l -0.19221,-0.10857 0.11266,-0.11326 c 0.068,-0.0684 0.18752,-0.12265 0.30286,-0.13806 0.13511,-0.0201 0.19027,-0.0469 0.18987,-0.0999 -0.001,-0.12399 -0.0684,-0.19235 -0.2528,-0.25602 l -0.17552,-0.0603 0.21902,-0.0469 c 0.13585,-0.0268 0.27417,-0.0335 0.36344,-0.003 0.0792,0.0201 0.15958,0.0402 0.17861,0.0402 0.0663,0 0.0349,-0.10991 -0.063,-0.21312 l -0.0982,-0.10388 0.1782,0.0469 c 0.2532,0.0697 0.48133,0.19369 0.61115,0.33309 0.0986,0.10589 0.11534,0.17693 0.14295,0.60384 0.0275,0.45506 0.0436,0.51002 0.24462,0.91522 0.16353,0.32839 0.29321,0.51202 0.54541,0.76978 0.18215,0.18631 0.38596,0.37397 0.45271,0.41686 0.14952,0.0958 0.35996,0.0603 0.32967,-0.0536 -0.0154,-0.067 0.0228,-0.0771 0.29977,-0.0771 0.17627,-1.3e-4 0.3347,-0.0134 0.35219,-0.0335 0.0154,-0.0134 -0.0228,-0.0999 -0.0948,-0.18296 l -0.12734,-0.15079 0.22478,-0.0268 c 0.12385,-0.0134 0.28577,-0.0536 0.3611,-0.0831 l 0.13632,-0.0536 -0.19724,-0.0885 c -0.19181,-0.0858 -0.2225,-0.18162 -0.0576,-0.18162 0.11883,0 0.59574,-0.24864 0.79731,-0.41552 0.18752,-0.15548 0.3231,-0.38536 0.37705,-0.63936 l 0.0349,-0.16018 -0.20079,0.21178 c -0.22874,0.24127 -0.39542,0.33778 -0.70832,0.40815 -0.32966,0.0731 -0.43596,0.0335 -0.58172,-0.23189 -0.0699,-0.12532 -0.1262,-0.23792 -0.1262,-0.25065 0,-0.0134 0.10482,-0.0201 0.23383,-0.0201 0.39729,0 0.63769,-0.17895 0.63769,-0.47383 0,-0.13672 -0.1138,-0.29153 -0.27565,-0.37531 -0.14832,-0.0771 -0.62985,-0.0925 -0.85672,-0.0268 l -0.14563,0.0402 -0.11769,-0.29489 c -0.065,-0.16219 -0.11768,-0.30226 -0.11768,-0.31164 0,-0.006 0.19181,-0.0335 0.42718,-0.0469 0.40888,-0.0335 0.43227,-0.0402 0.54366,-0.1776 0.0643,-0.0804 0.22793,-0.20776 0.36425,-0.28282 0.22833,-0.12667 0.28269,-0.13672 0.7064,-0.13672 0.40647,0 0.49018,0.0134 0.73398,0.12867 0.30983,0.14476 0.58675,0.39006 0.71001,0.62864 0.0456,0.0878 0.13665,0.33644 0.20193,0.5509 0.0657,0.21513 0.15146,0.4363 0.19101,0.49326 0.0889,0.12734 0.067,0.12734 -0.16889,0.006 -0.10207,-0.0536 -0.19724,-0.0845 -0.21004,-0.071 -0.059,0.0603 0.0496,0.45037 0.17123,0.61925 l 0.13438,0.18565 -0.15535,0.0268 -0.15535,0.0268 0.065,0.15482 c 0.0924,0.22183 0.0796,0.62261 -0.0308,1.04087 -0.0773,0.28617 -0.0866,0.38536 -0.0469,0.47316 0.0596,0.13069 0.0543,0.13203 -0.15568,0.0469 -0.15495,-0.067 -0.16232,-0.0603 -0.2396,0.0536 -0.0516,0.0784 -0.0777,0.20038 -0.073,0.34113 l 0.007,0.21915 -0.19885,-0.13672 c -0.1087,-0.0751 -0.20735,-0.13672 -0.21901,-0.13672 -0.0114,0 -0.0308,0.0978 -0.0456,0.21781 -0.0536,0.46512 0.16427,0.95811 0.5249,1.18571 0.32538,0.20508 0.80767,0.38134 1.23512,0.4497 0.48381,0.0784 0.80192,0.2359 1.057,0.5261 l 0.17941,0.20374 0.18289,-0.0536 c 0.1006,-0.0335 0.21279,-0.10053 0.24697,-0.15615 0.10368,-0.16353 0.13129,-0.46914 0.0727,-0.81476 -0.0623,-0.36324 -0.19181,-0.58709 -0.63468,-1.08879 -0.56852,-0.64406 -0.87881,-1.24227 -0.87881,-1.69539 0,-0.58105 0.60472,-1.15662 1.21571,-1.15662 0.3103,0 0.55184,0.11997 0.87089,0.43094 0.31257,0.30494 0.43763,0.31633 0.53474,0.0469 0.0483,-0.13404 0.068,-0.15012 0.11923,-0.0999 0.0308,0.0335 0.0734,0.13605 0.0881,0.22921 0.0228,0.14744 0.0114,0.18631 -0.12774,0.32169 -0.0859,0.0851 -0.18484,0.1642 -0.2217,0.17626 -0.0563,0.0201 -0.055,0.0469 0.0114,0.18631 0.0429,0.0905 0.078,0.20843 0.078,0.26205 0,0.14275 -0.11024,0.38 -0.2233,0.48053 -0.0866,0.0771 -0.11923,0.0811 -0.27921,0.0335 -0.23182,-0.0697 -0.44929,-0.28752 -0.48696,-0.4879 -0.0275,-0.15683 -0.0349,-0.15683 -0.2796,-0.15415 -0.28577,0.003 -0.4056,-0.073 -0.45319,-0.28952 -0.0389,-0.17425 -0.007,-0.2024 0.12352,-0.11125 0.14175,0.0999 0.29475,0.0925 0.4056,-0.0201 0.18946,-0.18966 0.0672,-0.44098 -0.23537,-0.48522 -0.33121,-0.0469 -0.59057,0.24328 -0.59051,0.66416 4e-5,0.43429 0.17827,0.73494 1.0343,1.74451 0.3926,0.46311 0.61503,1.05328 0.61644,1.63608 0.001,0.52878 -0.3607,1.04061 -0.82515,1.16566 l -0.16969,0.0469 -0.0275,0.49125 c -0.0228,0.43897 -0.0154,0.50666 0.063,0.63869 0.0913,0.14811 0.37397,0.35185 0.69833,0.50466 l 0.17398,0.0824 -0.1833,0.0938 -0.1833,0.0938 0.24657,0.50734 c 0.13551,0.27947 0.32035,0.60451 0.41076,0.72294 0.0905,0.11862 0.16426,0.25132 0.16426,0.29488 -5.4e-4,0.20977 -0.3623,0.57369 -0.72391,0.7289 -0.0831,0.0335 -0.17358,0.11461 -0.20113,0.17492 l -0.0503,0.10991 -0.12854,-0.0952 c -0.17084,-0.126 -0.43503,-0.0911 -0.73918,0.0978 -0.26908,0.16754 -0.28771,0.16955 -0.3743,0.0469 z m -3.05017,-11.70826 -0.0154,-0.19771 -0.21399,0.0697 -0.21393,0.0697 0.22908,0.12064 c 0.12619,0.067 0.22947,0.12465 0.22947,0.12801 1.9e-4,0.003 -0.007,-0.0824 -0.0154,-0.19034 z m -1.22355,0.98043 c -0.65344,-0.0268 -0.83575,-0.0945 -1.03134,-0.36928 -0.1394,-0.19637 -0.11534,-0.25199 0.0623,-0.14208 0.1254,0.0777 0.22907,0.0958 0.55238,0.0958 0.43555,0 0.60196,0.0603 0.89876,0.31566 0.0881,0.0764 0.15025,0.13672 0.13745,0.13336 -0.0154,-0.003 -0.29126,-0.0201 -0.61932,-0.0335 z m -2.52304,15.42072 c -0.10093,-0.0402 -0.19141,-0.0784 -0.20113,-0.0858 -0.0114,-0.006 0.0469,-0.0865 0.1262,-0.17693 0.16312,-0.18565 0.17666,-0.27612 0.067,-0.43362 -0.0699,-0.0992 -0.0699,-0.10723 -0.002,-0.0818 0.0409,0.0134 0.16352,0.0536 0.27223,0.0811 0.27337,0.073 0.31298,0.11661 0.31298,0.34984 0,0.16018 -0.0228,0.22653 -0.12151,0.31566 -0.13859,0.12868 -0.19569,0.13203 -0.45204,0.0335 z m 6.95107,-0.0469 c -0.266,-0.26607 -0.15536,-0.54755 0.26291,-0.66818 0.23263,-0.067 0.2396,-0.067 0.19496,0.0134 -0.0784,0.14677 -0.0516,0.26607 0.0963,0.43495 l 0.14295,0.16219 -0.15609,0.067 c -0.33161,0.13873 -0.39139,0.13672 -0.54031,-0.0134 z m 6.28886,-17.22448 -0.10911,-0.2654 0.10174,-0.1079 c 0.19724,-0.2091 0.45586,-0.18833 0.59566,0.0469 l 0.0913,0.15549 h -0.17399 c -0.19764,0 -0.35533,0.13269 -0.38093,0.32102 -0.0154,0.0952 -0.0349,0.069 -0.12466,-0.15079 z m -19.27182,0.0603 c -0.0695,-0.16687 -0.17009,-0.23054 -0.36465,-0.23054 -0.16313,0 -0.16661,-0.0134 -0.0637,-0.18498 0.0924,-0.15682 0.19375,-0.18899 0.40828,-0.13001 0.23578,0.067 0.28658,0.20776 0.17083,0.4765 l -0.0913,0.21111 z m 4.41463,-2.89851 c -0.0753,-0.0751 -0.0727,-0.19838 0.007,-0.26272 0.10409,-0.0865 1.2939,-0.36324 1.97872,-0.46042 1.1031,-0.15682 2.06438,-0.19972 3.9152,-0.17425 1.83019,0.0201 2.49532,0.0791 3.49353,0.28349 0.29006,0.0603 0.67208,0.15683 0.84868,0.2158 0.26479,0.0885 0.32343,0.12667 0.33664,0.21581 0.0275,0.18832 -0.0449,0.1977 -0.54641,0.0764 -1.16693,-0.28349 -2.5564,-0.40413 -4.65274,-0.4048 -2.18114,-2.7e-4 -3.67468,0.15482 -5.22063,0.54286 -0.0556,0.0134 -0.127,-3.4e-4 -0.15843,-0.0335 z m -2.00998,-0.0958 c -0.12345,-0.0978 -0.2924,-0.40882 -0.29395,-0.54353 -5.4e-4,-0.0402 0.0916,-0.1394 0.20542,-0.22116 l 0.20655,-0.14811 2e-4,0.12935 c 1.9e-4,0.16888 0.153,0.41551 0.29783,0.48119 0.063,0.0268 0.11494,0.067 0.11494,0.0818 0,0.0134 -0.0913,0.0945 -0.20387,0.17291 l -0.20388,0.14342 -0.12311,-0.0972 z m 14.25831,-0.0402 c -0.17787,-0.12265 -0.24737,-0.22049 -0.15997,-0.22251 0.10133,-0.003 0.25903,-0.19435 0.32812,-0.39876 l 0.0784,-0.23256 0.18872,0.15683 c 0.1829,0.15213 0.18678,0.16152 0.14135,0.32705 -0.0496,0.17894 -0.16889,0.35655 -0.30246,0.45037 -0.065,0.0469 -0.11226,0.0335 -0.27337,-0.0798 z m -12.1864,-0.47852 c -0.0154,-0.0335 0.1382,-0.19972 0.36466,-0.39474 0.38361,-0.33108 0.44219,-0.40279 0.33047,-0.40413 -0.28772,-0.003 -1.16305,-0.0999 -1.1947,-0.13203 -0.0603,-0.0603 -0.002,-0.0824 0.59319,-0.23188 1.44395,-0.36124 2.73436,-0.50935 4.69898,-0.54018 2.28933,-0.0335 3.88927,0.11326 5.60724,0.52074 0.72182,0.1709 0.63205,0.2406 -0.42437,0.32572 l -0.43355,0.0335 0.42216,0.36458 c 0.23175,0.20039 0.42202,0.39139 0.42202,0.42423 0,0.0744 0.0308,0.0771 -0.4239,-0.0335 -2.55978,-0.60786 -6.97853,-0.59044 -9.58588,0.0402 -0.28342,0.0684 -0.35761,0.073 -0.37624,0.0201 z m 1.39472,-0.33912 c 0.0503,-0.0536 0.0916,-0.12264 0.0916,-0.16084 0,-0.0402 -0.0409,-0.10991 -0.0916,-0.16018 -0.0503,-0.0536 -0.12271,-0.0918 -0.16038,-0.0918 -0.092,0 -0.25246,0.16553 -0.25246,0.26003 0,0.10589 0.13397,0.24395 0.23651,0.24395 0.0469,0 0.12587,-0.0402 0.17633,-0.0918 z m 7.91551,-0.067 c 0.0563,-0.0865 0.0623,-0.13269 0.0228,-0.20507 -0.11414,-0.21313 -0.38677,-0.20173 -0.44213,0.0201 -0.0643,0.25535 0.27532,0.40614 0.41921,0.18699 z m -6.36807,-0.22451 c 0.27377,-0.14007 0.39246,-0.29019 0.37122,-0.47047 -0.0228,-0.19972 -0.22016,-0.31164 -0.58414,-0.33175 -0.43543,-0.0201 -0.79641,0.0851 -1.02276,0.31164 -0.19998,0.19972 -0.21707,0.31164 -0.071,0.44903 0.16815,0.15749 0.31218,0.19502 0.69953,0.17894 0.28811,-0.0134 0.41867,-0.0402 0.60699,-0.13806 z m -0.88227,-0.0134 c -0.26714,-0.0603 -0.34911,-0.11997 -0.3347,-0.2406 0.0194,-0.18498 0.379,-0.34381 0.82158,-0.36459 0.66966,-0.0335 0.8665,0.2587 0.32926,0.48589 -0.22444,0.0952 -0.65115,0.15683 -0.81606,0.1193 z m 6.54304,0.0469 c 0.45466,-0.23457 0.11145,-0.72126 -0.59902,-0.84826 -0.24348,-0.0402 -0.3615,-0.0402 -0.54212,-1.4e-4 -0.73016,0.17492 -0.47476,0.7716 0.40131,0.93693 0.18793,0.0335 0.59433,-0.0134 0.73988,-0.0885 z m -0.90048,-0.10857 c -0.17941,-0.0469 -0.40412,-0.16219 -0.47865,-0.25199 -0.15877,-0.19101 0.1833,-0.3733 0.62435,-0.33242 0.64506,0.0603 1.02711,0.39675 0.63568,0.56028 -0.16621,0.0697 -0.54587,0.0804 -0.78134,0.0201 z m -3.8286,0.13337 c 0.1522,-0.0818 0.19844,-0.21916 0.11494,-0.34582 -0.0847,-0.12935 -0.23417,-0.14476 -0.35453,-0.0335 -0.10911,0.0992 -0.10643,0.2225 0.0114,0.3371 0.10602,0.1059 0.11413,0.10724 0.23142,0.0469 z m 2.86945,-0.11394 c 0.0703,-0.10656 0.0703,-0.12264 0,-0.2292 -0.12151,-0.18497 -0.43998,-0.11393 -0.43998,0.0978 0,0.25199 0.30172,0.34247 0.43998,0.13135 z m -0.61202,-0.37731 c 0.0436,-0.0134 0.0804,-0.0402 0.0804,-0.0536 0,-0.0201 -0.23417,-0.14141 -0.52061,-0.27411 l -0.52067,-0.2406 -0.51149,0.23993 c -0.28115,0.13203 -0.51149,0.25333 -0.51149,0.26875 0,0.0134 0.23141,0.13404 0.51437,0.26271 l 0.51431,0.23256 0.43756,-0.20508 c 0.24033,-0.11326 0.47363,-0.2158 0.51779,-0.2292 z m -1.3417,0.0952 -0.34408,-0.16017 0.33858,-0.15683 c 0.18638,-0.0865 0.35996,-0.15682 0.38596,-0.15682 0.0707,0 0.67441,0.28416 0.67258,0.31633 -0.002,0.0268 -0.64533,0.33107 -0.68652,0.32236 -0.0154,-0.002 -0.17787,-0.0764 -0.36693,-0.16554 z m -3.55839,0.10723 c 0.16889,-0.12331 0.0597,-0.44366 -0.15147,-0.44366 -0.10642,0 -0.2357,0.14074 -0.2357,0.25668 0,0.10053 0.15026,0.24797 0.2536,0.24797 0.0275,0 0.0874,-0.0268 0.13357,-0.0603 z m 8.21725,-0.0978 c 0.0909,-0.13806 0.0509,-0.28819 -0.0924,-0.35387 -0.22291,-0.10186 -0.41733,0.1441 -0.27994,0.35387 0.097,0.14811 0.27531,0.14811 0.37235,0 z m -5.511,-0.23457 c 0.0998,-0.0999 0.0901,-0.26473 -0.0228,-0.3666 -0.0866,-0.0791 -0.10562,-0.0804 -0.21788,-0.0134 -0.14952,0.0838 -0.18175,0.24797 -0.0742,0.36794 0.0967,0.10656 0.21748,0.11326 0.31452,0.0134 z m 2.77874,-0.0201 c 0.0503,-0.0536 0.0916,-0.11795 0.0916,-0.15012 0,-0.10388 -0.1398,-0.26272 -0.23175,-0.26272 -0.10563,0 -0.27297,0.15415 -0.27297,0.252 0,0.0885 0.16346,0.25266 0.25273,0.25266 0.0389,0 0.11065,-0.0402 0.16037,-0.0918 z m -7.13944,0.99209 -0.28115,-0.0536 0.139,-0.24529 c 0.12854,-0.22719 0.14872,-0.24261 0.27572,-0.21781 0.0753,0.0134 0.28309,0.0268 0.4633,0.0268 l 0.32692,0.002 -0.29823,0.27277 c -0.16427,0.15012 -0.3087,0.27008 -0.32116,0.2674 -0.0154,-0.003 -0.14992,-0.0268 -0.3044,-0.0536 z m 10.60758,-0.22988 -0.27062,-0.24328 0.21976,-0.0335 c 0.12036,-0.0134 0.32537,-0.0335 0.45445,-0.0335 0.22988,0 0.23765,0.003 0.36271,0.21178 0.0703,0.11662 0.11997,0.21983 0.11105,0.22921 -0.0194,0.0201 -0.48287,0.10991 -0.55539,0.10723 -0.0275,-0.001 -0.17277,-0.11125 -0.32189,-0.24529 z m -11.08275,-0.73862 c -0.0858,-0.10254 -0.0154,-0.28014 0.12506,-0.3371 0.45097,-0.17693 1.67743,-0.45707 2.62691,-0.59781 1.22433,-0.1823 1.6894,-0.21112 3.35635,-0.21179 0.89986,-2.6e-4 1.62964,-0.006 1.62184,-0.0134 -0.0114,-0.006 -0.11957,-0.0402 -0.24932,-0.0764 -0.42369,-0.11192 -0.9374,-0.48656 -1.24529,-0.90784 l -0.12619,-0.17291 -0.16816,0.2292 c -0.49989,0.68085 -1.09727,0.95402 -1.99309,0.9112 -0.36927,-0.0134 -0.45077,-0.0402 -0.78896,-0.20709 l -0.37705,-0.18766 -0.22096,0.21781 c -0.5452,0.53683 -1.4201,0.77354 -2.10628,0.57034 -0.32618,-0.0965 -0.51377,-0.19503 -0.84669,-0.443 -0.23296,-0.17291 -0.29864,-0.20106 -0.43938,-0.18363 -0.13947,0.0134 -0.18136,2.7e-4 -0.26634,-0.1079 -0.11259,-0.14342 -0.0994,-0.32035 0.0308,-0.42021 0.071,-0.0536 0.068,-0.0744 -0.0349,-0.27143 -0.0623,-0.11728 -0.21278,-0.32236 -0.33436,-0.45506 l -0.22136,-0.24194 -0.0944,0.0938 c -0.071,0.071 -0.12855,0.0878 -0.23571,0.067 -0.33784,-0.0677 -0.42363,-0.40882 -0.16661,-0.66618 0.19067,-0.19033 0.44682,-0.20709 0.72162,-0.0469 0.18022,0.10522 0.19221,0.10723 0.19221,0.0268 0,-0.0811 0.19449,-0.26004 0.28269,-0.26004 0.19999,0 0.36928,0.50801 0.35219,1.05844 -0.0114,0.30427 0.003,0.3733 0.11105,0.55559 0.17747,0.3036 0.584,0.65612 0.87042,0.75584 0.16501,0.0603 0.37203,0.0845 0.65525,0.0845 0.37511,0 0.44246,-0.0134 0.72007,-0.15013 0.18216,-0.0898 0.37705,-0.23121 0.48073,-0.3485 0.15997,-0.18229 0.19998,-0.20173 0.48408,-0.24261 0.29857,-0.0402 0.31646,-0.0402 0.50465,0.0865 0.44863,0.30024 1.1015,0.34783 1.60661,0.11661 0.3048,-0.13873 0.69347,-0.48656 0.81804,-0.73105 0.12586,-0.24663 0.23651,-0.76274 0.20233,-0.9447 -0.0389,-0.20709 0.0707,-0.37598 0.24388,-0.37598 0.23725,0 0.28771,0.0811 0.30172,0.48321 0.0154,0.48053 0.14831,0.8175 0.44675,1.14395 0.55995,0.61256 1.37432,0.72783 2.13023,0.30159 0.2081,-0.11795 0.26446,-0.12935 0.51404,-0.10656 0.25903,0.0201 0.29784,0.0402 0.51659,0.25333 0.32189,0.30963 0.66034,0.45908 1.10157,0.48455 0.60592,0.0335 1.05336,-0.15883 1.40873,-0.60987 0.28892,-0.3666 0.30595,-0.41753 0.2916,-0.85403 -0.0154,-0.44099 0.0395,-0.70323 0.18055,-0.88318 0.15998,-0.20374 0.30595,-0.1595 0.4804,0.14409 0.003,0.006 0.0982,-0.0268 0.2089,-0.0791 0.24267,-0.10991 0.4131,-0.11728 0.59265,-0.0201 0.1658,0.0858 0.22873,0.19838 0.22873,0.40949 0,0.29355 -0.29475,0.44769 -0.53461,0.27947 -0.0909,-0.0603 -0.11105,-0.0536 -0.3479,0.19637 -0.24656,0.25869 -0.40204,0.49594 -0.40204,0.61456 0,0.0335 0.0422,0.0865 0.0944,0.1193 0.0727,0.0469 0.0916,0.0978 0.0804,0.22719 -0.0154,0.21581 -0.19027,0.33108 -0.38945,0.26071 -0.11266,-0.0402 -0.14249,-0.0335 -0.23336,0.0777 -0.14718,0.17492 -0.53864,0.42222 -0.84961,0.5375 -0.3483,0.12867 -0.85614,0.13135 -1.3087,0.006 -0.3794,-0.10522 -0.61631,-0.24127 -0.93194,-0.53683 l -0.21942,-0.20508 -0.24268,0.13806 c -0.31257,0.17694 -0.67432,0.28283 -0.99662,0.28953 l -0.25548,0.006 0.27532,0.0402 c 0.15139,0.0201 0.56417,0.071 0.91752,0.11326 0.80192,0.0932 1.82515,0.29422 2.45136,0.4812 0.59071,0.17626 0.64513,0.20441 0.64513,0.33912 0,0.21513 -0.0819,0.22049 -0.74497,0.0536 -1.3758,-0.34649 -2.88991,-0.52477 -4.78293,-0.5623 -2.20301,-0.0469 -4.14038,0.1642 -6.0866,0.65344 -0.5206,0.13069 -0.55874,0.13337 -0.63346,0.0402 z m 0.12426,-1.79879 -0.35688,-0.069 0.21627,-0.19034 c 0.11923,-0.10522 0.26519,-0.2292 0.32504,-0.27612 0.19489,-0.15347 0.0745,-0.13068 -0.29897,0.0603 l -0.3666,0.1843 0.0422,-0.19234 c 0.16191,-0.74559 0.318,-1.052 0.56999,-1.1152 0.16702,-0.0402 0.26212,0.0268 0.31801,0.22585 0.0349,0.13069 0.061,0.15616 0.11494,0.12198 0.11768,-0.0744 0.39206,-0.0536 0.47416,0.0402 0.11259,0.12466 0.0944,0.34582 -0.0422,0.50801 l -0.11842,0.14074 0.11922,0.0536 c 0.22948,0.10455 0.21822,0.38938 -0.0194,0.50868 -0.19221,0.0965 -0.48502,0.0972 -0.97613,0.002 z m 11.02264,-5.4e-4 c -0.21353,-0.10924 -0.24616,-0.3237 -0.0707,-0.46243 l 0.11769,-0.0925 -0.1386,-0.13806 c -0.16775,-0.16755 -0.18906,-0.4068 -0.0476,-0.53481 0.0718,-0.067 0.13819,-0.0771 0.31606,-0.0536 0.19804,0.0201 0.2225,0.0134 0.20428,-0.0536 -0.0114,-0.0402 6.6e-4,-0.13471 0.0275,-0.20374 0.0402,-0.10656 0.0738,-0.12533 0.2272,-0.12533 0.14717,0 0.20468,0.0268 0.31532,0.15415 0.11769,0.13404 0.35179,0.62529 0.44401,0.93089 l 0.0275,0.0992 -0.34756,-0.10991 c -0.1914,-0.0603 -0.37236,-0.10991 -0.40312,-0.10991 -0.0308,2e-4 0.10723,0.10857 0.30675,0.2406 l 0.3623,0.23993 -0.38522,0.12264 c -0.55599,0.17693 -0.76407,0.19838 -0.95884,0.0985 z m -8.93466,-0.24462 c -0.19918,-0.0804 -0.2225,-0.39072 -0.0389,-0.51404 0.17358,-0.11594 0.44105,0.0335 0.43971,0.24395 -8.6e-4,0.13672 -0.0389,0.19704 -0.16815,0.26473 -0.11454,0.0603 -0.097,0.0603 -0.23296,0.003 z m 7.60432,-0.0335 c -0.1914,-0.0684 -0.2408,-0.3237 -0.0913,-0.47248 0.12774,-0.12868 0.29516,-0.11595 0.40949,0.0268 0.12352,0.15616 0.11956,0.22519 -0.0154,0.36325 -0.11226,0.11192 -0.16929,0.12733 -0.30092,0.0811 z m -6.95208,-0.12667 c -0.0623,-0.0603 -0.11266,-0.14141 -0.11266,-0.17693 0,-0.11728 0.18598,-0.30627 0.30132,-0.30627 0.14409,0 0.29475,0.15213 0.29475,0.29823 0,0.13873 -0.14832,0.29824 -0.27726,0.29824 -0.0516,0 -0.14369,-0.0536 -0.20655,-0.11327 z m 6.12631,-0.0201 c -0.0503,-0.0536 -0.0916,-0.14342 -0.0916,-0.20642 0,-0.13873 0.14831,-0.29824 0.27726,-0.29824 0.10716,0 0.31921,0.19235 0.31921,0.2902 0,0.0335 -0.0429,0.11929 -0.0952,0.18564 -0.11413,0.14543 -0.28155,0.15683 -0.40955,0.0268 z m -4.53139,-0.39273 c -0.10951,-0.0764 -0.13317,-0.24328 -0.0556,-0.38872 0.0409,-0.0757 0.0228,-0.0925 -0.13592,-0.13604 -0.31727,-0.0858 -0.42021,-0.3666 -0.21084,-0.57637 0.071,-0.0704 0.1654,-0.11326 0.2532,-0.11326 h 0.14054 l -0.0699,-0.13538 c -0.0913,-0.17626 -0.0881,-0.24663 0.0154,-0.33912 0.13551,-0.12264 0.42336,-0.0978 0.63172,0.0536 0.28772,0.20977 0.66256,0.56296 0.6387,0.60183 -0.0154,0.0201 -0.14798,0.0469 -0.30132,0.067 -0.46994,0.0536 -0.52557,0.10187 -0.16159,0.14141 0.59755,0.067 0.59004,0.0469 0.19416,0.41887 -0.48602,0.45372 -0.72112,0.55492 -0.93771,0.40346 z m 2.88824,-0.006 c -0.0834,-0.0402 -0.30829,-0.22049 -0.49875,-0.39876 -0.39502,-0.36861 -0.40239,-0.35319 0.19489,-0.4182 0.36425,-0.0402 0.30869,-0.0885 -0.16159,-0.14141 -0.15374,-0.0134 -0.28885,-0.0469 -0.29937,-0.067 -0.0228,-0.0402 0.29395,-0.34984 0.58749,-0.56966 0.17391,-0.13002 0.26365,-0.16621 0.41726,-0.16621 0.29703,0 0.43295,0.19033 0.28034,0.39273 -0.0986,0.13002 -0.0866,0.1575 0.0695,0.1575 0.20696,0 0.38362,0.19234 0.34676,0.37731 -0.0389,0.19369 -0.10019,0.25602 -0.30909,0.31231 -0.15569,0.0402 -0.17318,0.0603 -0.13203,0.13471 0.0777,0.14476 0.0543,0.31164 -0.0556,0.38871 -0.12928,0.0905 -0.2477,0.0885 -0.44011,-0.006 z m -4.93659,-0.13269 c -0.097,-0.0978 -0.0909,-0.30963 0.0114,-0.40279 0.18638,-0.16822 0.46652,-0.0469 0.46652,0.19972 0,0.16755 -0.10797,0.27478 -0.27532,0.27478 -0.0718,0 -0.16353,-0.0335 -0.20347,-0.0724 z m 7.08427,0.0134 c -0.14603,-0.073 -0.18135,-0.32102 -0.065,-0.4497 0.16541,-0.18296 0.47778,-0.0536 0.47778,0.19369 0,0.22786 -0.2093,0.35721 -0.4129,0.25534 z m -3.27255,-1.37477 c -0.0154,-0.0818 -0.0402,-0.27142 -0.0576,-0.42289 -0.0389,-0.32571 -0.0838,-0.24998 -0.13438,0.2205 -0.0154,0.16821 -0.0482,0.30627 -0.0679,0.30627 -0.0503,0 -0.54668,-0.54285 -0.64821,-0.70933 -0.0955,-0.15682 -0.1138,-0.48254 -0.0308,-0.56631 0.067,-0.067 0.34093,-0.073 0.38094,-0.006 0.0489,0.0791 0.11493,0.0536 0.11493,-0.0469 0,-0.1079 0.0812,-0.2788 0.15569,-0.32906 0.087,-0.0603 0.33898,-0.0402 0.41043,0.0335 0.0389,0.0402 0.0924,0.14208 0.12271,0.23256 0.0416,0.12666 0.071,0.15682 0.12968,0.13068 0.30634,-0.13672 0.52637,0.0536 0.43,0.37799 -0.0536,0.18028 -0.4367,0.66684 -0.65894,0.83888 l -0.12157,0.0938 z"
             style="fill:#ffffff;fill-opacity:1;stroke-width:0.00490333" />
          <g
             id="g8176"
             style="font-style:normal;font-weight:normal;font-size:8.89186478px;line-height:125%;font-family:sans-serif;letter-spacing:0px;word-spacing:0px;fill:#ffffff;fill-opacity:1;stroke:none;stroke-width:0.01474181px;stroke-linecap:butt;stroke-linejoin:miter;stroke-opacity:1"
             transform="matrix(6.5861613,-5.8336884,3.5125712,3.7084644,25.042129,-690.54599)"
             aria-label="ed">
            <path
               id="path8172"
               style="font-style:normal;font-variant:normal;font-weight:normal;font-stretch:normal;font-family:'Kaushan Script';-inkscape-font-specification:'Kaushan Script';fill:#ffffff;stroke-width:0.01474181px"
               d="m -48.992951,159.80572 q -0.03557,0.5513 -0.195621,0.95143 -0.160054,0.39124 -0.462377,0.69357 -0.293432,0.29343 -0.720241,0.53351 -0.42681,0.24008 -0.995889,0.46238 0,0.0533 -0.0089,0.11559 0,0.0534 0,0.11559 0,0.1156 0.01778,0.24008 0.01778,0.12449 0.06224,0.23119 0.04446,0.10671 0.124486,0.17784 0.08003,0.0622 0.204513,0.0622 0.24008,0 0.471269,-0.1067 0.231188,-0.1067 0.435701,-0.25786 0.213405,-0.16006 0.391242,-0.33789 0.186729,-0.18673 0.328999,-0.33789 0.08892,0.08 0.151162,0.15116 -0.400134,0.53351 -0.880295,0.88918 -0.471269,0.34679 -0.898078,0.4446 -0.613539,-0.0711 -0.960322,-0.4446 -0.33789,-0.38235 -0.33789,-0.91586 0,-0.36457 0.09781,-0.73802 0.106702,-0.38235 0.28454,-0.72914 0.186729,-0.35567 0.426809,-0.66689 0.248972,-0.31121 0.52462,-0.5424 0.28454,-0.23119 0.577971,-0.36457 0.302324,-0.13337 0.595755,-0.13337 0.409026,0.0533 0.764701,0.50683 z m -0.613539,0.29343 q -0.24008,0.0356 -0.497944,0.19562 -0.257864,0.16006 -0.489053,0.42681 -0.222297,0.26676 -0.409026,0.62243 -0.186729,0.35568 -0.293431,0.7647 0.711349,-0.35567 1.182618,-0.8714 0.471269,-0.52462 0.506836,-1.13816 z" />
            <path
               id="path8174"
               style="fill:#ffffff;stroke-width:0.01474181px"
               d="m -46.642859,159.33445 q 0.177837,0 0.409026,0.10671 0.231188,0.1067 0.409025,0.27564 -0.04446,-0.35567 -0.115594,-0.66689 -0.06224,-0.3201 -0.195621,-0.65799 -0.124486,-0.3379 -0.337891,-0.73803 -0.213405,-0.40013 -0.533512,-0.91586 0.02668,-0.08 0.115595,-0.18673 0.09781,-0.1067 0.213404,-0.19562 0.124486,-0.0978 0.248973,-0.16895 0.133377,-0.0711 0.248972,-0.0889 0.248972,0.27565 0.471269,0.69357 0.222296,0.40903 0.391242,0.88919 0.168945,0.47126 0.257864,0.9781 0.09781,0.50684 0.09781,0.96921 0,0.46238 -0.106702,0.95143 -0.09781,0.48906 -0.28454,0.96033 -0.177837,0.46237 -0.417917,0.88029 -0.240081,0.41792 -0.524621,0.74692 -0.275647,0.329 -0.577971,0.53351 -0.302323,0.2134 -0.604647,0.26675 -0.613538,-0.0711 -0.942537,-0.40013 -0.320107,-0.32011 -0.320107,-0.88919 0,-0.30232 0.08892,-0.65799 0.09781,-0.35568 0.248973,-0.70246 0.160053,-0.35568 0.364566,-0.68467 0.213405,-0.3379 0.444593,-0.60465 0.240081,-0.26676 0.480161,-0.45349 0.24008,-0.18673 0.471269,-0.24008 z m -0.90697,4.27699 q 0.311215,-0.1067 0.62243,-0.47127 0.311215,-0.36457 0.560188,-0.85362 0.248972,-0.49794 0.400133,-1.05813 0.160054,-0.56908 0.160054,-1.0937 0,-0.15116 0,-0.18673 0,-0.0356 -0.0089,-0.0711 -0.213405,0.0889 -0.453485,0.30232 -0.24008,0.2134 -0.480161,0.49794 -0.24008,0.27565 -0.453485,0.60465 -0.213404,0.329 -0.38235,0.658 -0.168945,0.329 -0.266756,0.63132 -0.09781,0.30233 -0.09781,0.53351 0,0.4446 0.400134,0.50684 z" />
          </g>
          <path
             style="font-style:normal;font-variant:normal;font-weight:normal;font-stretch:normal;font-size:24.41930199px;line-height:125%;font-family:FZWeiBei-S03;-inkscape-font-specification:FZWeiBei-S03;letter-spacing:0px;word-spacing:0px;fill:#ffffff;fill-opacity:1;stroke:none;stroke-width:0.11261176px;stroke-linecap:butt;stroke-linejoin:miter;stroke-opacity:1"
             d="m 315.10723,179.98748 c -0.66229,0.49862 -1.37521,1.07747 -2.14034,1.73787 -0.73939,0.61993 -1.42403,1.24375 -2.05407,1.87292 -0.63005,0.62931 -1.21399,1.23088 -1.75079,1.80403 -0.46927,0.5576 -0.81941,1.01842 -1.05075,1.38281 -0.20562,0.3237 -0.37444,0.72508 -0.506,1.20453 -0.0897,0.50399 -0.0936,0.92091 -0.0134,1.24763 -0.43395,0.4115 -0.72836,0.73748 -0.88259,0.98036 -0.20561,0.3237 -0.2357,0.78024 -0.0905,1.36847 0.1709,0.54754 0.48227,1.01051 0.9329,1.38998 0.37296,-0.22452 1.09638,-0.54621 2.17051,-0.96743 1.07412,-0.42088 2.23614,-0.84477 3.48718,-1.27209 1.27676,-0.46779 2.53609,-0.86294 3.77756,-1.18443 1.26718,-0.3619 2.27275,-0.62931 3.01571,-0.80068 -0.0523,-0.64405 -0.23858,-1.395 -0.55773,-2.25386 -0.29341,-0.89939 -0.68697,-1.77654 -1.183,-2.62903 -0.47034,-0.89303 -1.00532,-1.68406 -1.60417,-2.37469 -0.53133,-0.70612 -1.04893,-1.20789 -1.55098,-1.50639 z"
             id="path8178" />
          <g
             aria-label="ed"
             transform="matrix(6.5861613,-5.8336884,3.5125712,3.7084644,25.042129,-690.54599)"
             style="font-style:normal;font-weight:normal;font-size:8.89186478px;line-height:125%;font-family:sans-serif;letter-spacing:0px;word-spacing:0px;fill:#1c2422;fill-opacity:1;stroke:none;stroke-width:0.01474181px;stroke-linecap:butt;stroke-linejoin:miter;stroke-opacity:1"
             id="g8184">
            <path
               d="m -52.269857,162.49154 c 8.54e-4,-0.24466 0.0345,-0.49261 0.100943,-0.7439 0.07242,-0.25731 0.168647,-0.50295 0.288673,-0.73689 0.126006,-0.23996 0.269843,-0.4652 0.431509,-0.6757 0.167627,-0.21056 0.344102,-0.39436 0.529423,-0.55141 0.191283,-0.15711 0.52809,-0.33966 0.725103,-0.43119 -0.191805,0.36331 -1.799497,3.36325 -1.975032,3.66921 0,0 0,0 -0.100619,-0.53012 z"
               style="font-style:normal;font-variant:normal;font-weight:normal;font-stretch:normal;font-family:'Kaushan Script';-inkscape-font-specification:'Kaushan Script';fill:#1c2422;stroke-width:0.01474181px"
               id="path8180" />
            <path
               d="m -46.642859,159.33445 c 0.118558,0 0.2549,0.0356 0.409026,0.10671 0.154125,0.0711 0.290467,0.16301 0.409025,0.27564 -0.02964,-0.23711 -0.06817,-0.45941 -0.115594,-0.66689 -0.04149,-0.2134 -0.1067,-0.43273 -0.195621,-0.65799 -0.08299,-0.22527 -0.195621,-0.47128 -0.337891,-0.73803 -0.14227,-0.26675 -0.320107,-0.57204 -0.533512,-0.91586 0.01779,-0.0533 0.05632,-0.11558 0.115595,-0.18673 0.06521,-0.0711 0.136341,-0.13634 0.213404,-0.19562 0.08299,-0.0652 0.165982,-0.12152 0.248973,-0.16895 0.08892,-0.0474 0.171909,-0.077 0.248972,-0.0889 0.165981,0.18377 0.323071,0.41496 0.471269,0.69357 0.148197,0.27269 0.278611,0.56908 0.391242,0.88919 0.11263,0.31417 0.198585,0.64021 0.257864,0.9781 0.06521,0.33789 0.09781,0.66096 0.09781,0.96921 0,0.30825 -0.03557,0.6254 -0.106702,0.95143 -0.06521,0.32604 -0.160053,0.64615 -0.28454,0.96033 -0.118558,0.30825 -0.172723,0.38692 -0.172723,0.38692 l -1.526074,-2.41408 c 0.160053,-0.12449 0.255353,-0.14246 0.409479,-0.17803 z m 0.675781,1.89397 c 0.106703,-0.37939 0.160054,-0.74395 0.160054,-1.0937 v -0.18673 c 0,-0.0237 -0.003,-0.0474 -0.0089,-0.0711 -0.14227,0.0593 -0.293432,0.16004 -0.453485,0.30232 -0.160053,0.14227 -0.22007,0.22548 -0.22007,0.22548 z"
               style="fill:#1c2422;stroke-width:0.01474181px"
               id="path8182" />
          </g>
        </g>
      </g>
      <text
         transform="scale(1.0882481,0.91890812)"
         id="text8196"
         y="192.3781"
         x="97.123833"
         style="font-style:normal;font-variant:normal;font-weight:normal;font-stretch:normal;font-size:18.10448647px;line-height:125%;font-family:'Some Time Later';-inkscape-font-specification:'Some Time Later';letter-spacing:0px;word-spacing:0px;fill:#1c2422;fill-opacity:1;stroke:none;stroke-width:0.26458329px;stroke-linecap:butt;stroke-linejoin:miter;stroke-opacity:1"
         xml:space="preserve"><tspan
           style="font-style:normal;font-variant:normal;font-weight:normal;font-stretch:normal;font-family:'Some Time Later';-inkscape-font-specification:'Some Time Later';fill:#1c2422;stroke-width:0.26458329px"
           y="192.3781"
           x="97.123833"
           id="tspan8190">Equipos de</tspan><tspan
           id="tspan8192"
           style="font-style:normal;font-variant:normal;font-weight:normal;font-stretch:normal;font-family:'Some Time Later';-inkscape-font-specification:'Some Time Later';fill:#1c2422;stroke-width:0.26458329px"
           y="215.00871"
           x="97.123833">Inclusión</tspan><tspan
           id="tspan8194"
           style="font-style:normal;font-variant:normal;font-weight:normal;font-stretch:normal;font-family:'Some Time Later';-inkscape-font-specification:'Some Time Later';fill:#1c2422;stroke-width:0.26458329px"
           y="237.63931"
           x="97.123833">Social</tspan></text>
      <text
         id="text8200"
         y="235.08823"
         x="105.43064"
         style="font-style:normal;font-variant:normal;font-weight:normal;font-stretch:normal;font-size:8.74663353px;line-height:125%;font-family:Arial;-inkscape-font-specification:Arial;letter-spacing:0px;word-spacing:0px;fill:#1c2422;fill-opacity:1;stroke:none;stroke-width:0.26458332px;stroke-linecap:butt;stroke-linejoin:miter;stroke-opacity:1"
         xml:space="preserve"><tspan
           style="font-style:normal;font-variant:normal;font-weight:normal;font-stretch:normal;font-family:Arial;-inkscape-font-specification:Arial;fill:#1c2422;stroke-width:0.26458332px"
           y="235.08823"
           x="105.43064"
           id="tspan8198">Ayuntamiento de León</tspan></text>
    </g>
  </g>
</svg>
